<?xml version="1.0" standalone="no"?>
<!DOCTYPE svg PUBLIC "-//W3C//DTD SVG 1.1//EN" "http://www.w3.org/Graphics/SVG/1.1/DTD/svg11.dtd" >
<svg>
<metadata>
Created by FontForge 20090622 at Wed Jan  1 10:32:04 2020
 By deploy user
&#194;&#169; 2018 Microsoft Corporation. All rights reserved.
</metadata>
<defs>
<font id="Bahnschrift" horiz-adv-x="0" >
  <font-face 
    font-family="Bahnschrift"
    font-weight="400"
    font-stretch="normal"
    units-per-em="2048"
    panose-1="2 11 5 2 4 2 4 2 2 3"
    ascent="1626"
    descent="-422"
    x-height="1038"
    cap-height="1454"
    bbox="-2164 -504 2268 2014"
    underline-thickness="50"
    underline-position="-75"
    unicode-range="U+0020-U+2133"
  />
<missing-glyph horiz-adv-x="1468" 
d="M180 0v1454h1108v-1454h-1108zM355 175h758v1104h-758v-1104z" />
    <glyph glyph-name=".notdef" horiz-adv-x="1468" 
d="M180 0v1454h1108v-1454h-1108zM355 175h758v1104h-758v-1104z" />
    <glyph glyph-name="space" unicode=" " horiz-adv-x="350" 
 />
    <glyph glyph-name="A" unicode="A" horiz-adv-x="1326" 
d="M576 1454h174l536 -1454h-220l-403 1173l-403 -1173h-220zM287 513h765v-194h-765v194z" />
    <glyph glyph-name="Aacute" unicode="&#xc1;" horiz-adv-x="1326" 
d="M576 1454h174l536 -1454h-220l-403 1173l-403 -1173h-220zM287 513h765v-194h-765v194zM569 1672l276 245l132 -137l-295 -226z" />
    <glyph glyph-name="Abreve" unicode="&#x102;" horiz-adv-x="1326" 
d="M576 1454h174l536 -1454h-220l-403 1173l-403 -1173h-220zM287 513h765v-194h-765v194zM1000 1863q0 -146 -87 -225.5t-246 -79.5h-8q-159 0 -246 79.5t-87 225.5l165 -2q0 -75 44 -116.5t124 -41.5h8q80 0 124 41.5t44 116.5z" />
    <glyph glyph-name="Acircumflex" unicode="&#xc2;" horiz-adv-x="1326" 
d="M576 1454h174l536 -1454h-220l-403 1173l-403 -1173h-220zM287 513h765v-194h-765v194zM974 1662l-119 -110l-195 150l-195 -150l-119 110l314 244z" />
    <glyph glyph-name="Adieresis" unicode="&#xc4;" horiz-adv-x="1326" 
d="M576 1454h174l536 -1454h-220l-403 1173l-403 -1173h-220zM287 513h765v-194h-765v194zM766 1777h204v-204h-204v204zM356 1777h204v-204h-204v204z" />
    <glyph glyph-name="uni1EA0" unicode="&#x1ea0;" horiz-adv-x="1326" 
d="M576 1454h174l536 -1454h-220l-403 1173l-403 -1173h-220zM287 513h765v-194h-765v194zM561 -180h204v-204h-204v204z" />
    <glyph glyph-name="Agrave" unicode="&#xc0;" horiz-adv-x="1326" 
d="M576 1454h174l536 -1454h-220l-403 1173l-403 -1173h-220zM287 513h765v-194h-765v194zM354 1770l122 137l276 -245l-113 -118z" />
    <glyph glyph-name="Amacron" unicode="&#x100;" horiz-adv-x="1326" 
d="M576 1454h174l536 -1454h-220l-403 1173l-403 -1173h-220zM287 513h765v-194h-765v194zM1028 1773v-200h-730v200h730z" />
    <glyph glyph-name="Aogonek" unicode="&#x104;" horiz-adv-x="1326" 
d="M576 1454h174l536 -1454h-220l-403 1173l-403 -1173h-220zM287 513h765v-194h-765v194zM964 -356q-75 64 -75 193q0 136 74 203t223 67h16v-107h-16q-116 0 -116 -134q0 -120 120 -120h92v-166h-92q-151 0 -226 64z" />
    <glyph glyph-name="Aring" unicode="&#xc5;" horiz-adv-x="1326" 
d="M481.5 1482q-63.5 60 -63.5 171q0 116 63.5 178.5t181.5 62.5q117 0 181 -63.5t64 -177.5q0 -111 -64 -171t-181 -60q-118 0 -181.5 60zM739 1580q27 28 27 77q0 51 -27 79.5t-76 28.5t-76 -28.5t-27 -79.5q0 -49 27 -77t76 -28t76 28zM576 1454h174l536 -1454h-220
l-403 1173l-403 -1173h-220zM287 513h765v-194h-765v194z" />
    <glyph glyph-name="Atilde" unicode="&#xc3;" horiz-adv-x="1326" 
d="M576 1454h174l536 -1454h-220l-403 1173l-403 -1173h-220zM287 513h765v-194h-765v194zM787 1563q-28 5 -52 13.5t-50 20.5l-3 1l-29.5 15.5t-28.5 15.5q-37 22 -61.5 32.5t-48.5 10.5q-40 0 -60 -22.5t-20 -67.5v-21h-158v25q0 130 51 194.5t153 64.5q57 0 99 -14
t95 -40l3 -2l17.5 -9.5t16.5 -9.5q35 -20 57 -29.5t44 -9.5q40 0 60 24t20 73v20h158v-24q0 -133 -50.5 -199.5t-152.5 -66.5q-32 0 -60 5z" />
    <glyph glyph-name="AE" unicode="&#xc6;" horiz-adv-x="2000" 
d="M806 1454h221l-800 -1454h-227zM355 511h705v-194h-705v194zM956 1454h204v-1454h-204v1454zM1055 194h835v-194h-835v194zM1055 819h725v-194h-725v194zM1055 1454h835v-194h-835v194z" />
    <glyph glyph-name="B" unicode="B" horiz-adv-x="1322" 
d="M300 189h394q155 0 226 59t71 166v3q0 74 -25.5 127t-80.5 81.5t-141 28.5h-444v184h444q113 0 170.5 53t57.5 157v0q0 109 -64 163t-192 54h-416v189h453q141 0 236 -48t142 -136t47 -210v0q0 -75 -29 -140.5t-88.5 -112t-147.5 -62.5q88 -13 152 -62.5t98 -123.5
t34 -160v-3q0 -118 -52 -208t-149 -139t-226 -49h-470v189zM180 1454h203v-1454h-203v1454z" />
    <glyph glyph-name="uni0181" unicode="&#x181;" horiz-adv-x="1499" 
d="M-20 1211q0 116 72 179.5t203 63.5h235v-189h-228q-38 0 -58.5 -15.5t-20.5 -43.5v-69h-203v74zM477 189h394q155 0 226 59t71 166v3q0 74 -25.5 127t-80.5 81.5t-141 28.5h-444v184h444q113 0 170.5 53t57.5 157v0q0 109 -64 163t-192 54h-416v189h453q141 0 236 -48
t142 -136t47 -210v0q0 -75 -29 -140.5t-88.5 -112t-147.5 -62.5q88 -13 152 -62.5t98 -123.5t34 -160v-3q0 -118 -52 -208t-149 -139t-226 -49h-470v189zM357 1454h203v-1454h-203v1454z" />
    <glyph glyph-name="C" unicode="C" horiz-adv-x="1267" 
d="M390.5 52q-114.5 67 -177.5 190t-63 285v399q0 162 63 285t177.5 190.5t265.5 67.5q125 0 230 -53.5t175.5 -151.5t95.5 -227v0h-209v0q-19 68 -63.5 121.5t-104.5 82.5t-124 29q-89 0 -156 -43t-104 -120.5t-37 -180.5v-399q0 -102 37 -180t104 -120.5t156 -42.5
q65 0 124.5 27t104 80t63.5 126v0h209v0q-25 -129 -96 -227t-176 -151.5t-229 -53.5q-151 0 -265.5 67z" />
    <glyph glyph-name="Cacute" unicode="&#x106;" horiz-adv-x="1267" 
d="M390.5 52q-114.5 67 -177.5 190t-63 285v399q0 162 63 285t177.5 190.5t265.5 67.5q125 0 230 -53.5t175.5 -151.5t95.5 -227v0h-209v0q-19 68 -63.5 121.5t-104.5 82.5t-124 29q-89 0 -156 -43t-104 -120.5t-37 -180.5v-399q0 -102 37 -180t104 -120.5t156 -42.5
q65 0 124.5 27t104 80t63.5 126v0h209v0q-25 -129 -96 -227t-176 -151.5t-229 -53.5q-151 0 -265.5 67zM564 1672l276 245l132 -137l-295 -226z" />
    <glyph glyph-name="Ccaron" unicode="&#x10c;" horiz-adv-x="1267" 
d="M390.5 52q-114.5 67 -177.5 190t-63 285v399q0 162 63 285t177.5 190.5t265.5 67.5q125 0 230 -53.5t175.5 -151.5t95.5 -227v0h-209v0q-19 68 -63.5 121.5t-104.5 82.5t-124 29q-89 0 -156 -43t-104 -120.5t-37 -180.5v-399q0 -102 37 -180t104 -120.5t156 -42.5
q65 0 124.5 27t104 80t63.5 126v0h209v0q-25 -129 -96 -227t-176 -151.5t-229 -53.5q-151 0 -265.5 67zM349 1801l114 120l195 -150l195 150l114 -120l-309 -239z" />
    <glyph glyph-name="Ccedilla" unicode="&#xc7;" horiz-adv-x="1267" 
d="M390.5 52q-114.5 67 -177.5 190t-63 285v399q0 162 63 285t177.5 190.5t265.5 67.5q125 0 230 -53.5t175.5 -151.5t95.5 -227v0h-209v0q-19 68 -63.5 121.5t-104.5 82.5t-124 29q-89 0 -156 -43t-104 -120.5t-37 -180.5v-399q0 -102 37 -180t104 -120.5t156 -42.5
q65 0 124.5 27t104 80t63.5 126v0h209v0q-25 -129 -96 -227t-176 -151.5t-229 -53.5q-151 0 -265.5 67zM471 -404l42 140q48 -14 95 -14q55 0 82 12.5t27 38.5q0 25 -36 37t-110 12l87 116q118 0 176.5 -44.5t58.5 -134.5q0 -91 -64 -136t-193 -45q-100 0 -165 18zM721 61
v-241l-166 2v239h166z" />
    <glyph glyph-name="Cdotaccent" unicode="&#x10a;" horiz-adv-x="1267" 
d="M390.5 52q-114.5 67 -177.5 190t-63 285v399q0 162 63 285t177.5 190.5t265.5 67.5q125 0 230 -53.5t175.5 -151.5t95.5 -227v0h-209v0q-19 68 -63.5 121.5t-104.5 82.5t-124 29q-89 0 -156 -43t-104 -120.5t-37 -180.5v-399q0 -102 37 -180t104 -120.5t156 -42.5
q65 0 124.5 27t104 80t63.5 126v0h209v0q-25 -129 -96 -227t-176 -151.5t-229 -53.5q-151 0 -265.5 67zM556 1777h204v-204h-204v204z" />
    <glyph glyph-name="D" unicode="D" horiz-adv-x="1344" 
d="M318 194h329q161 0 249.5 83.5t88.5 235.5v428q0 152 -88.5 235.5t-249.5 83.5h-329v194h323q175 0 299 -61t189 -178t65 -282v-412q0 -165 -65 -282t-189.5 -178t-299.5 -61h-322v194zM180 1454h204v-1454h-204v1454z" />
    <glyph glyph-name="uni0189" unicode="&#x189;" horiz-adv-x="1391" 
d="M365 194h329q161 0 249.5 83.5t88.5 235.5v428q0 152 -88.5 235.5t-249.5 83.5h-329v194h323q175 0 299 -61t189 -178t65 -282v-412q0 -165 -65 -282t-189.5 -178t-299.5 -61h-322v194zM227 1454h204v-1454h-204v1454zM748 814v-174h-670v174h670z" />
    <glyph glyph-name="Eth" unicode="&#xd0;" horiz-adv-x="1391" 
d="M365 194h329q161 0 249.5 83.5t88.5 235.5v428q0 152 -88.5 235.5t-249.5 83.5h-329v194h323q175 0 299 -61t189 -178t65 -282v-412q0 -165 -65 -282t-189.5 -178t-299.5 -61h-322v194zM227 1454h204v-1454h-204v1454zM748 814v-174h-670v174h670z" />
    <glyph glyph-name="Dcaron" unicode="&#x10e;" horiz-adv-x="1344" 
d="M318 194h329q161 0 249.5 83.5t88.5 235.5v428q0 152 -88.5 235.5t-249.5 83.5h-329v194h323q175 0 299 -61t189 -178t65 -282v-412q0 -165 -65 -282t-189.5 -178t-299.5 -61h-322v194zM180 1454h204v-1454h-204v1454zM347 1801l114 120l195 -150l195 150l114 -120
l-309 -239z" />
    <glyph glyph-name="Dcroat" unicode="&#x110;" horiz-adv-x="1391" 
d="M365 194h329q161 0 249.5 83.5t88.5 235.5v428q0 152 -88.5 235.5t-249.5 83.5h-329v194h323q175 0 299 -61t189 -178t65 -282v-412q0 -165 -65 -282t-189.5 -178t-299.5 -61h-322v194zM227 1454h204v-1454h-204v1454zM748 814v-174h-670v174h670z" />
    <glyph glyph-name="uni018A" unicode="&#x18a;" horiz-adv-x="1521" 
d="M-20 1211q0 116 72 179.5t203 63.5h235v-189h-228q-38 0 -58.5 -15.5t-20.5 -43.5v-69h-203v74zM495 194h329q161 0 249.5 83.5t88.5 235.5v428q0 152 -88.5 235.5t-249.5 83.5h-329v194h323q175 0 299 -61t189 -178t65 -282v-412q0 -165 -65 -282t-189.5 -178
t-299.5 -61h-322v194zM357 1454h204v-1454h-204v1454z" />
    <glyph glyph-name="E" unicode="E" horiz-adv-x="1224" 
d="M180 1454h204v-1454h-204v1454zM279 194h835v-194h-835v194zM279 819h725v-194h-725v194zM279 1454h835v-194h-835v194z" />
    <glyph glyph-name="Eacute" unicode="&#xc9;" horiz-adv-x="1224" 
d="M180 1454h204v-1454h-204v1454zM279 194h835v-194h-835v194zM279 819h725v-194h-725v194zM279 1454h835v-194h-835v194zM571 1672l276 245l132 -137l-295 -226z" />
    <glyph glyph-name="Ecaron" unicode="&#x11a;" horiz-adv-x="1224" 
d="M180 1454h204v-1454h-204v1454zM279 194h835v-194h-835v194zM279 819h725v-194h-725v194zM279 1454h835v-194h-835v194zM356 1801l114 120l195 -150l195 150l114 -120l-309 -239z" />
    <glyph glyph-name="Ecircumflex" unicode="&#xca;" horiz-adv-x="1224" 
d="M180 1454h204v-1454h-204v1454zM279 194h835v-194h-835v194zM279 819h725v-194h-725v194zM279 1454h835v-194h-835v194zM976 1662l-119 -110l-195 150l-195 -150l-119 110l314 244z" />
    <glyph glyph-name="Edieresis" unicode="&#xcb;" horiz-adv-x="1224" 
d="M180 1454h204v-1454h-204v1454zM279 194h835v-194h-835v194zM279 819h725v-194h-725v194zM279 1454h835v-194h-835v194zM768 1777h204v-204h-204v204zM358 1777h204v-204h-204v204z" />
    <glyph glyph-name="Edotaccent" unicode="&#x116;" horiz-adv-x="1224" 
d="M180 1454h204v-1454h-204v1454zM279 194h835v-194h-835v194zM279 819h725v-194h-725v194zM279 1454h835v-194h-835v194zM563 1777h204v-204h-204v204z" />
    <glyph glyph-name="uni1EB8" unicode="&#x1eb8;" horiz-adv-x="1224" 
d="M180 1454h204v-1454h-204v1454zM279 194h835v-194h-835v194zM279 819h725v-194h-725v194zM279 1454h835v-194h-835v194zM563 -180h204v-204h-204v204z" />
    <glyph glyph-name="Egrave" unicode="&#xc8;" horiz-adv-x="1224" 
d="M180 1454h204v-1454h-204v1454zM279 194h835v-194h-835v194zM279 819h725v-194h-725v194zM279 1454h835v-194h-835v194zM356 1770l122 137l276 -245l-113 -118z" />
    <glyph glyph-name="Emacron" unicode="&#x112;" horiz-adv-x="1224" 
d="M180 1454h204v-1454h-204v1454zM279 194h835v-194h-835v194zM279 819h725v-194h-725v194zM279 1454h835v-194h-835v194zM1030 1773v-200h-730v200h730z" />
    <glyph glyph-name="Eogonek" unicode="&#x118;" horiz-adv-x="1224" 
d="M180 1454h204v-1454h-204v1454zM279 194h835v-194h-835v194zM279 819h725v-194h-725v194zM279 1454h835v-194h-835v194zM792 -356q-75 64 -75 193q0 136 74 203t223 67h16v-107h-16q-116 0 -116 -134q0 -120 120 -120h92v-166h-92q-151 0 -226 64z" />
    <glyph glyph-name="uni0190" unicode="&#x190;" horiz-adv-x="1123" 
d="M336 29.5q-98 44.5 -147 133.5t-49 223v24q0 148 62.5 235t187.5 114q-113 39 -169.5 116t-56.5 192v24q0 127 46.5 210.5t139.5 125.5t233 42q121 0 208 -41.5t141.5 -125.5t76.5 -210v0h-207v0q-14 61 -43 101t-73 60t-103 20q-108 0 -161.5 -45t-53.5 -135v-45
q0 -97 47.5 -146t141.5 -49h153v-194h-153q-106 0 -159.5 -57t-53.5 -171v-44q0 -103 59.5 -154.5t178.5 -51.5q72 0 122.5 20t81 60.5t39.5 100.5v0h208v0q-16 -126 -72 -209.5t-150.5 -125.5t-228.5 -42q-148 0 -246 44.5z" />
    <glyph glyph-name="uni018E" unicode="&#x18e;" horiz-adv-x="1224" 
d="M840 0v1454h204v-1454h-204zM110 0v194h835v-194h-835zM220 625v194h725v-194h-725zM110 1260v194h835v-194h-835z" />
    <glyph glyph-name="uni01B7" unicode="&#x1b7;" horiz-adv-x="1113" 
d="M309.5 27q-93.5 42 -148 125.5t-71.5 209.5v0h208v0q14 -91 73.5 -136t164.5 -45q117 0 175 51.5t58 154.5v44q0 114 -58 171t-175 57h-163v194h163q146 0 243 -48t145.5 -144t48.5 -241v-24q0 -138 -48.5 -229t-145.5 -136.5t-243 -45.5q-133 0 -226.5 42zM373 853
l325 407h-550v194h796v-176l-405 -510z" />
    <glyph glyph-name="F" unicode="F" horiz-adv-x="1145" 
d="M180 1454h204v-1454h-204v1454zM280 806h705v-194h-705v194zM280 1454h815v-194h-815v194z" />
    <glyph glyph-name="uni0191" unicode="&#x191;" horiz-adv-x="1158" 
d="M20 -193h114q28 0 43.5 20.5t15.5 58.5v377h204v-375q0 -131 -63.5 -203t-179.5 -72h-134v194zM193 1454h204v-1454h-204v1454zM293 806h705v-194h-705v194zM293 1454h815v-194h-815v194z" />
    <glyph glyph-name="G" unicode="G" horiz-adv-x="1324" 
d="M1174 783v-254q0 -162 -63 -285.5t-178.5 -191t-267.5 -67.5q-154 0 -270.5 63.5t-180.5 179.5t-64 269v429q0 162 63 285t178.5 190.5t267.5 67.5q125 0 230.5 -53.5t176.5 -151.5t96 -227v0h-221v0q-18 73 -61 125.5t-101 80t-120 27.5q-90 0 -158 -43t-105 -120.5
t-37 -180.5v-429q0 -94 38 -164.5t107.5 -109.5t160.5 -39q90 0 158 40.5t105 117.5t37 183v63h-295v195h504z" />
    <glyph glyph-name="Gbreve" unicode="&#x11e;" horiz-adv-x="1324" 
d="M1174 783v-254q0 -162 -63 -285.5t-178.5 -191t-267.5 -67.5q-154 0 -270.5 63.5t-180.5 179.5t-64 269v429q0 162 63 285t178.5 190.5t267.5 67.5q125 0 230.5 -53.5t176.5 -151.5t96 -227v0h-221v0q-18 73 -61 125.5t-101 80t-120 27.5q-90 0 -158 -43t-105 -120.5
t-37 -180.5v-429q0 -94 38 -164.5t107.5 -109.5t160.5 -39q90 0 158 40.5t105 117.5t37 183v63h-295v195h504zM1002 1863q0 -146 -87 -225.5t-246 -79.5h-8q-159 0 -246 79.5t-87 225.5l165 -2q0 -75 44 -116.5t124 -41.5h8q80 0 124 41.5t44 116.5z" />
    <glyph glyph-name="Gcommaaccent" unicode="&#x122;" horiz-adv-x="1324" 
d="M1174 783v-254q0 -162 -63 -285.5t-178.5 -191t-267.5 -67.5q-154 0 -270.5 63.5t-180.5 179.5t-64 269v429q0 162 63 285t178.5 190.5t267.5 67.5q125 0 230.5 -53.5t176.5 -151.5t96 -227v0h-221v0q-18 73 -61 125.5t-101 80t-120 27.5q-90 0 -158 -43t-105 -120.5
t-37 -180.5v-429q0 -94 38 -164.5t107.5 -109.5t160.5 -39q90 0 158 40.5t105 117.5t37 183v63h-295v195h504zM563 -148h204v-154l-204 -202v356z" />
    <glyph glyph-name="Gdotaccent" unicode="&#x120;" horiz-adv-x="1324" 
d="M1174 783v-254q0 -162 -63 -285.5t-178.5 -191t-267.5 -67.5q-154 0 -270.5 63.5t-180.5 179.5t-64 269v429q0 162 63 285t178.5 190.5t267.5 67.5q125 0 230.5 -53.5t176.5 -151.5t96 -227v0h-221v0q-18 73 -61 125.5t-101 80t-120 27.5q-90 0 -158 -43t-105 -120.5
t-37 -180.5v-429q0 -94 38 -164.5t107.5 -109.5t160.5 -39q90 0 158 40.5t105 117.5t37 183v63h-295v195h504zM563 1777h204v-204h-204v204z" />
    <glyph glyph-name="H" unicode="H" horiz-adv-x="1390" 
d="M1006 1454h204v-1454h-204v1454zM180 1454h204v-1454h-204v1454zM307 813h807v-194h-807v194z" />
    <glyph glyph-name="Hbar" unicode="&#x126;" horiz-adv-x="1550" 
d="M110 1213h1330v-194h-1330v194zM1086 1454h204v-1454h-204v1454zM260 1454h204v-1454h-204v1454zM387 813h807v-194h-807v194z" />
    <glyph glyph-name="I" unicode="I" horiz-adv-x="564" 
d="M384 0h-204v1454h204v-1454z" />
    <glyph glyph-name="Iacute" unicode="&#xcd;" horiz-adv-x="564" 
d="M384 0h-204v1454h204v-1454zM188 1672l276 245l132 -137l-295 -226z" />
    <glyph glyph-name="Icircumflex" unicode="&#xce;" horiz-adv-x="564" 
d="M384 0h-204v1454h204v-1454zM593 1662l-119 -110l-195 150l-195 -150l-119 110l314 244z" />
    <glyph glyph-name="Idieresis" unicode="&#xcf;" horiz-adv-x="564" 
d="M384 0h-204v1454h204v-1454zM385 1777h204v-204h-204v204zM-25 1777h204v-204h-204v204z" />
    <glyph glyph-name="Idotaccent" unicode="&#x130;" horiz-adv-x="564" 
d="M384 0h-204v1454h204v-1454zM180 1777h204v-204h-204v204z" />
    <glyph glyph-name="uni1ECA" unicode="&#x1eca;" horiz-adv-x="564" 
d="M384 0h-204v1454h204v-1454zM175 -180h204v-204h-204v204z" />
    <glyph glyph-name="Igrave" unicode="&#xcc;" horiz-adv-x="564" 
d="M384 0h-204v1454h204v-1454zM-27 1770l122 137l276 -245l-113 -118z" />
    <glyph glyph-name="Imacron" unicode="&#x12a;" horiz-adv-x="564" 
d="M384 0h-204v1454h204v-1454zM647 1773v-200h-730v200h730z" />
    <glyph glyph-name="Iogonek" unicode="&#x12e;" horiz-adv-x="564" 
d="M135 -356q-75 64 -75 193q0 136 74 203t223 67v-107q-116 0 -116 -134q0 -120 120 -120h92v-166h-92q-151 0 -226 64zM384 0h-204v1454h204v-1454z" />
    <glyph glyph-name="J" unicode="J" horiz-adv-x="1035" 
d="M188 32q-97 47 -158 132l167 120q28 -49 81 -76t123 -27q119 0 184.5 74t65.5 208v991h204v-992q0 -151 -53 -258t-155 -163t-246 -56q-116 0 -213 47z" />
    <glyph glyph-name="K" unicode="K" horiz-adv-x="1314" 
d="M340 638l642 816h251l-923 -1122zM180 1454h204v-1454h-204v1454zM582 776l161 149l551 -925h-250z" />
    <glyph glyph-name="Kcommaaccent" unicode="&#x136;" horiz-adv-x="1314" 
d="M340 638l642 816h251l-923 -1122zM180 1454h204v-1454h-204v1454zM582 776l161 149l551 -925h-250zM580 -148h204v-154l-204 -202v356z" />
    <glyph glyph-name="uni0198" unicode="&#x198;" horiz-adv-x="1314" 
d="M341 644l565 717q26 33 56.5 55.5t64.5 33.5t73 11h134v-194h-114q-21 0 -47.5 -19.5t-58.5 -59.5l-706 -858zM180 1454h204v-1454h-204v1454zM582 776l161 149l551 -925h-250z" />
    <glyph glyph-name="L" unicode="L" horiz-adv-x="1174" 
d="M180 1454h204v-1454h-204v1454zM282 194h832v-194h-832v194z" />
    <glyph glyph-name="Lacute" unicode="&#x139;" horiz-adv-x="1174" 
d="M180 1454h204v-1454h-204v1454zM282 194h832v-194h-832v194zM188 1672l276 245l132 -137l-295 -226z" />
    <glyph glyph-name="Lcaron" unicode="&#x13d;" horiz-adv-x="1174" 
d="M180 1454h204v-1454h-204v1454zM282 194h832v-194h-832v194zM905 1453h174v-204l-174 -162v366z" />
    <glyph glyph-name="Lcommaaccent" unicode="&#x13b;" horiz-adv-x="1174" 
d="M180 1454h204v-1454h-204v1454zM282 194h832v-194h-832v194zM502 -148h204v-154l-204 -202v356z" />
    <glyph glyph-name="Lslash" unicode="&#x141;" horiz-adv-x="1264" 
d="M120 716l744 310v-195l-744 -310v195zM270 1454h204v-1454h-204v1454zM372 194h832v-194h-832v194z" />
    <glyph glyph-name="M" unicode="M" horiz-adv-x="1596" 
d="M1225 1454h191v-1454h-199v1089l10 -64l-358 -823h-142l-358 803l10 84v-1089h-199v1454h191l427 -960z" />
    <glyph glyph-name="N" unicode="N" horiz-adv-x="1434" 
d="M180 1454h185l711 -1124l-24 -26v1150h202v-1453h-187l-709 1107l24 26v-1133h-202v1453z" />
    <glyph glyph-name="Nacute" unicode="&#x143;" horiz-adv-x="1434" 
d="M180 1454h185l711 -1124l-24 -26v1150h202v-1453h-187l-709 1107l24 26v-1133h-202v1453zM638 1672l276 245l132 -137l-295 -226z" />
    <glyph glyph-name="Ncaron" unicode="&#x147;" horiz-adv-x="1434" 
d="M180 1454h185l711 -1124l-24 -26v1150h202v-1453h-187l-709 1107l24 26v-1133h-202v1453zM423 1801l114 120l195 -150l195 150l114 -120l-309 -239z" />
    <glyph glyph-name="Ncommaaccent" unicode="&#x145;" horiz-adv-x="1434" 
d="M180 1454h185l711 -1124l-24 -26v1150h202v-1453h-187l-709 1107l24 26v-1133h-202v1453zM630 -148h204v-154l-204 -202v356z" />
    <glyph glyph-name="Eng" unicode="&#x14a;" horiz-adv-x="1434" 
d="M180 1454h185l711 -1124l-24 -26v1150h202v-1283l-187 -170l-709 1107l24 26v-1133h-202v1453zM877 -193h114q28 0 43.5 20.5t15.5 58.5v377h204v-375q0 -131 -63.5 -203t-179.5 -72h-134v194z" />
    <glyph glyph-name="Ntilde" unicode="&#xd1;" horiz-adv-x="1434" 
d="M180 1454h185l711 -1124l-24 -26v1150h202v-1453h-187l-709 1107l24 26v-1133h-202v1453zM856 1563q-28 5 -52 13.5t-50 20.5l-3 1l-29.5 15.5t-28.5 15.5q-37 22 -61.5 32.5t-48.5 10.5q-40 0 -60 -22.5t-20 -67.5v-21h-158v25q0 130 51 194.5t153 64.5q57 0 99 -14
t95 -40l3 -2l17.5 -9.5t16.5 -9.5q35 -20 57 -29.5t44 -9.5q40 0 60 24t20 73v20h158v-24q0 -133 -50.5 -199.5t-152.5 -66.5q-32 0 -60 5z" />
    <glyph glyph-name="O" unicode="O" horiz-adv-x="1322" 
d="M393 51.5q-116 66.5 -179.5 188t-63.5 281.5v412q0 160 63.5 281.5t179.5 188t268 66.5t268 -66.5t179.5 -188t63.5 -281.5v-412q0 -160 -63.5 -281.5t-179.5 -188t-268 -66.5t-268 66.5zM819.5 226.5q68.5 40.5 106 115t37.5 172.5v426q0 98 -37.5 172.5t-106 115
t-158.5 40.5t-158.5 -40.5t-106 -115t-37.5 -172.5v-426q0 -98 37.5 -172.5t106 -115t158.5 -40.5t158.5 40.5z" />
    <glyph glyph-name="Oacute" unicode="&#xd3;" horiz-adv-x="1322" 
d="M393 51.5q-116 66.5 -179.5 188t-63.5 281.5v412q0 160 63.5 281.5t179.5 188t268 66.5t268 -66.5t179.5 -188t63.5 -281.5v-412q0 -160 -63.5 -281.5t-179.5 -188t-268 -66.5t-268 66.5zM819.5 226.5q68.5 40.5 106 115t37.5 172.5v426q0 98 -37.5 172.5t-106 115
t-158.5 40.5t-158.5 -40.5t-106 -115t-37.5 -172.5v-426q0 -98 37.5 -172.5t106 -115t158.5 -40.5t158.5 40.5zM567 1672l276 245l132 -137l-295 -226z" />
    <glyph glyph-name="Ocircumflex" unicode="&#xd4;" horiz-adv-x="1322" 
d="M393 51.5q-116 66.5 -179.5 188t-63.5 281.5v412q0 160 63.5 281.5t179.5 188t268 66.5t268 -66.5t179.5 -188t63.5 -281.5v-412q0 -160 -63.5 -281.5t-179.5 -188t-268 -66.5t-268 66.5zM819.5 226.5q68.5 40.5 106 115t37.5 172.5v426q0 98 -37.5 172.5t-106 115
t-158.5 40.5t-158.5 -40.5t-106 -115t-37.5 -172.5v-426q0 -98 37.5 -172.5t106 -115t158.5 -40.5t158.5 40.5zM972 1662l-119 -110l-195 150l-195 -150l-119 110l314 244z" />
    <glyph glyph-name="Odieresis" unicode="&#xd6;" horiz-adv-x="1322" 
d="M393 51.5q-116 66.5 -179.5 188t-63.5 281.5v412q0 160 63.5 281.5t179.5 188t268 66.5t268 -66.5t179.5 -188t63.5 -281.5v-412q0 -160 -63.5 -281.5t-179.5 -188t-268 -66.5t-268 66.5zM819.5 226.5q68.5 40.5 106 115t37.5 172.5v426q0 98 -37.5 172.5t-106 115
t-158.5 40.5t-158.5 -40.5t-106 -115t-37.5 -172.5v-426q0 -98 37.5 -172.5t106 -115t158.5 -40.5t158.5 40.5zM764 1777h204v-204h-204v204zM354 1777h204v-204h-204v204z" />
    <glyph glyph-name="uni1ECC" unicode="&#x1ecc;" horiz-adv-x="1322" 
d="M393 51.5q-116 66.5 -179.5 188t-63.5 281.5v412q0 160 63.5 281.5t179.5 188t268 66.5t268 -66.5t179.5 -188t63.5 -281.5v-412q0 -160 -63.5 -281.5t-179.5 -188t-268 -66.5t-268 66.5zM819.5 226.5q68.5 40.5 106 115t37.5 172.5v426q0 98 -37.5 172.5t-106 115
t-158.5 40.5t-158.5 -40.5t-106 -115t-37.5 -172.5v-426q0 -98 37.5 -172.5t106 -115t158.5 -40.5t158.5 40.5zM559 -180h204v-204h-204v204z" />
    <glyph glyph-name="Ograve" unicode="&#xd2;" horiz-adv-x="1322" 
d="M393 51.5q-116 66.5 -179.5 188t-63.5 281.5v412q0 160 63.5 281.5t179.5 188t268 66.5t268 -66.5t179.5 -188t63.5 -281.5v-412q0 -160 -63.5 -281.5t-179.5 -188t-268 -66.5t-268 66.5zM819.5 226.5q68.5 40.5 106 115t37.5 172.5v426q0 98 -37.5 172.5t-106 115
t-158.5 40.5t-158.5 -40.5t-106 -115t-37.5 -172.5v-426q0 -98 37.5 -172.5t106 -115t158.5 -40.5t158.5 40.5zM352 1770l122 137l276 -245l-113 -118z" />
    <glyph glyph-name="Ohorn" unicode="&#x1a0;" horiz-adv-x="1362" 
d="M830 1270v164h230q129 0 129 159v33h199v-53q0 -152 -73.5 -227.5t-221.5 -75.5h-263zM393 51.5q-116 66.5 -179.5 188t-63.5 281.5v412q0 160 63.5 281.5t179.5 188t268 66.5t268 -66.5t179.5 -188t63.5 -281.5v-412q0 -160 -63.5 -281.5t-179.5 -188t-268 -66.5
t-268 66.5zM819.5 226.5q68.5 40.5 106 115t37.5 172.5v426q0 98 -37.5 172.5t-106 115t-158.5 40.5t-158.5 -40.5t-106 -115t-37.5 -172.5v-426q0 -98 37.5 -172.5t106 -115t158.5 -40.5t158.5 40.5z" />
    <glyph glyph-name="Ohungarumlaut" unicode="&#x150;" horiz-adv-x="1322" 
d="M393 51.5q-116 66.5 -179.5 188t-63.5 281.5v412q0 160 63.5 281.5t179.5 188t268 66.5t268 -66.5t179.5 -188t63.5 -281.5v-412q0 -160 -63.5 -281.5t-179.5 -188t-268 -66.5t-268 66.5zM819.5 226.5q68.5 40.5 106 115t37.5 172.5v426q0 98 -37.5 172.5t-106 115
t-158.5 40.5t-158.5 -40.5t-106 -115t-37.5 -172.5v-426q0 -98 37.5 -172.5t106 -115t158.5 -40.5t158.5 40.5zM737 1662l226 255l142 -137l-245 -236zM337 1662l226 255l142 -137l-245 -236z" />
    <glyph glyph-name="Omacron" unicode="&#x14c;" horiz-adv-x="1322" 
d="M393 51.5q-116 66.5 -179.5 188t-63.5 281.5v412q0 160 63.5 281.5t179.5 188t268 66.5t268 -66.5t179.5 -188t63.5 -281.5v-412q0 -160 -63.5 -281.5t-179.5 -188t-268 -66.5t-268 66.5zM819.5 226.5q68.5 40.5 106 115t37.5 172.5v426q0 98 -37.5 172.5t-106 115
t-158.5 40.5t-158.5 -40.5t-106 -115t-37.5 -172.5v-426q0 -98 37.5 -172.5t106 -115t158.5 -40.5t158.5 40.5zM1026 1773v-200h-730v200h730z" />
    <glyph glyph-name="uni0186" unicode="&#x186;" horiz-adv-x="1267" 
d="M382 38.5q-105 53.5 -176 151.5t-96 227v0h209v0q19 -73 63.5 -126t104 -80t124.5 -27q89 0 156 42.5t104 120.5t37 180v399q0 103 -37 180.5t-104 120.5t-156 43q-64 0 -124 -29t-104.5 -82.5t-63.5 -121.5v0h-209v0q25 129 95.5 227t175.5 151.5t230 53.5
q151 0 265.5 -67.5t177.5 -190.5t63 -285v-399q0 -162 -63 -285t-177.5 -190t-265.5 -67q-124 0 -229 53.5z" />
    <glyph glyph-name="Oslash" unicode="&#xd8;" horiz-adv-x="1322" 
d="M997 1597h154l-808 -1728h-155zM393 51.5q-116 66.5 -179.5 188t-63.5 281.5v412q0 160 63.5 281.5t179.5 188t268 66.5t268 -66.5t179.5 -188t63.5 -281.5v-412q0 -160 -63.5 -281.5t-179.5 -188t-268 -66.5t-268 66.5zM819.5 226.5q68.5 40.5 106 115t37.5 172.5v426
q0 98 -37.5 172.5t-106 115t-158.5 40.5t-158.5 -40.5t-106 -115t-37.5 -172.5v-426q0 -98 37.5 -172.5t106 -115t158.5 -40.5t158.5 40.5z" />
    <glyph glyph-name="Otilde" unicode="&#xd5;" horiz-adv-x="1322" 
d="M393 51.5q-116 66.5 -179.5 188t-63.5 281.5v412q0 160 63.5 281.5t179.5 188t268 66.5t268 -66.5t179.5 -188t63.5 -281.5v-412q0 -160 -63.5 -281.5t-179.5 -188t-268 -66.5t-268 66.5zM819.5 226.5q68.5 40.5 106 115t37.5 172.5v426q0 98 -37.5 172.5t-106 115
t-158.5 40.5t-158.5 -40.5t-106 -115t-37.5 -172.5v-426q0 -98 37.5 -172.5t106 -115t158.5 -40.5t158.5 40.5zM785 1563q-28 5 -52 13.5t-50 20.5l-3 1l-29.5 15.5t-28.5 15.5q-37 22 -61.5 32.5t-48.5 10.5q-40 0 -60 -22.5t-20 -67.5v-21h-158v25q0 130 51 194.5
t153 64.5q57 0 99 -14t95 -40l3 -2l17.5 -9.5t16.5 -9.5q35 -20 57 -29.5t44 -9.5q40 0 60 24t20 73v20h158v-24q0 -133 -50.5 -199.5t-152.5 -66.5q-32 0 -60 5z" />
    <glyph glyph-name="OE" unicode="&#x152;" horiz-adv-x="2053" 
d="M407 51.5q-123 66.5 -190 188t-67 281.5v412q0 160 67 281.5t190 188t284 66.5q144 0 241 -66t145.5 -186t48.5 -284v-412q0 -164 -48.5 -284t-145.5 -186t-241 -66q-161 0 -284 66.5zM857.5 226.5q71.5 40.5 111 115t39.5 172.5v426q0 98 -39.5 172.5t-111 115
t-166.5 40.5q-101 0 -177 -40.5t-118 -115t-42 -172.5v-426q0 -98 42 -172.5t118 -115t177 -40.5q95 0 166.5 40.5zM1009 1454h204v-1454h-204v1454zM1108 194h835v-194h-835v194zM1108 819h725v-194h-725v194zM1108 1454h835v-194h-835v194z" />
    <glyph glyph-name="P" unicode="P" horiz-adv-x="1275" 
d="M285 758h465q66 0 116 31t77.5 88t27.5 131v0q0 75 -27.5 132t-77.5 88.5t-116 31.5h-465v194h458q130 0 229 -55.5t153.5 -156.5t54.5 -234v0q0 -133 -54.5 -233.5t-153.5 -155.5t-229 -55h-458v194zM180 1454h204v-1454h-204v1454z" />
    <glyph glyph-name="Thorn" unicode="&#xde;" horiz-adv-x="1275" 
d="M285 498h465q66 0 116 31t77.5 88t27.5 131v0q0 75 -27.5 132t-77.5 88.5t-116 31.5h-465v194h458q130 0 229 -55.5t153.5 -156.5t54.5 -234v0q0 -133 -54.5 -233.5t-153.5 -155.5t-229 -55h-458v194zM180 1454h204v-1454h-204v1454z" />
    <glyph glyph-name="Q" unicode="Q" horiz-adv-x="1346" 
d="M658 403l106 135l542 -426l-106 -136zM393 51.5q-116 66.5 -179.5 188t-63.5 281.5v412q0 160 63.5 281.5t179.5 188t268 66.5t268 -66.5t179.5 -188t63.5 -281.5v-412q0 -160 -63.5 -281.5t-179.5 -188t-268 -66.5t-268 66.5zM819.5 226.5q68.5 40.5 106 115t37.5 172.5
v426q0 98 -37.5 172.5t-106 115t-158.5 40.5t-158.5 -40.5t-106 -115t-37.5 -172.5v-426q0 -98 37.5 -172.5t106 -115t158.5 -40.5t158.5 40.5z" />
    <glyph glyph-name="R" unicode="R" horiz-adv-x="1335" 
d="M269 809h496q58 0 103 28t69.5 79.5t24.5 118.5v0q0 67 -24.5 118.5t-69 79.5t-103.5 28h-496v194h488q126 0 221.5 -52t148 -147.5t52.5 -220.5v0q0 -125 -53 -220.5t-148.5 -147.5t-220.5 -52h-488v194zM180 1455h204v-1455h-204v1455zM665 660l203 46l372 -706h-242z
" />
    <glyph glyph-name="Racute" unicode="&#x154;" horiz-adv-x="1335" 
d="M269 809h496q58 0 103 28t69.5 79.5t24.5 118.5v0q0 67 -24.5 118.5t-69 79.5t-103.5 28h-496v194h488q126 0 221.5 -52t148 -147.5t52.5 -220.5v0q0 -125 -53 -220.5t-148.5 -147.5t-220.5 -52h-488v194zM180 1455h204v-1455h-204v1455zM665 660l203 46l372 -706h-242z
M554 1672l276 245l132 -137l-295 -226z" />
    <glyph glyph-name="Rcaron" unicode="&#x158;" horiz-adv-x="1335" 
d="M269 809h496q58 0 103 28t69.5 79.5t24.5 118.5v0q0 67 -24.5 118.5t-69 79.5t-103.5 28h-496v194h488q126 0 221.5 -52t148 -147.5t52.5 -220.5v0q0 -125 -53 -220.5t-148.5 -147.5t-220.5 -52h-488v194zM180 1455h204v-1455h-204v1455zM665 660l203 46l372 -706h-242z
M339 1801l114 120l195 -150l195 150l114 -120l-309 -239z" />
    <glyph glyph-name="Rcommaaccent" unicode="&#x156;" horiz-adv-x="1335" 
d="M269 809h496q58 0 103 28t69.5 79.5t24.5 118.5v0q0 67 -24.5 118.5t-69 79.5t-103.5 28h-496v194h488q126 0 221.5 -52t148 -147.5t52.5 -220.5v0q0 -125 -53 -220.5t-148.5 -147.5t-220.5 -52h-488v194zM180 1455h204v-1455h-204v1455zM665 660l203 46l372 -706h-242z
M546 -148h204v-154l-204 -202v356z" />
    <glyph glyph-name="S" unicode="S" horiz-adv-x="1261" 
d="M418 5q-94 20 -175.5 60t-152.5 100v0l127 156v0q83 -72 183 -108t217 -36q158 0 245 58.5t87 165.5v1q0 76 -39.5 120.5t-102 66t-161.5 39.5q-3 1 -6.5 1t-6.5 1l-15 3q-146 25 -237.5 56.5t-156.5 115t-65 237.5v1q0 135 60.5 230.5t176.5 145.5t279 50
q78 0 153.5 -17t149 -50.5t144.5 -84.5v0l-116 -162v0q-83 61 -165.5 91.5t-165.5 30.5q-149 0 -231.5 -59.5t-82.5 -168.5v-1q0 -75 42.5 -118t106 -63.5t176.5 -42.5q4 -1 7.5 -1.5t7.5 -1.5q5 -1 11 -2t11 -2q132 -27 220.5 -64t148 -119.5t59.5 -225.5v-2
q0 -133 -63 -227.5t-182.5 -144t-288.5 -49.5q-105 0 -199 20z" />
    <glyph glyph-name="Sacute" unicode="&#x15a;" horiz-adv-x="1261" 
d="M418 5q-94 20 -175.5 60t-152.5 100v0l127 156v0q83 -72 183 -108t217 -36q158 0 245 58.5t87 165.5v1q0 76 -39.5 120.5t-102 66t-161.5 39.5q-3 1 -6.5 1t-6.5 1l-15 3q-146 25 -237.5 56.5t-156.5 115t-65 237.5v1q0 135 60.5 230.5t176.5 145.5t279 50
q78 0 153.5 -17t149 -50.5t144.5 -84.5v0l-116 -162v0q-83 61 -165.5 91.5t-165.5 30.5q-149 0 -231.5 -59.5t-82.5 -168.5v-1q0 -75 42.5 -118t106 -63.5t176.5 -42.5q4 -1 7.5 -1.5t7.5 -1.5q5 -1 11 -2t11 -2q132 -27 220.5 -64t148 -119.5t59.5 -225.5v-2
q0 -133 -63 -227.5t-182.5 -144t-288.5 -49.5q-105 0 -199 20zM547 1672l276 245l132 -137l-295 -226z" />
    <glyph glyph-name="Scaron" unicode="&#x160;" horiz-adv-x="1261" 
d="M418 5q-94 20 -175.5 60t-152.5 100v0l127 156v0q83 -72 183 -108t217 -36q158 0 245 58.5t87 165.5v1q0 76 -39.5 120.5t-102 66t-161.5 39.5q-3 1 -6.5 1t-6.5 1l-15 3q-146 25 -237.5 56.5t-156.5 115t-65 237.5v1q0 135 60.5 230.5t176.5 145.5t279 50
q78 0 153.5 -17t149 -50.5t144.5 -84.5v0l-116 -162v0q-83 61 -165.5 91.5t-165.5 30.5q-149 0 -231.5 -59.5t-82.5 -168.5v-1q0 -75 42.5 -118t106 -63.5t176.5 -42.5q4 -1 7.5 -1.5t7.5 -1.5q5 -1 11 -2t11 -2q132 -27 220.5 -64t148 -119.5t59.5 -225.5v-2
q0 -133 -63 -227.5t-182.5 -144t-288.5 -49.5q-105 0 -199 20zM332 1801l114 120l195 -150l195 150l114 -120l-309 -239z" />
    <glyph glyph-name="Scedilla" unicode="&#x15e;" horiz-adv-x="1261" 
d="M418 5q-94 20 -175.5 60t-152.5 100v0l127 156v0q83 -72 183 -108t217 -36q158 0 245 58.5t87 165.5v1q0 76 -39.5 120.5t-102 66t-161.5 39.5q-3 1 -6.5 1t-6.5 1l-15 3q-146 25 -237.5 56.5t-156.5 115t-65 237.5v1q0 135 60.5 230.5t176.5 145.5t279 50
q78 0 153.5 -17t149 -50.5t144.5 -84.5v0l-116 -162v0q-83 61 -165.5 91.5t-165.5 30.5q-149 0 -231.5 -59.5t-82.5 -168.5v-1q0 -75 42.5 -118t106 -63.5t176.5 -42.5q4 -1 7.5 -1.5t7.5 -1.5q5 -1 11 -2t11 -2q132 -27 220.5 -64t148 -119.5t59.5 -225.5v-2
q0 -133 -63 -227.5t-182.5 -144t-288.5 -49.5q-105 0 -199 20zM474 -404l42 140q48 -14 95 -14q55 0 82 12.5t27 38.5q0 25 -36 37t-110 12l87 116q118 0 176.5 -44.5t58.5 -134.5q0 -91 -64 -136t-193 -45q-100 0 -165 18zM724 61v-241l-166 2v239h166z" />
    <glyph glyph-name="Scommaaccent" unicode="&#x218;" horiz-adv-x="1261" 
d="M418 5q-94 20 -175.5 60t-152.5 100v0l127 156v0q83 -72 183 -108t217 -36q158 0 245 58.5t87 165.5v1q0 76 -39.5 120.5t-102 66t-161.5 39.5q-3 1 -6.5 1t-6.5 1l-15 3q-146 25 -237.5 56.5t-156.5 115t-65 237.5v1q0 135 60.5 230.5t176.5 145.5t279 50
q78 0 153.5 -17t149 -50.5t144.5 -84.5v0l-116 -162v0q-83 61 -165.5 91.5t-165.5 30.5q-149 0 -231.5 -59.5t-82.5 -168.5v-1q0 -75 42.5 -118t106 -63.5t176.5 -42.5q4 -1 7.5 -1.5t7.5 -1.5q5 -1 11 -2t11 -2q132 -27 220.5 -64t148 -119.5t59.5 -225.5v-2
q0 -133 -63 -227.5t-182.5 -144t-288.5 -49.5q-105 0 -199 20zM539 -148h204v-154l-204 -202v356z" />
    <glyph glyph-name="uni1E62" unicode="&#x1e62;" horiz-adv-x="1261" 
d="M418 5q-94 20 -175.5 60t-152.5 100v0l127 156v0q83 -72 183 -108t217 -36q158 0 245 58.5t87 165.5v1q0 76 -39.5 120.5t-102 66t-161.5 39.5q-3 1 -6.5 1t-6.5 1l-15 3q-146 25 -237.5 56.5t-156.5 115t-65 237.5v1q0 135 60.5 230.5t176.5 145.5t279 50
q78 0 153.5 -17t149 -50.5t144.5 -84.5v0l-116 -162v0q-83 61 -165.5 91.5t-165.5 30.5q-149 0 -231.5 -59.5t-82.5 -168.5v-1q0 -75 42.5 -118t106 -63.5t176.5 -42.5q4 -1 7.5 -1.5t7.5 -1.5q5 -1 11 -2t11 -2q132 -27 220.5 -64t148 -119.5t59.5 -225.5v-2
q0 -133 -63 -227.5t-182.5 -144t-288.5 -49.5q-105 0 -199 20zM539 -180h204v-204h-204v204z" />
    <glyph glyph-name="uni018F" unicode="&#x18f;" horiz-adv-x="1281" 
d="M390 43.5q-108 58.5 -164.5 169.5t-56.5 268v313h814v-194h-605v-116q0 -142 71 -220t201 -78t201 78t71 220v496q0 137 -76.5 212.5t-215.5 75.5q-101 0 -186 -44t-140 -124v0l-144 144v0q91 107 214 166t256 59q158 0 270.5 -58.5t171.5 -169.5t59 -268v-492
q0 -157 -56.5 -268t-164.5 -169.5t-260 -58.5t-260 58.5z" />
    <glyph glyph-name="T" unicode="T" horiz-adv-x="986" 
d="M391 1335h204v-1335h-204v1335zM-20 1454h1026v-194h-1026v194z" />
    <glyph glyph-name="Tcaron" unicode="&#x164;" horiz-adv-x="986" 
d="M391 1335h204v-1335h-204v1335zM-20 1454h1026v-194h-1026v194zM184 1801l114 120l195 -150l195 150l114 -120l-309 -239z" />
    <glyph glyph-name="Tcommaaccent" unicode="&#x162;" horiz-adv-x="986" 
d="M391 1335h204v-1335h-204v1335zM-20 1454h1026v-194h-1026v194zM326 -404l42 140q48 -14 95 -14q55 0 82 12.5t27 38.5q0 25 -36 37t-110 12l87 116q118 0 176.5 -44.5t58.5 -134.5q0 -91 -64 -136t-193 -45q-100 0 -165 18zM576 61v-241l-166 2v239h166z" />
    <glyph glyph-name="uni021A" unicode="&#x21a;" horiz-adv-x="986" 
d="M391 1335h204v-1335h-204v1335zM-20 1454h1026v-194h-1026v194zM391 -148h204v-154l-204 -202v356z" />
    <glyph glyph-name="U" unicode="U" horiz-adv-x="1342" 
d="M394.5 48.5q-114.5 63.5 -174.5 185t-60 292.5v928h204v-935q0 -159 80 -246t226 -87q147 0 227.5 87t80.5 246v935h204v-928q0 -171 -60 -292.5t-175 -185t-277 -63.5q-161 0 -275.5 63.5z" />
    <glyph glyph-name="Uacute" unicode="&#xda;" horiz-adv-x="1342" 
d="M394.5 48.5q-114.5 63.5 -174.5 185t-60 292.5v928h204v-935q0 -159 80 -246t226 -87q147 0 227.5 87t80.5 246v935h204v-928q0 -171 -60 -292.5t-175 -185t-277 -63.5q-161 0 -275.5 63.5zM577 1672l276 245l132 -137l-295 -226z" />
    <glyph glyph-name="Ubreve" unicode="&#x16c;" horiz-adv-x="1342" 
d="M394.5 48.5q-114.5 63.5 -174.5 185t-60 292.5v928h204v-935q0 -159 80 -246t226 -87q147 0 227.5 87t80.5 246v935h204v-928q0 -171 -60 -292.5t-175 -185t-277 -63.5q-161 0 -275.5 63.5zM1008 1863q0 -146 -87 -225.5t-246 -79.5h-8q-159 0 -246 79.5t-87 225.5
l165 -2q0 -75 44 -116.5t124 -41.5h8q80 0 124 41.5t44 116.5z" />
    <glyph glyph-name="Ucircumflex" unicode="&#xdb;" horiz-adv-x="1342" 
d="M394.5 48.5q-114.5 63.5 -174.5 185t-60 292.5v928h204v-935q0 -159 80 -246t226 -87q147 0 227.5 87t80.5 246v935h204v-928q0 -171 -60 -292.5t-175 -185t-277 -63.5q-161 0 -275.5 63.5zM982 1662l-119 -110l-195 150l-195 -150l-119 110l314 244z" />
    <glyph glyph-name="Udieresis" unicode="&#xdc;" horiz-adv-x="1342" 
d="M394.5 48.5q-114.5 63.5 -174.5 185t-60 292.5v928h204v-935q0 -159 80 -246t226 -87q147 0 227.5 87t80.5 246v935h204v-928q0 -171 -60 -292.5t-175 -185t-277 -63.5q-161 0 -275.5 63.5zM774 1777h204v-204h-204v204zM364 1777h204v-204h-204v204z" />
    <glyph glyph-name="uni1EE4" unicode="&#x1ee4;" horiz-adv-x="1342" 
d="M394.5 48.5q-114.5 63.5 -174.5 185t-60 292.5v928h204v-935q0 -159 80 -246t226 -87q147 0 227.5 87t80.5 246v935h204v-928q0 -171 -60 -292.5t-175 -185t-277 -63.5q-161 0 -275.5 63.5zM568 -180h204v-204h-204v204z" />
    <glyph glyph-name="Ugrave" unicode="&#xd9;" horiz-adv-x="1342" 
d="M394.5 48.5q-114.5 63.5 -174.5 185t-60 292.5v928h204v-935q0 -159 80 -246t226 -87q147 0 227.5 87t80.5 246v935h204v-928q0 -171 -60 -292.5t-175 -185t-277 -63.5q-161 0 -275.5 63.5zM362 1770l122 137l276 -245l-113 -118z" />
    <glyph glyph-name="Uhorn" unicode="&#x1af;" horiz-adv-x="1484" 
d="M394.5 48.5q-114.5 63.5 -174.5 185t-60 292.5v928h204v-935q0 -159 80 -246t226 -87q147 0 227.5 87t80.5 246v935h204v-928q0 -171 -60 -292.5t-175 -185t-277 -63.5q-161 0 -275.5 63.5zM986 1310v144h160q61 0 95 36.5t34 102.5v73h199v-93q0 -125 -77 -194t-218 -69
h-193z" />
    <glyph glyph-name="Uhungarumlaut" unicode="&#x170;" horiz-adv-x="1342" 
d="M394.5 48.5q-114.5 63.5 -174.5 185t-60 292.5v928h204v-935q0 -159 80 -246t226 -87q147 0 227.5 87t80.5 246v935h204v-928q0 -171 -60 -292.5t-175 -185t-277 -63.5q-161 0 -275.5 63.5zM747 1662l226 255l142 -137l-245 -236zM347 1662l226 255l142 -137l-245 -236z
" />
    <glyph glyph-name="Umacron" unicode="&#x16a;" horiz-adv-x="1342" 
d="M394.5 48.5q-114.5 63.5 -174.5 185t-60 292.5v928h204v-935q0 -159 80 -246t226 -87q147 0 227.5 87t80.5 246v935h204v-928q0 -171 -60 -292.5t-175 -185t-277 -63.5q-161 0 -275.5 63.5zM1036 1773v-200h-730v200h730z" />
    <glyph glyph-name="Uogonek" unicode="&#x172;" horiz-adv-x="1342" 
d="M587 -356q-75 64 -75 193q0 130 71.5 195t215.5 65v-97q-106 0 -106 -134q0 -120 120 -120h92v-166h-92q-151 0 -226 64zM394.5 48.5q-114.5 63.5 -174.5 185t-60 292.5v928h204v-935q0 -159 80 -246t226 -87q147 0 227.5 87t80.5 246v935h204v-928q0 -171 -60 -292.5
t-175 -185t-277 -63.5q-161 0 -275.5 63.5z" />
    <glyph glyph-name="Uring" unicode="&#x16e;" horiz-adv-x="1342" 
d="M394.5 48.5q-114.5 63.5 -174.5 185t-60 292.5v928h204v-935q0 -159 80 -246t226 -87q147 0 227.5 87t80.5 246v935h204v-928q0 -171 -60 -292.5t-175 -185t-277 -63.5q-161 0 -275.5 63.5zM489.5 1602q-63.5 60 -63.5 171q0 116 63.5 178.5t181.5 62.5q117 0 181 -63.5
t64 -177.5q0 -111 -64 -171t-181 -60q-118 0 -181.5 60zM739.5 1707.5q24.5 25.5 24.5 69.5q0 46 -24 72t-69 26t-69 -25.5t-24 -72.5q0 -45 24 -70t69 -25q44 0 68.5 25.5z" />
    <glyph glyph-name="V" unicode="V" horiz-adv-x="1202" 
d="M30 1454h222l349 -1140l349 1140h222l-474 -1454h-194z" />
    <glyph glyph-name="uni0194" unicode="&#x194;" horiz-adv-x="1202" 
d="M427 -378q-54 44 -54 142q0 60 39 152t125 235h128q86 -143 125 -235t39 -152q0 -98 -54 -142t-174 -44t-174 44zM638.5 -244.5q11.5 13.5 11.5 43.5q0 22 -11.5 58.5t-37.5 95.5q-49 -123 -49 -154q0 -30 11.5 -43.5t37.5 -13.5t37.5 13.5zM30 1454h222l349 -1140
l349 1140h222l-474 -1454h-194z" />
    <glyph glyph-name="uni01B2" unicode="&#x1b2;" horiz-adv-x="1342" 
d="M394.5 48.5q-114.5 63.5 -174.5 185t-60 292.5v928h204v-935q0 -159 80 -246t226 -87q147 0 227.5 87t80.5 246v565h204v-558q0 -171 -60 -292.5t-175 -185t-277 -63.5q-161 0 -275.5 63.5zM978 1181q0 38 -15.5 58.5t-43.5 20.5h-114v194h134q116 0 179.5 -72t63.5 -203
v-325h-204v327z" />
    <glyph glyph-name="W" unicode="W" horiz-adv-x="1734" 
d="M797 1454h140l298 -1140l257 1140h212l-355 -1454h-208l-268 1016l-280 -1016h-208l-355 1454h212l257 -1140z" />
    <glyph glyph-name="X" unicode="X" horiz-adv-x="1162" 
d="M535 639l-31 50l-472 765h229l351 -592l33 -54l497 -808h-229zM526 831l365 623h229l-481 -787l-390 -667h-229z" />
    <glyph glyph-name="Y" unicode="Y" horiz-adv-x="1030" 
d="M617 591v-591h-204v591l-443 863h227l318 -656l318 656h227z" />
    <glyph glyph-name="Yacute" unicode="&#xdd;" horiz-adv-x="1030" 
d="M617 591v-591h-204v591l-443 863h227l318 -656l318 656h227zM421 1672l276 245l132 -137l-295 -226z" />
    <glyph glyph-name="Ydieresis" unicode="&#x178;" horiz-adv-x="1030" 
d="M617 591v-591h-204v591l-443 863h227l318 -656l318 656h227zM618 1777h204v-204h-204v204zM208 1777h204v-204h-204v204z" />
    <glyph glyph-name="uni01B3" unicode="&#x1b3;" horiz-adv-x="1058" 
d="M413 591l-443 863h227l367 -760l53 -3v-691h-204v591zM481 729l223 457l28 60q37 80 63.5 121.5t67.5 67.5t104 26h136v-194h-96q-26 0 -45.5 -20t-39.5 -59l-359 -703z" />
    <glyph glyph-name="Z" unicode="Z" horiz-adv-x="1114" 
d="M1004 1278l-633 -1084h653v-194h-904v176l638 1084h-620v194h866v-176z" />
    <glyph glyph-name="Zacute" unicode="&#x179;" horiz-adv-x="1114" 
d="M1004 1278l-633 -1084h653v-194h-904v176l638 1084h-620v194h866v-176zM483 1672l276 245l132 -137l-295 -226z" />
    <glyph glyph-name="Zcaron" unicode="&#x17d;" horiz-adv-x="1114" 
d="M1004 1278l-633 -1084h653v-194h-904v176l638 1084h-620v194h866v-176zM268 1801l114 120l195 -150l195 150l114 -120l-309 -239z" />
    <glyph glyph-name="Zdotaccent" unicode="&#x17b;" horiz-adv-x="1114" 
d="M1004 1278l-633 -1084h653v-194h-904v176l638 1084h-620v194h866v-176zM475 1777h204v-204h-204v204z" />
    <glyph glyph-name="glyph129" horiz-adv-x="1322" 
d="M393 -131h-205l158 359l163 -95zM947 1597h204l-158 -360l-156 109zM393 51.5q-116 66.5 -179.5 188t-63.5 281.5v412q0 160 63.5 281.5t179.5 188t268 66.5t268 -66.5t179.5 -188t63.5 -281.5v-412q0 -160 -63.5 -281.5t-179.5 -188t-268 -66.5t-268 66.5zM819.5 226.5
q68.5 40.5 106 115t37.5 172.5v426q0 98 -37.5 172.5t-106 115t-158.5 40.5t-158.5 -40.5t-106 -115t-37.5 -172.5v-426q0 -98 37.5 -172.5t106 -115t158.5 -40.5t158.5 40.5z" />
    <glyph glyph-name="a" unicode="a" horiz-adv-x="1090" 
d="M746 658q0 102 -54.5 158.5t-154.5 56.5q-62 0 -121.5 -19t-105.5 -53l-149 102q59 71 155.5 110.5t214.5 39.5q129 0 221 -45.5t140 -132t48 -208.5v-667h-194v658zM205 64.5q-95 79.5 -95 241.5q0 154 87 231t263 77h295l14 -164h-308q-80 0 -119.5 -35.5t-39.5 -108.5
q0 -79 52.5 -117t159.5 -38q117 0 174.5 25t57.5 78l21 -146q-27 -42 -66.5 -69t-91.5 -40.5t-117 -13.5q-192 0 -287 79.5z" />
    <glyph glyph-name="aacute" unicode="&#xe1;" horiz-adv-x="1090" 
d="M746 658q0 102 -54.5 158.5t-154.5 56.5q-62 0 -121.5 -19t-105.5 -53l-149 102q59 71 155.5 110.5t214.5 39.5q129 0 221 -45.5t140 -132t48 -208.5v-667h-194v658zM205 64.5q-95 79.5 -95 241.5q0 154 87 231t263 77h295l14 -164h-308q-80 0 -119.5 -35.5t-39.5 -108.5
q0 -79 52.5 -117t159.5 -38q117 0 174.5 25t57.5 78l21 -146q-27 -42 -66.5 -69t-91.5 -40.5t-117 -13.5q-192 0 -287 79.5zM429 1341l286 355l147 -122l-305 -336z" />
    <glyph glyph-name="abreve" unicode="&#x103;" horiz-adv-x="1090" 
d="M746 658q0 102 -54.5 158.5t-154.5 56.5q-62 0 -121.5 -19t-105.5 -53l-149 102q59 71 155.5 110.5t214.5 39.5q129 0 221 -45.5t140 -132t48 -208.5v-667h-194v658zM205 64.5q-95 79.5 -95 241.5q0 154 87 231t263 77h295l14 -164h-308q-80 0 -119.5 -35.5t-39.5 -108.5
q0 -79 52.5 -117t159.5 -38q117 0 174.5 25t57.5 78l21 -146q-27 -42 -66.5 -69t-91.5 -40.5t-117 -13.5q-192 0 -287 79.5zM307.5 1324.5q-74.5 89.5 -74.5 268.5v0h164v0q0 -100 33.5 -149.5t100.5 -49.5h18q67 0 100.5 49.5t33.5 149.5v0h164v0q0 -179 -74.5 -268.5
t-223.5 -89.5h-18q-149 0 -223.5 89.5z" />
    <glyph glyph-name="acircumflex" unicode="&#xe2;" horiz-adv-x="1090" 
d="M746 658q0 102 -54.5 158.5t-154.5 56.5q-62 0 -121.5 -19t-105.5 -53l-149 102q59 71 155.5 110.5t214.5 39.5q129 0 221 -45.5t140 -132t48 -208.5v-667h-194v658zM205 64.5q-95 79.5 -95 241.5q0 154 87 231t263 77h295l14 -164h-308q-80 0 -119.5 -35.5t-39.5 -108.5
q0 -79 52.5 -117t159.5 -38q117 0 174.5 25t57.5 78l21 -146q-27 -42 -66.5 -69t-91.5 -40.5t-117 -13.5q-192 0 -287 79.5zM854 1343l-114 -105l-200 190l-200 -190l-114 105l314 304z" />
    <glyph glyph-name="adieresis" unicode="&#xe4;" horiz-adv-x="1090" 
d="M746 658q0 102 -54.5 158.5t-154.5 56.5q-62 0 -121.5 -19t-105.5 -53l-149 102q59 71 155.5 110.5t214.5 39.5q129 0 221 -45.5t140 -132t48 -208.5v-667h-194v658zM205 64.5q-95 79.5 -95 241.5q0 154 87 231t263 77h295l14 -164h-308q-80 0 -119.5 -35.5t-39.5 -108.5
q0 -79 52.5 -117t159.5 -38q117 0 174.5 25t57.5 78l21 -146q-27 -42 -66.5 -69t-91.5 -40.5t-117 -13.5q-192 0 -287 79.5zM648 1454h204v-204h-204v204zM228 1454h204v-204h-204v204z" />
    <glyph glyph-name="uni1EA1" unicode="&#x1ea1;" horiz-adv-x="1090" 
d="M746 658q0 102 -54.5 158.5t-154.5 56.5q-62 0 -121.5 -19t-105.5 -53l-149 102q59 71 155.5 110.5t214.5 39.5q129 0 221 -45.5t140 -132t48 -208.5v-667h-194v658zM205 64.5q-95 79.5 -95 241.5q0 154 87 231t263 77h295l14 -164h-308q-80 0 -119.5 -35.5t-39.5 -108.5
q0 -79 52.5 -117t159.5 -38q117 0 174.5 25t57.5 78l21 -146q-27 -42 -66.5 -69t-91.5 -40.5t-117 -13.5q-192 0 -287 79.5zM438 -180h204v-204h-204v204z" />
    <glyph glyph-name="agrave" unicode="&#xe0;" horiz-adv-x="1090" 
d="M746 658q0 102 -54.5 158.5t-154.5 56.5q-62 0 -121.5 -19t-105.5 -53l-149 102q59 71 155.5 110.5t214.5 39.5q129 0 221 -45.5t140 -132t48 -208.5v-667h-194v658zM205 64.5q-95 79.5 -95 241.5q0 154 87 231t263 77h295l14 -164h-308q-80 0 -119.5 -35.5t-39.5 -108.5
q0 -79 52.5 -117t159.5 -38q117 0 174.5 25t57.5 78l21 -146q-27 -42 -66.5 -69t-91.5 -40.5t-117 -13.5q-192 0 -287 79.5zM211 1574l147 122l286 -355l-128 -103z" />
    <glyph glyph-name="amacron" unicode="&#x101;" horiz-adv-x="1090" 
d="M746 658q0 102 -54.5 158.5t-154.5 56.5q-62 0 -121.5 -19t-105.5 -53l-149 102q59 71 155.5 110.5t214.5 39.5q129 0 221 -45.5t140 -132t48 -208.5v-667h-194v658zM205 64.5q-95 79.5 -95 241.5q0 154 87 231t263 77h295l14 -164h-308q-80 0 -119.5 -35.5t-39.5 -108.5
q0 -79 52.5 -117t159.5 -38q117 0 174.5 25t57.5 78l21 -146q-27 -42 -66.5 -69t-91.5 -40.5t-117 -13.5q-192 0 -287 79.5zM905 1453v-203h-730v203h730z" />
    <glyph glyph-name="aogonek" unicode="&#x105;" horiz-adv-x="1090" 
d="M746 658q0 102 -54.5 158.5t-154.5 56.5q-62 0 -121.5 -19t-105.5 -53l-149 102q59 71 155.5 110.5t214.5 39.5q129 0 221 -45.5t140 -132t48 -208.5v-667h-194v658zM205 64.5q-95 79.5 -95 241.5q0 154 87 231t263 77h295l14 -164h-308q-80 0 -119.5 -35.5t-39.5 -108.5
q0 -79 52.5 -117t159.5 -38q117 0 174.5 25t57.5 78l21 -146q-27 -42 -66.5 -69t-91.5 -40.5t-117 -13.5q-192 0 -287 79.5zM695 -373.5q-62 46.5 -62 150.5q0 84 67 152.5t190 117.5l50 -47q-71 -44 -103.5 -88t-32.5 -96q0 -37 21.5 -53.5t68.5 -16.5h46v-166h-46
q-137 0 -199 46.5z" />
    <glyph glyph-name="aring" unicode="&#xe5;" horiz-adv-x="1090" 
d="M746 658q0 102 -54.5 158.5t-154.5 56.5q-62 0 -121.5 -19t-105.5 -53l-149 102q59 71 155.5 110.5t214.5 39.5q129 0 221 -45.5t140 -132t48 -208.5v-667h-194v658zM205 64.5q-95 79.5 -95 241.5q0 154 87 231t263 77h295l14 -164h-308q-80 0 -119.5 -35.5t-39.5 -108.5
q0 -79 52.5 -117t159.5 -38q117 0 174.5 25t57.5 78l21 -146q-27 -42 -66.5 -69t-91.5 -40.5t-117 -13.5q-192 0 -287 79.5zM358.5 1301q-63.5 60 -63.5 171q0 116 63.5 178.5t181.5 62.5q117 0 181 -63.5t64 -177.5q0 -111 -64 -171t-181 -60q-118 0 -181.5 60zM616 1399
q27 28 27 77q0 51 -27 79.5t-76 28.5t-76 -28.5t-27 -79.5q0 -49 27 -77t76 -28t76 28z" />
    <glyph glyph-name="atilde" unicode="&#xe3;" horiz-adv-x="1090" 
d="M746 658q0 102 -54.5 158.5t-154.5 56.5q-62 0 -121.5 -19t-105.5 -53l-149 102q59 71 155.5 110.5t214.5 39.5q129 0 221 -45.5t140 -132t48 -208.5v-667h-194v658zM205 64.5q-95 79.5 -95 241.5q0 154 87 231t263 77h295l14 -164h-308q-80 0 -119.5 -35.5t-39.5 -108.5
q0 -79 52.5 -117t159.5 -38q117 0 174.5 25t57.5 78l21 -146q-27 -42 -66.5 -69t-91.5 -40.5t-117 -13.5q-192 0 -287 79.5zM620.5 1259.5q-31.5 12.5 -64.5 34.5l-8 6q-5 4 -11 8t-11 8q-39 28 -62 41t-43 13q-35 0 -52.5 -17t-17.5 -52v-51h-158v45q0 124 51 186t153 62
q38 0 72.5 -15t71.5 -42l8 -6l11 -8q35 -26 57 -39t42 -13q35 0 52.5 19t17.5 58v40h158v-34q0 -128 -50.5 -192t-152.5 -64q-32 0 -63.5 12.5z" />
    <glyph glyph-name="ae" unicode="&#xe6;" horiz-adv-x="1708" 
d="M756 658q0 102 -57.5 158.5t-161.5 56.5q-61 0 -119.5 -19t-104.5 -53l-152 102q59 71 155.5 110.5t214.5 39.5q157 0 243 -88t86 -248v-232h-104v173zM197.5 64.5q-87.5 79.5 -87.5 241.5q0 152 87 227.5t263 75.5h365l14 -159h-378q-80 0 -119.5 -35.5t-39.5 -108.5
q0 -74 45 -109.5t137 -35.5q90 0 150 42.5t88.5 110.5t28.5 145h105v-248q-59 -115 -157 -170.5t-237 -55.5q-177 0 -264.5 79.5zM992 36.5q-84 51.5 -128 150t-44 238.5v187q0 139 42 238t122.5 151t192.5 52q130 0 222 -65.5t140.5 -189.5t48.5 -298v-50h-710v159h516v0
q-9 125 -65.5 194.5t-151.5 69.5q-120 0 -186.5 -78.5t-66.5 -221.5v-132q0 -135 71 -207.5t200 -72.5q65 0 129 25.5t115 72.5v0l122 -119v0q-77 -74 -173 -114.5t-193 -40.5q-119 0 -203 51.5z" />
    <glyph glyph-name="b" unicode="b" horiz-adv-x="1114" 
d="M456 31.5q-72 46.5 -106 131.5l14 217q0 -67 24 -114t69.5 -72t110.5 -25q101 0 156.5 61.5t55.5 173.5v225q0 114 -55.5 177t-156.5 63q-65 0 -110.5 -24t-69.5 -70.5t-24 -111.5l-21 200q47 91 123 140.5t169 49.5q110 0 188.5 -49.5t119.5 -144.5t41 -229v-226
q0 -132 -42 -226t-123 -143.5t-194 -49.5q-97 0 -169 46.5zM160 1454h204v-1454h-204v1454z" />
    <glyph glyph-name="uni0253" unicode="&#x253;" horiz-adv-x="1114" 
d="M160 1189q0 131 63.5 203t179.5 72h134v-194h-114q-28 0 -43.5 -20.5t-15.5 -58.5v-1191h-204v1189zM456 31.5q-72 46.5 -106 131.5l14 217q0 -67 24 -114t69.5 -72t110.5 -25q101 0 156.5 61.5t55.5 173.5v225q0 114 -55.5 177t-156.5 63q-65 0 -110.5 -24t-69.5 -70.5
t-24 -111.5l-21 200q47 91 123 140.5t169 49.5q110 0 188.5 -49.5t119.5 -144.5t41 -229v-226q0 -132 -42 -226t-123 -143.5t-194 -49.5q-97 0 -169 46.5z" />
    <glyph glyph-name="c" unicode="c" horiz-adv-x="1020" 
d="M336.5 38q-100.5 53 -153.5 154t-53 244v171q0 141 53 241t153.5 152.5t242.5 52.5q81 0 152.5 -19.5t128.5 -56.5t95 -90v0l-147 -132v0q-44 50 -103 77t-123 27q-118 0 -183 -66t-65 -186v-171q0 -123 64.5 -190t183.5 -67q65 0 124 29t102 82v0l147 -142v0
q-39 -52 -96 -88.5t-128.5 -55.5t-151.5 -19q-142 0 -242.5 53z" />
    <glyph glyph-name="cacute" unicode="&#x107;" horiz-adv-x="1020" 
d="M336.5 38q-100.5 53 -153.5 154t-53 244v171q0 141 53 241t153.5 152.5t242.5 52.5q81 0 152.5 -19.5t128.5 -56.5t95 -90v0l-147 -132v0q-44 50 -103 77t-123 27q-118 0 -183 -66t-65 -186v-171q0 -123 64.5 -190t183.5 -67q65 0 124 29t102 82v0l147 -142v0
q-39 -52 -96 -88.5t-128.5 -55.5t-151.5 -19q-142 0 -242.5 53zM438 1341l286 355l147 -122l-305 -336z" />
    <glyph glyph-name="ccaron" unicode="&#x10d;" horiz-adv-x="1020" 
d="M336.5 38q-100.5 53 -153.5 154t-53 244v171q0 141 53 241t153.5 152.5t242.5 52.5q81 0 152.5 -19.5t128.5 -56.5t95 -90v0l-147 -132v0q-44 50 -103 77t-123 27q-118 0 -183 -66t-65 -186v-171q0 -123 64.5 -190t183.5 -67q65 0 124 29t102 82v0l147 -142v0
q-39 -52 -96 -88.5t-128.5 -55.5t-151.5 -19q-142 0 -242.5 53zM235 1542l114 105l200 -190l200 190l114 -105l-314 -304z" />
    <glyph glyph-name="ccedilla" unicode="&#xe7;" horiz-adv-x="1020" 
d="M336.5 38q-100.5 53 -153.5 154t-53 244v171q0 141 53 241t153.5 152.5t242.5 52.5q81 0 152.5 -19.5t128.5 -56.5t95 -90v0l-147 -132v0q-44 50 -103 77t-123 27q-118 0 -183 -66t-65 -186v-171q0 -123 64.5 -190t183.5 -67q65 0 124 29t102 82v0l147 -142v0
q-39 -52 -96 -88.5t-128.5 -55.5t-151.5 -19q-142 0 -242.5 53zM362 -404l42 140q48 -14 95 -14q55 0 82 12.5t27 38.5q0 25 -36 37t-110 12l87 116q118 0 176.5 -44.5t58.5 -134.5q0 -91 -64 -136t-193 -45q-100 0 -165 18zM446 91h166v-269h-166v269z" />
    <glyph glyph-name="cdotaccent" unicode="&#x10b;" horiz-adv-x="1020" 
d="M336.5 38q-100.5 53 -153.5 154t-53 244v171q0 141 53 241t153.5 152.5t242.5 52.5q81 0 152.5 -19.5t128.5 -56.5t95 -90v0l-147 -132v0q-44 50 -103 77t-123 27q-118 0 -183 -66t-65 -186v-171q0 -123 64.5 -190t183.5 -67q65 0 124 29t102 82v0l147 -142v0
q-39 -52 -96 -88.5t-128.5 -55.5t-151.5 -19q-142 0 -242.5 53zM447 1455h204v-204h-204v204z" />
    <glyph glyph-name="d" unicode="d" horiz-adv-x="1104" 
d="M750 1454h204v-1454h-204v1454zM294.5 31.5q-80.5 49.5 -122.5 144.5t-42 228v229q0 134 41 229t119.5 144.5t188.5 49.5q92 0 168.5 -48t123.5 -135l-21 -212q0 66 -24 113t-69.5 71.5t-110.5 24.5q-101 0 -156.5 -63t-55.5 -177v-226q0 -113 55.5 -174.5t156.5 -61.5
q65 0 110.5 25.5t69.5 73.5t24 115l14 -219q-31 -77 -101.5 -129t-173.5 -52q-114 0 -194.5 49.5z" />
    <glyph glyph-name="eth" unicode="&#xf0;" horiz-adv-x="1102" 
d="M785 688q2 125 -55 264t-174 293l-159 209h228l117 -164q105 -148 157.5 -317.5t52.5 -362.5zM952 610v-180q0 -139 -48.5 -239t-141.5 -153t-223 -53q-129 0 -221 52.5t-140 152t-48 240.5v183q0 137 41 236t119 151.5t187 52.5q111 0 187.5 -66.5t145.5 -205.5z
M758 610q0 259 -219 259q-107 0 -161 -64.5t-54 -191.5v-183q0 -261 215 -261q111 0 165 65.5t54 195.5v180zM904 1450l29 -154l-659 -122l-29 154z" />
    <glyph glyph-name="dcaron" unicode="&#x10f;" horiz-adv-x="1314" 
d="M750 1454h204v-1454h-204v1454zM294.5 31.5q-80.5 49.5 -122.5 144.5t-42 228v229q0 134 41 229t119.5 144.5t188.5 49.5q92 0 168.5 -48t123.5 -135l-21 -212q0 66 -24 113t-69.5 71.5t-110.5 24.5q-101 0 -156.5 -63t-55.5 -177v-226q0 -113 55.5 -174.5t156.5 -61.5
q65 0 110.5 25.5t69.5 73.5t24 115l14 -219q-31 -77 -101.5 -129t-173.5 -52q-114 0 -194.5 49.5zM1112 1469h174v-204l-174 -162v366z" />
    <glyph glyph-name="dcroat" unicode="&#x111;" horiz-adv-x="1104" 
d="M404 1346h670v-194h-670v194zM750 1454h204v-1454h-204v1454zM294.5 31.5q-80.5 49.5 -122.5 144.5t-42 228v229q0 134 41 229t119.5 144.5t188.5 49.5q92 0 168.5 -48t123.5 -135l-21 -212q0 66 -24 113t-69.5 71.5t-110.5 24.5q-101 0 -156.5 -63t-55.5 -177v-226
q0 -113 55.5 -174.5t156.5 -61.5q65 0 110.5 25.5t69.5 73.5t24 115l14 -219q-31 -77 -101.5 -129t-173.5 -52q-114 0 -194.5 49.5z" />
    <glyph glyph-name="uni0257" unicode="&#x257;" horiz-adv-x="1117" 
d="M750 1189q0 131 63.5 203t179.5 72h134v-194h-114q-28 0 -43.5 -20.5t-15.5 -58.5v-1191h-204v1189zM294.5 31.5q-80.5 49.5 -122.5 144.5t-42 228v229q0 134 41 229t119.5 144.5t188.5 49.5q92 0 168.5 -48t123.5 -135l-21 -212q0 66 -24 113t-69.5 71.5t-110.5 24.5
q-101 0 -156.5 -63t-55.5 -177v-226q0 -113 55.5 -174.5t156.5 -61.5q65 0 110.5 25.5t69.5 73.5t24 115l14 -219q-31 -77 -101.5 -129t-173.5 -52q-114 0 -194.5 49.5z" />
    <glyph glyph-name="uni0256" unicode="&#x256;" horiz-adv-x="1117" 
d="M813.5 -350q-63.5 72 -63.5 203v385h204v-387q0 -38 15.5 -58.5t43.5 -20.5h114v-194h-134q-116 0 -179.5 72zM750 1454h204v-1454h-204v1454zM294.5 31.5q-80.5 49.5 -122.5 144.5t-42 228v229q0 134 41 229t119.5 144.5t188.5 49.5q92 0 168.5 -48t123.5 -135l-21 -212
q0 66 -24 113t-69.5 71.5t-110.5 24.5q-101 0 -156.5 -63t-55.5 -177v-226q0 -113 55.5 -174.5t156.5 -61.5q65 0 110.5 25.5t69.5 73.5t24 115l14 -219q-31 -77 -101.5 -129t-173.5 -52q-114 0 -194.5 49.5z" />
    <glyph glyph-name="e" unicode="e" horiz-adv-x="1098" 
d="M339 39q-102 54 -155.5 158.5t-53.5 252.5v117q0 154 51.5 263t149.5 166t236 57q130 0 222 -65t140.5 -188t48.5 -295v-68h-700v164h506v0q-9 127 -65.5 197.5t-151.5 70.5q-116 0 -179.5 -76t-63.5 -215v-132q0 -129 68 -198t193 -69q62 0 123 25t109 70v0l134 -134v0
q-77 -74 -173 -114.5t-193 -40.5q-144 0 -246 54z" />
    <glyph glyph-name="eacute" unicode="&#xe9;" horiz-adv-x="1098" 
d="M339 39q-102 54 -155.5 158.5t-53.5 252.5v117q0 154 51.5 263t149.5 166t236 57q130 0 222 -65t140.5 -188t48.5 -295v-68h-700v164h506v0q-9 127 -65.5 197.5t-151.5 70.5q-116 0 -179.5 -76t-63.5 -215v-132q0 -129 68 -198t193 -69q62 0 123 25t109 70v0l134 -134v0
q-77 -74 -173 -114.5t-193 -40.5q-144 0 -246 54zM444 1341l286 355l147 -122l-305 -336z" />
    <glyph glyph-name="ecaron" unicode="&#x11b;" horiz-adv-x="1098" 
d="M339 39q-102 54 -155.5 158.5t-53.5 252.5v117q0 154 51.5 263t149.5 166t236 57q130 0 222 -65t140.5 -188t48.5 -295v-68h-700v164h506v0q-9 127 -65.5 197.5t-151.5 70.5q-116 0 -179.5 -76t-63.5 -215v-132q0 -129 68 -198t193 -69q62 0 123 25t109 70v0l134 -134v0
q-77 -74 -173 -114.5t-193 -40.5q-144 0 -246 54zM241 1542l114 105l200 -190l200 190l114 -105l-314 -304z" />
    <glyph glyph-name="ecircumflex" unicode="&#xea;" horiz-adv-x="1098" 
d="M339 39q-102 54 -155.5 158.5t-53.5 252.5v117q0 154 51.5 263t149.5 166t236 57q130 0 222 -65t140.5 -188t48.5 -295v-68h-700v164h506v0q-9 127 -65.5 197.5t-151.5 70.5q-116 0 -179.5 -76t-63.5 -215v-132q0 -129 68 -198t193 -69q62 0 123 25t109 70v0l134 -134v0
q-77 -74 -173 -114.5t-193 -40.5q-144 0 -246 54zM869 1343l-114 -105l-200 190l-200 -190l-114 105l314 304z" />
    <glyph glyph-name="edieresis" unicode="&#xeb;" horiz-adv-x="1098" 
d="M339 39q-102 54 -155.5 158.5t-53.5 252.5v117q0 154 51.5 263t149.5 166t236 57q130 0 222 -65t140.5 -188t48.5 -295v-68h-700v164h506v0q-9 127 -65.5 197.5t-151.5 70.5q-116 0 -179.5 -76t-63.5 -215v-132q0 -129 68 -198t193 -69q62 0 123 25t109 70v0l134 -134v0
q-77 -74 -173 -114.5t-193 -40.5q-144 0 -246 54zM663 1454h204v-204h-204v204zM243 1454h204v-204h-204v204z" />
    <glyph glyph-name="edotaccent" unicode="&#x117;" horiz-adv-x="1098" 
d="M339 39q-102 54 -155.5 158.5t-53.5 252.5v117q0 154 51.5 263t149.5 166t236 57q130 0 222 -65t140.5 -188t48.5 -295v-68h-700v164h506v0q-9 127 -65.5 197.5t-151.5 70.5q-116 0 -179.5 -76t-63.5 -215v-132q0 -129 68 -198t193 -69q62 0 123 25t109 70v0l134 -134v0
q-77 -74 -173 -114.5t-193 -40.5q-144 0 -246 54zM453 1455h204v-204h-204v204z" />
    <glyph glyph-name="uni1EB9" unicode="&#x1eb9;" horiz-adv-x="1098" 
d="M339 39q-102 54 -155.5 158.5t-53.5 252.5v117q0 154 51.5 263t149.5 166t236 57q130 0 222 -65t140.5 -188t48.5 -295v-68h-700v164h506v0q-9 127 -65.5 197.5t-151.5 70.5q-116 0 -179.5 -76t-63.5 -215v-132q0 -129 68 -198t193 -69q62 0 123 25t109 70v0l134 -134v0
q-77 -74 -173 -114.5t-193 -40.5q-144 0 -246 54zM453 -180h204v-204h-204v204z" />
    <glyph glyph-name="egrave" unicode="&#xe8;" horiz-adv-x="1098" 
d="M339 39q-102 54 -155.5 158.5t-53.5 252.5v117q0 154 51.5 263t149.5 166t236 57q130 0 222 -65t140.5 -188t48.5 -295v-68h-700v164h506v0q-9 127 -65.5 197.5t-151.5 70.5q-116 0 -179.5 -76t-63.5 -215v-132q0 -129 68 -198t193 -69q62 0 123 25t109 70v0l134 -134v0
q-77 -74 -173 -114.5t-193 -40.5q-144 0 -246 54zM226 1574l147 122l286 -355l-128 -103z" />
    <glyph glyph-name="emacron" unicode="&#x113;" horiz-adv-x="1098" 
d="M339 39q-102 54 -155.5 158.5t-53.5 252.5v117q0 154 51.5 263t149.5 166t236 57q130 0 222 -65t140.5 -188t48.5 -295v-68h-700v164h506v0q-9 127 -65.5 197.5t-151.5 70.5q-116 0 -179.5 -76t-63.5 -215v-132q0 -129 68 -198t193 -69q62 0 123 25t109 70v0l134 -134v0
q-77 -74 -173 -114.5t-193 -40.5q-144 0 -246 54zM920 1453v-203h-730v203h730z" />
    <glyph glyph-name="eogonek" unicode="&#x119;" horiz-adv-x="1098" 
d="M685 -351q-75 59 -75 178q0 99 72 188.5t218 171.5l50 -47l-15 -13q-77 -68 -115.5 -132.5t-38.5 -128.5q0 -55 32.5 -82.5t97.5 -27.5h36v-166h-36q-151 0 -226 59zM339 39q-102 54 -155.5 158.5t-53.5 252.5v117q0 154 51.5 263t149.5 166t236 57q130 0 222 -65
t140.5 -188t48.5 -295v-68h-700v164h506v0q-9 127 -65.5 197.5t-151.5 70.5q-116 0 -179.5 -76t-63.5 -215v-132q0 -129 68 -198t193 -69q62 0 123 25t109 70v0l134 -134v0q-77 -74 -173 -114.5t-193 -40.5q-144 0 -246 54z" />
    <glyph glyph-name="uni025B" unicode="&#x25b;" horiz-adv-x="963" 
d="M226 66q-106 81 -106 230v1q0 53 21.5 103.5t62.5 86t96 44.5q-73 30 -114.5 99t-41.5 153v1q0 129 100 199t284 70q132 0 224.5 -42t145.5 -126v0l-148 -121v0q-46 52 -101.5 77.5t-120.5 25.5q-86 0 -133 -29t-47 -83v-1q0 -60 28.5 -93t80.5 -33h173v-199h-173
q-63 0 -98 -29t-35 -82v-1q0 -69 53.5 -107.5t149.5 -38.5q54 0 115.5 29.5t116.5 85.5v0l139 -137v0q-64 -82 -156.5 -123t-214.5 -41q-195 0 -301 81z" />
    <glyph glyph-name="uni01DD" unicode="&#x1dd;" horiz-adv-x="1098" 
d="M309 48.5q-92 63.5 -140.5 184.5t-48.5 290v68h700v-164h-506v0q9 -122 65.5 -190t151.5 -68q116 0 179.5 73.5t63.5 207.5v132q0 133 -68 205t-193 72q-62 0 -123 -25t-109 -70v0l-134 134v0q77 74 173 114.5t193 40.5q144 0 246 -55.5t155.5 -162t53.5 -257.5v-117
q0 -151 -51.5 -257.5t-149.5 -162.5t-236 -56q-130 0 -222 63.5z" />
    <glyph glyph-name="uni0259" unicode="&#x259;" horiz-adv-x="1098" 
d="M309 48.5q-92 63.5 -140.5 184.5t-48.5 290v68h700v-164h-506v0q9 -122 65.5 -190t151.5 -68q116 0 179.5 73.5t63.5 207.5v132q0 133 -68 205t-193 72q-62 0 -123 -25t-109 -70v0l-134 134v0q77 74 173 114.5t193 40.5q144 0 246 -55.5t155.5 -162t53.5 -257.5v-117
q0 -151 -51.5 -257.5t-149.5 -162.5t-236 -56q-130 0 -222 63.5z" />
    <glyph glyph-name="f" unicode="f" horiz-adv-x="649" 
d="M190 1179q0 138 63.5 206.5t195.5 68.5h150v-194h-146q-29 0 -44 -22t-15 -57v-1181h-204v1179zM80 1038h519v-174h-519v174z" />
    <glyph glyph-name="g" unicode="g" horiz-adv-x="1104" 
d="M298.5 -378.5q-92.5 43.5 -143.5 122.5v0l138 125v0q40 -55 95.5 -85t116.5 -30q117 0 181 64.5t64 182.5v1037h204v-1007q0 -143 -52.5 -245t-152.5 -155t-241 -53q-117 0 -209.5 43.5zM294.5 31.5q-80.5 49.5 -122.5 144.5t-42 228v229q0 134 41 229t119.5 144.5
t188.5 49.5q92 0 168.5 -48t123.5 -135l-21 -212q0 66 -24 113t-69.5 71.5t-110.5 24.5q-101 0 -156.5 -63t-55.5 -177v-226q0 -113 55.5 -174.5t156.5 -61.5q65 0 110.5 25.5t69.5 73.5t24 115l14 -219q-31 -77 -101.5 -129t-173.5 -52q-114 0 -194.5 49.5z" />
    <glyph glyph-name="gbreve" unicode="&#x11f;" horiz-adv-x="1104" 
d="M298.5 -378.5q-92.5 43.5 -143.5 122.5v0l138 125v0q40 -55 95.5 -85t116.5 -30q117 0 181 64.5t64 182.5v1037h204v-1007q0 -143 -52.5 -245t-152.5 -155t-241 -53q-117 0 -209.5 43.5zM294.5 31.5q-80.5 49.5 -122.5 144.5t-42 228v229q0 134 41 229t119.5 144.5
t188.5 49.5q92 0 168.5 -48t123.5 -135l-21 -212q0 66 -24 113t-69.5 71.5t-110.5 24.5q-101 0 -156.5 -63t-55.5 -177v-226q0 -113 55.5 -174.5t156.5 -61.5q65 0 110.5 25.5t69.5 73.5t24 115l14 -219q-31 -77 -101.5 -129t-173.5 -52q-114 0 -194.5 49.5zM320.5 1324.5
q-74.5 89.5 -74.5 268.5v0h164v0q0 -100 33.5 -149.5t100.5 -49.5h18q67 0 100.5 49.5t33.5 149.5v0h164v0q0 -179 -74.5 -268.5t-223.5 -89.5h-18q-149 0 -223.5 89.5z" />
    <glyph glyph-name="gcommaaccent" unicode="&#x123;" horiz-adv-x="1104" 
d="M431 1379l204 202v-330h-204v128zM298.5 -378.5q-92.5 43.5 -143.5 122.5v0l138 125v0q40 -55 95.5 -85t116.5 -30q117 0 181 64.5t64 182.5v1037h204v-1007q0 -143 -52.5 -245t-152.5 -155t-241 -53q-117 0 -209.5 43.5zM294.5 31.5q-80.5 49.5 -122.5 144.5t-42 228
v229q0 134 41 229t119.5 144.5t188.5 49.5q92 0 168.5 -48t123.5 -135l-21 -212q0 66 -24 113t-69.5 71.5t-110.5 24.5q-101 0 -156.5 -63t-55.5 -177v-226q0 -113 55.5 -174.5t156.5 -61.5q65 0 110.5 25.5t69.5 73.5t24 115l14 -219q-31 -77 -101.5 -129t-173.5 -52
q-114 0 -194.5 49.5z" />
    <glyph glyph-name="gdotaccent" unicode="&#x121;" horiz-adv-x="1104" 
d="M298.5 -378.5q-92.5 43.5 -143.5 122.5v0l138 125v0q40 -55 95.5 -85t116.5 -30q117 0 181 64.5t64 182.5v1037h204v-1007q0 -143 -52.5 -245t-152.5 -155t-241 -53q-117 0 -209.5 43.5zM294.5 31.5q-80.5 49.5 -122.5 144.5t-42 228v229q0 134 41 229t119.5 144.5
t188.5 49.5q92 0 168.5 -48t123.5 -135l-21 -212q0 66 -24 113t-69.5 71.5t-110.5 24.5q-101 0 -156.5 -63t-55.5 -177v-226q0 -113 55.5 -174.5t156.5 -61.5q65 0 110.5 25.5t69.5 73.5t24 115l14 -219q-31 -77 -101.5 -129t-173.5 -52q-114 0 -194.5 49.5zM451 1455h204
v-204h-204v204z" />
    <glyph glyph-name="h" unicode="h" horiz-adv-x="1144" 
d="M160 1454h204v-1454h-204v1454zM790 629q0 110 -57 170t-160 60q-100 0 -154.5 -52t-54.5 -147l-21 200q48 92 125.5 142.5t171.5 50.5q169 0 261.5 -110.5t92.5 -312.5v-630h-204v629z" />
    <glyph glyph-name="hbar" unicode="&#x127;" horiz-adv-x="1167" 
d="M720 1366v-194h-670v194h670zM183 1454h204v-1454h-204v1454zM813 629q0 110 -57 170t-160 60q-100 0 -154.5 -52t-54.5 -147l-21 200q48 92 125.5 142.5t171.5 50.5q169 0 261.5 -110.5t92.5 -312.5v-630h-204v629z" />
    <glyph glyph-name="i" unicode="i" horiz-adv-x="514" 
d="M160 1454h204v-204h-204v204zM160 1038h204v-1038h-204v1038z" />
    <glyph glyph-name="dotlessi" unicode="&#x131;" horiz-adv-x="514" 
d="M160 1038h204v-1038h-204v1038z" />
    <glyph glyph-name="iacute" unicode="&#xed;" horiz-adv-x="514" 
d="M160 1038h204v-1038h-204v1038zM151 1341l286 355l147 -122l-305 -336z" />
    <glyph glyph-name="icircumflex" unicode="&#xee;" horiz-adv-x="514" 
d="M160 1038h204v-1038h-204v1038zM576 1343l-114 -105l-200 190l-200 -190l-114 105l314 304z" />
    <glyph glyph-name="idieresis" unicode="&#xef;" horiz-adv-x="514" 
d="M160 1038h204v-1038h-204v1038zM370 1454h204v-204h-204v204zM-50 1454h204v-204h-204v204z" />
    <glyph glyph-name="uni1ECB" unicode="&#x1ecb;" horiz-adv-x="514" 
d="M160 1454h204v-204h-204v204zM160 1038h204v-1038h-204v1038zM160 -180h204v-204h-204v204z" />
    <glyph glyph-name="igrave" unicode="&#xec;" horiz-adv-x="514" 
d="M160 1038h204v-1038h-204v1038zM-67 1574l147 122l286 -355l-128 -103z" />
    <glyph glyph-name="imacron" unicode="&#x12b;" horiz-adv-x="514" 
d="M160 1038h204v-1038h-204v1038zM627 1453v-203h-730v203h730z" />
    <glyph glyph-name="iogonek" unicode="&#x12f;" horiz-adv-x="514" 
d="M160 1038h204v-1038h-204v1038zM160 1455h204v-204h-204v204zM119 -373.5q-62 46.5 -62 150.5q0 84 67 152.5t190 117.5l50 -47q-71 -44 -103.5 -88t-32.5 -96q0 -37 21.5 -53.5t68.5 -16.5h46v-166h-46q-137 0 -199 46.5z" />
    <glyph glyph-name="j" unicode="j" horiz-adv-x="549" 
d="M20 -228h114q28 0 43.5 20.5t15.5 58.5v1187h204v-1185q0 -131 -63.5 -203t-179.5 -72h-134v194zM191 1454h208v-204h-208v204z" />
    <glyph glyph-name="k" unicode="k" horiz-adv-x="1083" 
d="M248 394l534 644h240l-787 -886zM160 1454h204v-1454h-204v1454zM489 599l131 136l453 -735h-222z" />
    <glyph glyph-name="kcommaaccent" unicode="&#x137;" horiz-adv-x="1083" 
d="M248 394l534 644h240l-787 -886zM160 1454h204v-1454h-204v1454zM489 599l131 136l453 -735h-222zM440 -148h204v-154l-204 -202v356z" />
    <glyph glyph-name="uni0199" unicode="&#x199;" horiz-adv-x="1083" 
d="M248 394l534 644h240l-787 -886zM489 599l131 136l453 -735h-222zM160 1189q0 131 63.5 203t179.5 72h134v-194h-114q-28 0 -43.5 -20.5t-15.5 -58.5v-1191h-204v1189z" />
    <glyph glyph-name="l" unicode="l" horiz-adv-x="593" 
d="M364 268q0 -38 16.5 -58.5t46.5 -20.5h96v-194h-120q-116 0 -179.5 72t-63.5 203v1184h204v-1186z" />
    <glyph glyph-name="lacute" unicode="&#x13a;" horiz-adv-x="593" 
d="M364 268q0 -38 16.5 -58.5t46.5 -20.5h96v-194h-120q-116 0 -179.5 72t-63.5 203v1184h204v-1186zM168 1672l276 245l132 -137l-295 -226z" />
    <glyph glyph-name="lcaron" unicode="&#x13e;" horiz-adv-x="753" 
d="M364 268q0 -38 16.5 -58.5t46.5 -20.5h96v-194h-120q-116 0 -179.5 72t-63.5 203v1184h204v-1186zM522 1468h174v-204l-174 -162v366z" />
    <glyph glyph-name="lcommaaccent" unicode="&#x13c;" horiz-adv-x="593" 
d="M364 268q0 -38 16.5 -58.5t46.5 -20.5h96v-194h-120q-116 0 -179.5 72t-63.5 203v1184h204v-1186zM192 -148h204v-154l-204 -202v356z" />
    <glyph glyph-name="lslash" unicode="&#x142;" horiz-adv-x="593" 
d="M30 716l493 245v-195l-493 -245v195zM364 268q0 -38 16.5 -58.5t46.5 -20.5h96v-194h-120q-116 0 -179.5 72t-63.5 203v1184h204v-1186z" />
    <glyph glyph-name="m" unicode="m" horiz-adv-x="1754" 
d="M1400 629q0 110 -57 170t-160 60q-95 0 -147 -58t-52 -164l-41 200q49 103 129.5 159.5t177.5 56.5q112 0 191.5 -49.5t121 -144.5t41.5 -229v-630h-204v629zM160 1038h204v-1038h-204v1038zM780 629q0 110 -54 170t-153 60q-100 0 -154.5 -53t-54.5 -149l-21 200
q48 94 125.5 145t171.5 51q109 0 186 -49.5t117.5 -144.5t40.5 -229v-630h-204v629z" />
    <glyph glyph-name="n" unicode="n" horiz-adv-x="1144" 
d="M160 1038h204v-1038h-204v1038zM790 629q0 110 -57 170t-160 60q-100 0 -154.5 -53t-54.5 -149l-21 200q48 94 125.5 145t171.5 51q169 0 261.5 -110.5t92.5 -312.5v-630h-204v629z" />
    <glyph glyph-name="nacute" unicode="&#x144;" horiz-adv-x="1144" 
d="M160 1038h204v-1038h-204v1038zM790 629q0 110 -57 170t-160 60q-100 0 -154.5 -53t-54.5 -149l-21 200q48 94 125.5 145t171.5 51q169 0 261.5 -110.5t92.5 -312.5v-630h-204v629zM461 1341l286 355l147 -122l-305 -336z" />
    <glyph glyph-name="ncaron" unicode="&#x148;" horiz-adv-x="1144" 
d="M160 1038h204v-1038h-204v1038zM790 629q0 110 -57 170t-160 60q-100 0 -154.5 -53t-54.5 -149l-21 200q48 94 125.5 145t171.5 51q169 0 261.5 -110.5t92.5 -312.5v-630h-204v629zM258 1542l114 105l200 -190l200 190l114 -105l-314 -304z" />
    <glyph glyph-name="ncommaaccent" unicode="&#x146;" horiz-adv-x="1144" 
d="M160 1038h204v-1038h-204v1038zM790 629q0 110 -57 170t-160 60q-100 0 -154.5 -53t-54.5 -149l-21 200q48 94 125.5 145t171.5 51q169 0 261.5 -110.5t92.5 -312.5v-630h-204v629zM470 -148h204v-154l-204 -202v356z" />
    <glyph glyph-name="eng" unicode="&#x14b;" horiz-adv-x="1144" 
d="M617 -228h114q28 0 43.5 20.5t15.5 58.5v287h204v-285q0 -131 -63.5 -203t-179.5 -72h-134v194zM160 1038h204v-1038h-204v1038zM790 629q0 110 -57 170t-160 60q-100 0 -154.5 -53t-54.5 -149l-21 200q48 94 125.5 145t171.5 51q169 0 261.5 -110.5t92.5 -312.5v-630
h-204v629z" />
    <glyph glyph-name="ntilde" unicode="&#xf1;" horiz-adv-x="1144" 
d="M160 1038h204v-1038h-204v1038zM790 629q0 110 -57 170t-160 60q-100 0 -154.5 -53t-54.5 -149l-21 200q48 94 125.5 145t171.5 51q169 0 261.5 -110.5t92.5 -312.5v-630h-204v629zM652.5 1259.5q-31.5 12.5 -64.5 34.5l-8 6q-5 4 -11 8t-11 8q-39 28 -62 41t-43 13
q-35 0 -52.5 -17t-17.5 -52v-51h-158v45q0 124 51 186t153 62q38 0 72.5 -15t71.5 -42l8 -6l11 -8q35 -26 57 -39t42 -13q35 0 52.5 19t17.5 58v40h158v-34q0 -128 -50.5 -192t-152.5 -64q-32 0 -63.5 12.5z" />
    <glyph glyph-name="o" unicode="o" horiz-adv-x="1116" 
d="M327 38q-96 53 -146.5 154.5t-50.5 244.5v169q0 141 50.5 241.5t146.5 153t231 52.5t231 -52.5t146.5 -153t50.5 -241.5v-172q0 -142 -50.5 -242.5t-146.5 -153.5t-231 -53t-231 53zM723.5 246q58.5 67 58.5 188v172q0 121 -58.5 187t-165.5 66t-165.5 -66t-58.5 -187
v-172q0 -121 58.5 -188t165.5 -67t165.5 67z" />
    <glyph glyph-name="oacute" unicode="&#xf3;" horiz-adv-x="1116" 
d="M327 38q-96 53 -146.5 154.5t-50.5 244.5v169q0 141 50.5 241.5t146.5 153t231 52.5t231 -52.5t146.5 -153t50.5 -241.5v-172q0 -142 -50.5 -242.5t-146.5 -153.5t-231 -53t-231 53zM723.5 246q58.5 67 58.5 188v172q0 121 -58.5 187t-165.5 66t-165.5 -66t-58.5 -187
v-172q0 -121 58.5 -188t165.5 -67t165.5 67zM448 1341l286 355l147 -122l-305 -336z" />
    <glyph glyph-name="ocircumflex" unicode="&#xf4;" horiz-adv-x="1116" 
d="M327 38q-96 53 -146.5 154.5t-50.5 244.5v169q0 141 50.5 241.5t146.5 153t231 52.5t231 -52.5t146.5 -153t50.5 -241.5v-172q0 -142 -50.5 -242.5t-146.5 -153.5t-231 -53t-231 53zM723.5 246q58.5 67 58.5 188v172q0 121 -58.5 187t-165.5 66t-165.5 -66t-58.5 -187
v-172q0 -121 58.5 -188t165.5 -67t165.5 67zM873 1343l-114 -105l-200 190l-200 -190l-114 105l314 304z" />
    <glyph glyph-name="odieresis" unicode="&#xf6;" horiz-adv-x="1116" 
d="M327 38q-96 53 -146.5 154.5t-50.5 244.5v169q0 141 50.5 241.5t146.5 153t231 52.5t231 -52.5t146.5 -153t50.5 -241.5v-172q0 -142 -50.5 -242.5t-146.5 -153.5t-231 -53t-231 53zM723.5 246q58.5 67 58.5 188v172q0 121 -58.5 187t-165.5 66t-165.5 -66t-58.5 -187
v-172q0 -121 58.5 -188t165.5 -67t165.5 67zM667 1454h204v-204h-204v204zM247 1454h204v-204h-204v204z" />
    <glyph glyph-name="uni1ECD" unicode="&#x1ecd;" horiz-adv-x="1116" 
d="M327 38q-96 53 -146.5 154.5t-50.5 244.5v169q0 141 50.5 241.5t146.5 153t231 52.5t231 -52.5t146.5 -153t50.5 -241.5v-172q0 -142 -50.5 -242.5t-146.5 -153.5t-231 -53t-231 53zM723.5 246q58.5 67 58.5 188v172q0 121 -58.5 187t-165.5 66t-165.5 -66t-58.5 -187
v-172q0 -121 58.5 -188t165.5 -67t165.5 67zM457 -180h204v-204h-204v204z" />
    <glyph glyph-name="ograve" unicode="&#xf2;" horiz-adv-x="1116" 
d="M327 38q-96 53 -146.5 154.5t-50.5 244.5v169q0 141 50.5 241.5t146.5 153t231 52.5t231 -52.5t146.5 -153t50.5 -241.5v-172q0 -142 -50.5 -242.5t-146.5 -153.5t-231 -53t-231 53zM723.5 246q58.5 67 58.5 188v172q0 121 -58.5 187t-165.5 66t-165.5 -66t-58.5 -187
v-172q0 -121 58.5 -188t165.5 -67t165.5 67zM230 1574l147 122l286 -355l-128 -103z" />
    <glyph glyph-name="ohorn" unicode="&#x1a1;" horiz-adv-x="1124" 
d="M656 1038h150q61 0 95 36.5t34 102.5v74h199v-94q0 -125 -77 -194t-218 -69h-183v144zM327 38q-96 53 -146.5 154.5t-50.5 244.5v169q0 141 50.5 241.5t146.5 153t231 52.5t231 -52.5t146.5 -153t50.5 -241.5v-172q0 -142 -50.5 -242.5t-146.5 -153.5t-231 -53t-231 53z
M723.5 246q58.5 67 58.5 188v172q0 121 -58.5 187t-165.5 66t-165.5 -66t-58.5 -187v-172q0 -121 58.5 -188t165.5 -67t165.5 67z" />
    <glyph glyph-name="ohungarumlaut" unicode="&#x151;" horiz-adv-x="1116" 
d="M327 38q-96 53 -146.5 154.5t-50.5 244.5v169q0 141 50.5 241.5t146.5 153t231 52.5t231 -52.5t146.5 -153t50.5 -241.5v-172q0 -142 -50.5 -242.5t-146.5 -153.5t-231 -53t-231 53zM723.5 246q58.5 67 58.5 188v172q0 121 -58.5 187t-165.5 66t-165.5 -66t-58.5 -187
v-172q0 -121 58.5 -188t165.5 -67t165.5 67zM635 1321l186 355l172 -107l-205 -336zM235 1321l186 355l172 -107l-205 -336z" />
    <glyph glyph-name="omacron" unicode="&#x14d;" horiz-adv-x="1116" 
d="M327 38q-96 53 -146.5 154.5t-50.5 244.5v169q0 141 50.5 241.5t146.5 153t231 52.5t231 -52.5t146.5 -153t50.5 -241.5v-172q0 -142 -50.5 -242.5t-146.5 -153.5t-231 -53t-231 53zM723.5 246q58.5 67 58.5 188v172q0 121 -58.5 187t-165.5 66t-165.5 -66t-58.5 -187
v-172q0 -121 58.5 -188t165.5 -67t165.5 67zM924 1453v-203h-730v203h730z" />
    <glyph glyph-name="uni0254" unicode="&#x254;" horiz-adv-x="1020" 
d="M221.5 27.5q-98.5 42.5 -156.5 120.5v0l147 132v0q43 -53 102 -82t124 -29q118 0 183 69.5t65 197.5v171q0 120 -65 186t-183 66q-64 0 -123 -27t-103 -77v0l-147 132v0q58 79 156 122.5t220 43.5q142 0 242.5 -52.5t153.5 -152.5t53 -241v-171q0 -143 -53 -244
t-153.5 -154t-242.5 -53q-121 0 -219.5 42.5z" />
    <glyph glyph-name="oslash" unicode="&#xf8;" horiz-adv-x="1116" 
d="M787 1180h139l-576 -1322h-139zM327 38q-96 53 -146.5 154.5t-50.5 244.5v169q0 141 50.5 241.5t146.5 153t231 52.5t231 -52.5t146.5 -153t50.5 -241.5v-172q0 -142 -50.5 -242.5t-146.5 -153.5t-231 -53t-231 53zM723.5 246q58.5 67 58.5 188v172q0 121 -58.5 187
t-165.5 66t-165.5 -66t-58.5 -187v-172q0 -121 58.5 -188t165.5 -67t165.5 67z" />
    <glyph glyph-name="otilde" unicode="&#xf5;" horiz-adv-x="1116" 
d="M327 38q-96 53 -146.5 154.5t-50.5 244.5v169q0 141 50.5 241.5t146.5 153t231 52.5t231 -52.5t146.5 -153t50.5 -241.5v-172q0 -142 -50.5 -242.5t-146.5 -153.5t-231 -53t-231 53zM723.5 246q58.5 67 58.5 188v172q0 121 -58.5 187t-165.5 66t-165.5 -66t-58.5 -187
v-172q0 -121 58.5 -188t165.5 -67t165.5 67zM639.5 1259.5q-31.5 12.5 -64.5 34.5l-8 6q-5 4 -11 8t-11 8q-39 28 -62 41t-43 13q-35 0 -52.5 -17t-17.5 -52v-51h-158v45q0 124 51 186t153 62q38 0 72.5 -15t71.5 -42l8 -6l11 -8q35 -26 57 -39t42 -13q35 0 52.5 19t17.5 58
v40h158v-34q0 -128 -50.5 -192t-152.5 -64q-32 0 -63.5 12.5z" />
    <glyph glyph-name="oe" unicode="&#x153;" horiz-adv-x="1740" 
d="M327 38q-96 53 -146.5 154.5t-50.5 244.5v169q0 141 50.5 241.5t146.5 153t231 52.5q123 0 210 -52.5t132.5 -153t45.5 -241.5v-172q0 -142 -45.5 -242.5t-132.5 -153.5t-210 -53q-135 0 -231 53zM723 238.5q59 69.5 59 195.5v172q0 125 -59 194t-166 69q-111 0 -172 -69
t-61 -194v-172q0 -126 61 -195.5t172 -69.5q107 0 166 69.5zM1002 39q-93 54 -141.5 158.5t-48.5 252.5v117q0 154 46.5 263t136 166t214.5 57q130 0 222 -65t140.5 -188t48.5 -295v-68h-690v159h506v0q-10 134 -69 208.5t-158 74.5q-120 0 -186.5 -79t-66.5 -222v-132
q0 -133 71 -205t200 -72q64 0 125.5 25t111.5 70v0l129 -124v0q-77 -74 -173 -114.5t-193 -40.5q-132 0 -225 54z" />
    <glyph glyph-name="p" unicode="p" horiz-adv-x="1114" 
d="M160 1038h204v-1460h-204v1460zM456 31.5q-72 46.5 -106 131.5l14 217q0 -67 24 -114t69.5 -72t110.5 -25q101 0 156.5 61.5t55.5 173.5v225q0 114 -55.5 177t-156.5 63q-65 0 -110.5 -24t-69.5 -70.5t-24 -111.5l-21 200q47 91 123 140.5t169 49.5q110 0 188.5 -49.5
t119.5 -144.5t41 -229v-226q0 -132 -42 -226t-123 -143.5t-194 -49.5q-97 0 -169 46.5z" />
    <glyph glyph-name="thorn" unicode="&#xfe;" horiz-adv-x="1114" 
d="M160 1454h204v-1876h-204v1876zM456 31.5q-72 46.5 -106 131.5l14 217q0 -67 24 -114t69.5 -72t110.5 -25q101 0 156.5 61.5t55.5 173.5v225q0 114 -55.5 177t-156.5 63q-65 0 -110.5 -24t-69.5 -70.5t-24 -111.5l-21 200q47 91 123 140.5t169 49.5q110 0 188.5 -49.5
t119.5 -144.5t41 -229v-226q0 -132 -42 -226t-123 -143.5t-194 -49.5q-97 0 -169 46.5z" />
    <glyph glyph-name="q" unicode="q" horiz-adv-x="1104" 
d="M750 1038h204v-1460h-204v1460zM294.5 31.5q-80.5 49.5 -122.5 144.5t-42 228v229q0 134 41 229t119.5 144.5t188.5 49.5q92 0 168.5 -48t123.5 -135l-21 -212q0 66 -24 113t-69.5 71.5t-110.5 24.5q-101 0 -156.5 -63t-55.5 -177v-226q0 -113 55.5 -174.5t156.5 -61.5
q65 0 110.5 25.5t69.5 73.5t24 115l14 -219q-31 -77 -101.5 -129t-173.5 -52q-114 0 -194.5 49.5z" />
    <glyph glyph-name="r" unicode="r" horiz-adv-x="874" 
d="M160 1038h204v-1038h-204v1038zM663 842q-41 17 -95 17q-97 0 -150.5 -53.5t-53.5 -148.5l-21 200q48 93 124 144.5t168 51.5q71 0 128.5 -20.5t100.5 -60.5l-133 -180q-27 33 -68 50z" />
    <glyph glyph-name="racute" unicode="&#x155;" horiz-adv-x="874" 
d="M160 1038h204v-1038h-204v1038zM663 842q-41 17 -95 17q-97 0 -150.5 -53.5t-53.5 -148.5l-21 200q48 93 124 144.5t168 51.5q71 0 128.5 -20.5t100.5 -60.5l-133 -180q-27 33 -68 50zM386 1341l286 355l147 -122l-305 -336z" />
    <glyph glyph-name="rcaron" unicode="&#x159;" horiz-adv-x="874" 
d="M160 1038h204v-1038h-204v1038zM663 842q-41 17 -95 17q-97 0 -150.5 -53.5t-53.5 -148.5l-21 200q48 93 124 144.5t168 51.5q71 0 128.5 -20.5t100.5 -60.5l-133 -180q-27 33 -68 50zM183 1542l114 105l200 -190l200 190l114 -105l-314 -304z" />
    <glyph glyph-name="rcommaaccent" unicode="&#x157;" horiz-adv-x="874" 
d="M160 1038h204v-1038h-204v1038zM663 842q-41 17 -95 17q-97 0 -150.5 -53.5t-53.5 -148.5l-21 200q48 93 124 144.5t168 51.5q71 0 128.5 -20.5t100.5 -60.5l-133 -180q-27 33 -68 50zM160 -148h204v-154l-204 -202v356z" />
    <glyph glyph-name="s" unicode="s" horiz-adv-x="1062" 
d="M354.5 3q-80.5 18 -150.5 54t-129 90v0l121 149v0q84 -64 167 -96t164 -32q121 0 181.5 37.5t60.5 112.5q0 50 -33 75t-82 33.5t-138 15.5q-8 0 -17 0.5t-17 1.5q-4 0 -8 0.5t-8 0.5q-101 8 -171 29.5t-116.5 80.5t-46.5 169t45 183t134 109.5t223 36.5q81 0 154.5 -15
t140.5 -44.5t129 -74.5v0l-123 -149v0q-78 50 -153.5 75t-147.5 25q-104 0 -156 -35.5t-52 -106.5q0 -42 29.5 -63t74.5 -28t128 -12q6 -1 12.5 -1t13.5 -1h6t6 -1q109 -7 185.5 -29t128.5 -87t52 -188q0 -112 -48 -185.5t-144.5 -110.5t-242.5 -37q-92 0 -172.5 18z" />
    <glyph glyph-name="sacute" unicode="&#x15b;" horiz-adv-x="1062" 
d="M354.5 3q-80.5 18 -150.5 54t-129 90v0l121 149v0q84 -64 167 -96t164 -32q121 0 181.5 37.5t60.5 112.5q0 50 -33 75t-82 33.5t-138 15.5q-8 0 -17 0.5t-17 1.5q-4 0 -8 0.5t-8 0.5q-101 8 -171 29.5t-116.5 80.5t-46.5 169t45 183t134 109.5t223 36.5q81 0 154.5 -15
t140.5 -44.5t129 -74.5v0l-123 -149v0q-78 50 -153.5 75t-147.5 25q-104 0 -156 -35.5t-52 -106.5q0 -42 29.5 -63t74.5 -28t128 -12q6 -1 12.5 -1t13.5 -1h6t6 -1q109 -7 185.5 -29t128.5 -87t52 -188q0 -112 -48 -185.5t-144.5 -110.5t-242.5 -37q-92 0 -172.5 18z
M425 1341l286 355l147 -122l-305 -336z" />
    <glyph glyph-name="scaron" unicode="&#x161;" horiz-adv-x="1062" 
d="M354.5 3q-80.5 18 -150.5 54t-129 90v0l121 149v0q84 -64 167 -96t164 -32q121 0 181.5 37.5t60.5 112.5q0 50 -33 75t-82 33.5t-138 15.5q-8 0 -17 0.5t-17 1.5q-4 0 -8 0.5t-8 0.5q-101 8 -171 29.5t-116.5 80.5t-46.5 169t45 183t134 109.5t223 36.5q81 0 154.5 -15
t140.5 -44.5t129 -74.5v0l-123 -149v0q-78 50 -153.5 75t-147.5 25q-104 0 -156 -35.5t-52 -106.5q0 -42 29.5 -63t74.5 -28t128 -12q6 -1 12.5 -1t13.5 -1h6t6 -1q109 -7 185.5 -29t128.5 -87t52 -188q0 -112 -48 -185.5t-144.5 -110.5t-242.5 -37q-92 0 -172.5 18z
M222 1542l114 105l200 -190l200 190l114 -105l-314 -304z" />
    <glyph glyph-name="scedilla" unicode="&#x15f;" horiz-adv-x="1062" 
d="M354.5 3q-80.5 18 -150.5 54t-129 90v0l121 149v0q84 -64 167 -96t164 -32q121 0 181.5 37.5t60.5 112.5q0 50 -33 75t-82 33.5t-138 15.5q-8 0 -17 0.5t-17 1.5q-4 0 -8 0.5t-8 0.5q-101 8 -171 29.5t-116.5 80.5t-46.5 169t45 183t134 109.5t223 36.5q81 0 154.5 -15
t140.5 -44.5t129 -74.5v0l-123 -149v0q-78 50 -153.5 75t-147.5 25q-104 0 -156 -35.5t-52 -106.5q0 -42 29.5 -63t74.5 -28t128 -12q6 -1 12.5 -1t13.5 -1h6t6 -1q109 -7 185.5 -29t128.5 -87t52 -188q0 -112 -48 -185.5t-144.5 -110.5t-242.5 -37q-92 0 -172.5 18z
M359 -404l42 140q48 -14 95 -14q55 0 82 12.5t27 38.5q0 25 -36 37t-110 12l87 116q118 0 176.5 -44.5t58.5 -134.5q0 -91 -64 -136t-193 -45q-100 0 -165 18zM443 91h166v-269h-166v269z" />
    <glyph glyph-name="scommaaccent" unicode="&#x219;" horiz-adv-x="1062" 
d="M354.5 3q-80.5 18 -150.5 54t-129 90v0l121 149v0q84 -64 167 -96t164 -32q121 0 181.5 37.5t60.5 112.5q0 50 -33 75t-82 33.5t-138 15.5q-8 0 -17 0.5t-17 1.5q-4 0 -8 0.5t-8 0.5q-101 8 -171 29.5t-116.5 80.5t-46.5 169t45 183t134 109.5t223 36.5q81 0 154.5 -15
t140.5 -44.5t129 -74.5v0l-123 -149v0q-78 50 -153.5 75t-147.5 25q-104 0 -156 -35.5t-52 -106.5q0 -42 29.5 -63t74.5 -28t128 -12q6 -1 12.5 -1t13.5 -1h6t6 -1q109 -7 185.5 -29t128.5 -87t52 -188q0 -112 -48 -185.5t-144.5 -110.5t-242.5 -37q-92 0 -172.5 18z
M424 -148h204v-154l-204 -202v356z" />
    <glyph glyph-name="uni1E63" unicode="&#x1e63;" horiz-adv-x="1062" 
d="M354.5 3q-80.5 18 -150.5 54t-129 90v0l121 149v0q84 -64 167 -96t164 -32q121 0 181.5 37.5t60.5 112.5q0 50 -33 75t-82 33.5t-138 15.5q-8 0 -17 0.5t-17 1.5q-4 0 -8 0.5t-8 0.5q-101 8 -171 29.5t-116.5 80.5t-46.5 169t45 183t134 109.5t223 36.5q81 0 154.5 -15
t140.5 -44.5t129 -74.5v0l-123 -149v0q-78 50 -153.5 75t-147.5 25q-104 0 -156 -35.5t-52 -106.5q0 -42 29.5 -63t74.5 -28t128 -12q6 -1 12.5 -1t13.5 -1h6t6 -1q109 -7 185.5 -29t128.5 -87t52 -188q0 -112 -48 -185.5t-144.5 -110.5t-242.5 -37q-92 0 -172.5 18z
M424 -180h204v-204h-204v204z" />
    <glyph glyph-name="germandbls" unicode="&#xdf;" horiz-adv-x="1137" 
d="M160 1030q0 139 49.5 237.5t144.5 150t229 51.5q128 0 218.5 -40.5t138 -118.5t47.5 -187v-1q0 -95 -47.5 -157.5t-133.5 -81.5q86 -16 133.5 -74t47.5 -147v-430q0 -118 -80 -182.5t-226 -64.5h-96v194h96q49 0 75.5 25t26.5 70v413q0 45 -26.5 70t-75.5 25h-96v194h96
q49 0 75.5 36.5t26.5 103.5v1q0 76 -50.5 117t-142.5 41q-108 0 -167 -66t-59 -187v-1022h-204v1030z" />
    <glyph glyph-name="t" unicode="t" horiz-adv-x="668" 
d="M245.5 64.5q-58.5 69.5 -58.5 205.5v1070h204v-1072q0 -38 15 -58.5t44 -20.5h98v-194h-118q-126 0 -184.5 69.5zM80 1038h468v-184h-468v184z" />
    <glyph glyph-name="tcaron" unicode="&#x165;" horiz-adv-x="788" 
d="M245.5 64.5q-58.5 69.5 -58.5 205.5v1070h204v-1072q0 -38 15 -58.5t44 -20.5h98v-194h-118q-126 0 -184.5 69.5zM80 1038h468v-184h-468v184zM589 1554h174v-204l-174 -162v366z" />
    <glyph glyph-name="tcommaaccent" unicode="&#x163;" horiz-adv-x="668" 
d="M245.5 64.5q-58.5 69.5 -58.5 205.5v1070h204v-1072q0 -38 15 -58.5t44 -20.5h98v-194h-118q-126 0 -184.5 69.5zM80 1038h468v-184h-468v184zM162 -404l42 140q48 -14 95 -14q55 0 82 12.5t27 38.5q0 25 -36 37t-110 12l87 116q118 0 176.5 -44.5t58.5 -134.5
q0 -91 -64 -136t-193 -45q-100 0 -165 18zM246 91h166v-269h-166v269z" />
    <glyph glyph-name="uni021B" unicode="&#x21b;" horiz-adv-x="668" 
d="M245.5 64.5q-58.5 69.5 -58.5 205.5v1070h204v-1072q0 -38 15 -58.5t44 -20.5h98v-194h-118q-126 0 -184.5 69.5zM80 1038h468v-184h-468v184zM227 -148h204v-154l-204 -202v356z" />
    <glyph glyph-name="u" unicode="u" horiz-adv-x="1139" 
d="M786 1038h203v-1038h-203v1038zM364 407q0 -109 55.5 -168.5t156.5 -59.5q100 0 155 53t55 151l14 -217q-32 -77 -104 -129t-177 -52q-172 0 -265.5 110.5t-93.5 311.5v631h204v-631z" />
    <glyph glyph-name="uacute" unicode="&#xfa;" horiz-adv-x="1139" 
d="M786 1038h203v-1038h-203v1038zM364 407q0 -109 55.5 -168.5t156.5 -59.5q100 0 155 53t55 151l14 -217q-32 -77 -104 -129t-177 -52q-172 0 -265.5 110.5t-93.5 311.5v631h204v-631zM459 1341l286 355l147 -122l-305 -336z" />
    <glyph glyph-name="ubreve" unicode="&#x16d;" horiz-adv-x="1139" 
d="M786 1038h203v-1038h-203v1038zM364 407q0 -109 55.5 -168.5t156.5 -59.5q100 0 155 53t55 151l14 -217q-32 -77 -104 -129t-177 -52q-172 0 -265.5 110.5t-93.5 311.5v631h204v-631zM337.5 1324.5q-74.5 89.5 -74.5 268.5v0h164v0q0 -100 33.5 -149.5t100.5 -49.5h18
q67 0 100.5 49.5t33.5 149.5v0h164v0q0 -179 -74.5 -268.5t-223.5 -89.5h-18q-149 0 -223.5 89.5z" />
    <glyph glyph-name="ucircumflex" unicode="&#xfb;" horiz-adv-x="1139" 
d="M786 1038h203v-1038h-203v1038zM364 407q0 -109 55.5 -168.5t156.5 -59.5q100 0 155 53t55 151l14 -217q-32 -77 -104 -129t-177 -52q-172 0 -265.5 110.5t-93.5 311.5v631h204v-631zM884 1343l-114 -105l-200 190l-200 -190l-114 105l314 304z" />
    <glyph glyph-name="udieresis" unicode="&#xfc;" horiz-adv-x="1139" 
d="M786 1038h203v-1038h-203v1038zM364 407q0 -109 55.5 -168.5t156.5 -59.5q100 0 155 53t55 151l14 -217q-32 -77 -104 -129t-177 -52q-172 0 -265.5 110.5t-93.5 311.5v631h204v-631zM678 1454h204v-204h-204v204zM258 1454h204v-204h-204v204z" />
    <glyph glyph-name="uni1EE5" unicode="&#x1ee5;" horiz-adv-x="1139" 
d="M786 1038h203v-1038h-203v1038zM364 407q0 -109 55.5 -168.5t156.5 -59.5q100 0 155 53t55 151l14 -217q-32 -77 -104 -129t-177 -52q-172 0 -265.5 110.5t-93.5 311.5v631h204v-631zM468 -180h204v-204h-204v204z" />
    <glyph glyph-name="ugrave" unicode="&#xf9;" horiz-adv-x="1139" 
d="M786 1038h203v-1038h-203v1038zM364 407q0 -109 55.5 -168.5t156.5 -59.5q100 0 155 53t55 151l14 -217q-32 -77 -104 -129t-177 -52q-172 0 -265.5 110.5t-93.5 311.5v631h204v-631zM241 1574l147 122l286 -355l-128 -103z" />
    <glyph glyph-name="uhorn" unicode="&#x1b0;" horiz-adv-x="1270" 
d="M786 1038h203v-1038h-203v1038zM364 407q0 -109 55.5 -168.5t156.5 -59.5q100 0 155 53t55 151l14 -217q-32 -77 -104 -129t-177 -52q-172 0 -265.5 110.5t-93.5 311.5v631h204v-631zM792 894v144h160q61 0 95 36.5t34 102.5v74h199v-94q0 -125 -77 -194t-218 -69h-193z
" />
    <glyph glyph-name="uhungarumlaut" unicode="&#x171;" horiz-adv-x="1139" 
d="M786 1038h203v-1038h-203v1038zM364 407q0 -109 55.5 -168.5t156.5 -59.5q100 0 155 53t55 151l14 -217q-32 -77 -104 -129t-177 -52q-172 0 -265.5 110.5t-93.5 311.5v631h204v-631zM646 1321l186 355l172 -107l-205 -336zM246 1321l186 355l172 -107l-205 -336z" />
    <glyph glyph-name="umacron" unicode="&#x16b;" horiz-adv-x="1139" 
d="M786 1038h203v-1038h-203v1038zM364 407q0 -109 55.5 -168.5t156.5 -59.5q100 0 155 53t55 151l14 -217q-32 -77 -104 -129t-177 -52q-172 0 -265.5 110.5t-93.5 311.5v631h204v-631zM935 1453v-203h-730v203h730z" />
    <glyph glyph-name="uogonek" unicode="&#x173;" horiz-adv-x="1139" 
d="M786 1038h203v-1038h-203v1038zM364 407q0 -109 55.5 -168.5t156.5 -59.5q100 0 155 53t55 151l14 -217q-32 -77 -104 -129t-177 -52q-172 0 -265.5 110.5t-93.5 311.5v631h204v-631zM744 -373.5q-62 46.5 -62 150.5q0 84 67 152.5t190 117.5l50 -47q-71 -44 -103.5 -88
t-32.5 -96q0 -37 21.5 -53.5t68.5 -16.5h46v-166h-46q-137 0 -199 46.5z" />
    <glyph glyph-name="uring" unicode="&#x16f;" horiz-adv-x="1139" 
d="M786 1038h203v-1038h-203v1038zM364 407q0 -109 55.5 -168.5t156.5 -59.5q100 0 155 53t55 151l14 -217q-32 -77 -104 -129t-177 -52q-172 0 -265.5 110.5t-93.5 311.5v631h204v-631zM388.5 1301q-63.5 60 -63.5 171q0 116 63.5 178.5t181.5 62.5q117 0 181 -63.5
t64 -177.5q0 -111 -64 -171t-181 -60q-118 0 -181.5 60zM646 1399q27 28 27 77q0 51 -27 79.5t-76 28.5t-76 -28.5t-27 -79.5q0 -49 27 -77t76 -28t76 28z" />
    <glyph glyph-name="v" unicode="v" horiz-adv-x="1024" 
d="M771 1038h213l-390 -1038h-154l-390 1038h213l254 -741z" />
    <glyph glyph-name="w" unicode="w" horiz-adv-x="1584" 
d="M70 1038h213l184 -741l259 741h142l259 -741l184 741h213l-320 -1038h-154l-253 717l-253 -717h-154z" />
    <glyph glyph-name="x" unicode="x" horiz-adv-x="1059" 
d="M458 472l-382 566h227l298 -465l393 -573h-226zM452 573l98 -188l-264 -385h-226zM524 670l227 368h227l-368 -560z" />
    <glyph glyph-name="y" unicode="y" horiz-adv-x="989" 
d="M969 1038l-442 -1281q-24 -71 -63 -112.5t-96 -59.5t-140 -18h-41v196h41q57 0 90.5 23t58.5 79l384 1173h208zM50 1038h208l319 -902l-113 -221z" />
    <glyph glyph-name="yacute" unicode="&#xfd;" horiz-adv-x="989" 
d="M969 1038l-442 -1281q-24 -71 -63 -112.5t-96 -59.5t-140 -18h-41v196h41q57 0 90.5 23t58.5 79l384 1173h208zM50 1038h208l319 -902l-113 -221zM409 1341l286 355l147 -122l-305 -336z" />
    <glyph glyph-name="ydieresis" unicode="&#xff;" horiz-adv-x="989" 
d="M969 1038l-442 -1281q-24 -71 -63 -112.5t-96 -59.5t-140 -18h-41v196h41q57 0 90.5 23t58.5 79l384 1173h208zM50 1038h208l319 -902l-113 -221zM628 1454h204v-204h-204v204zM208 1454h204v-204h-204v204z" />
    <glyph glyph-name="uni01B4" unicode="&#x1b4;" horiz-adv-x="1051" 
d="M187 -237h41q60 0 95.5 23t53.5 79l335 1026q26 81 79.5 121.5t135.5 40.5h104v-194h-64q-31 0 -53 -19.5t-35 -59.5l-352 -1023q-24 -71 -63 -112.5t-96 -59.5t-140 -18h-41v196zM50 1038h208l319 -902l-113 -221z" />
    <glyph glyph-name="z" unicode="z" horiz-adv-x="1013" 
d="M876 866l-499 -677h526v-189h-773v176l512 673h-498v189h732v-172z" />
    <glyph glyph-name="zacute" unicode="&#x17a;" horiz-adv-x="1013" 
d="M876 866l-499 -677h526v-189h-773v176l512 673h-498v189h732v-172zM407 1341l286 355l147 -122l-305 -336z" />
    <glyph glyph-name="zcaron" unicode="&#x17e;" horiz-adv-x="1013" 
d="M876 866l-499 -677h526v-189h-773v176l512 673h-498v189h732v-172zM204 1542l114 105l200 -190l200 190l114 -105l-314 -304z" />
    <glyph glyph-name="zdotaccent" unicode="&#x17c;" horiz-adv-x="1013" 
d="M876 866l-499 -677h526v-189h-773v176l512 673h-498v189h732v-172zM416 1455h204v-204h-204v204z" />
    <glyph glyph-name="glyph254" horiz-adv-x="1116" 
d="M326 157l136 -51l-112 -248h-159zM683 949l104 231h159l-133 -294zM327 38q-96 53 -146.5 154.5t-50.5 244.5v169q0 141 50.5 241.5t146.5 153t231 52.5t231 -52.5t146.5 -153t50.5 -241.5v-172q0 -142 -50.5 -242.5t-146.5 -153.5t-231 -53t-231 53zM723.5 246
q58.5 67 58.5 188v172q0 121 -58.5 187t-165.5 66t-165.5 -66t-58.5 -187v-172q0 -121 58.5 -188t165.5 -67t165.5 67z" />
    <glyph glyph-name="ordfeminine" unicode="&#xaa;" horiz-adv-x="705" 
d="M465 1227q0 44 -27.5 68.5t-74.5 24.5q-42 0 -65.5 -10t-53.5 -39l-116 81q43 58 99 83.5t139 25.5q118 0 183.5 -56.5t65.5 -167.5v-406h-150v396zM156.5 874.5q-56.5 50.5 -56.5 141.5q0 88 56 137t157 49h169l6 -126h-159q-35 0 -54.5 -17.5t-19.5 -49.5
q0 -29 24.5 -45.5t68.5 -16.5q56 0 86.5 21.5t30.5 61.5l23 -125q-23 -38 -68 -59.5t-104 -21.5q-103 0 -159.5 50.5z" />
    <glyph glyph-name="ordmasculine" unicode="&#xba;" horiz-adv-x="700" 
d="M166.5 892.5q-66.5 68.5 -66.5 191.5v117q0 124 66.5 192t188.5 68t188.5 -68.5t66.5 -192.5v-116q0 -123 -66.5 -191.5t-188.5 -68.5t-188.5 68.5zM420 1011q23 28 23 78v110q0 49 -23 76t-65 27q-43 0 -65.5 -27.5t-22.5 -77.5v-108q0 -51 22.5 -78.5t65.5 -27.5
q42 0 65 28z" />
    <glyph glyph-name="afii10017" unicode="&#x410;" horiz-adv-x="1326" 
d="M576 1454h174l536 -1454h-220l-403 1173l-403 -1173h-220zM287 513h765v-194h-765v194z" />
    <glyph glyph-name="afii10018" unicode="&#x411;" horiz-adv-x="1305" 
d="M285 194h465q70 0 119.5 28t75.5 82t26 130v0q0 77 -26 131t-75.5 82.5t-119.5 28.5h-465v194h458q138 0 236 -51t149.5 -149t51.5 -236v0q0 -137 -51.5 -234.5t-149.5 -148.5t-236 -51h-458v194zM180 1454h204v-1454h-204v1454zM279 1454h795v-194h-795v194z" />
    <glyph glyph-name="afii10019" unicode="&#x412;" horiz-adv-x="1322" 
d="M300 189h394q155 0 226 59t71 166v3q0 74 -25.5 127t-80.5 81.5t-141 28.5h-444v184h444q113 0 170.5 53t57.5 157v0q0 109 -64 163t-192 54h-416v189h453q141 0 236 -48t142 -136t47 -210v0q0 -75 -29 -140.5t-88.5 -112t-147.5 -62.5q88 -13 152 -62.5t98 -123.5
t34 -160v-3q0 -118 -52 -208t-149 -139t-226 -49h-470v189zM180 1454h203v-1454h-203v1454z" />
    <glyph glyph-name="afii10020" unicode="&#x413;" horiz-adv-x="975" 
d="M180 1454h204v-1454h-204v1454zM280 1454h715v-194h-715v194z" />
    <glyph glyph-name="afii10052" unicode="&#x403;" horiz-adv-x="975" 
d="M180 1454h204v-1454h-204v1454zM280 1454h715v-194h-715v194zM511 1672l276 245l132 -137l-295 -226z" />
    <glyph glyph-name="afii10050" unicode="&#x490;" horiz-adv-x="975" 
d="M791 1726h204v-384h-204v384zM180 1454h204v-1454h-204v1454zM280 1454h715v-194h-715v194z" />
    <glyph glyph-name="afii10021" unicode="&#x414;" horiz-adv-x="1421" 
d="M41 194h9q126 0 195.5 102t69.5 287v871h204v-889q0 -160 -53 -273t-153.5 -172.5t-242.5 -59.5h-29v134zM40 194h204v-495h-204v495zM40 194h1260v-194h-1260v194zM1187 194h204v-495h-204v495zM992 1454h204v-1454h-204v1454zM442 1454h658v-194h-658v194z" />
    <glyph glyph-name="afii10022" unicode="&#x415;" horiz-adv-x="1224" 
d="M180 1454h204v-1454h-204v1454zM279 194h835v-194h-835v194zM279 819h725v-194h-725v194zM279 1454h835v-194h-835v194z" />
    <glyph glyph-name="uni0400" unicode="&#x400;" horiz-adv-x="1224" 
d="M180 1454h204v-1454h-204v1454zM279 194h835v-194h-835v194zM279 819h725v-194h-725v194zM279 1454h835v-194h-835v194zM356 1770l122 137l276 -245l-113 -118z" />
    <glyph glyph-name="afii10023" unicode="&#x401;" horiz-adv-x="1224" 
d="M180 1454h204v-1454h-204v1454zM279 194h835v-194h-835v194zM279 819h725v-194h-725v194zM279 1454h835v-194h-835v194zM768 1777h204v-204h-204v204zM358 1777h204v-204h-204v204z" />
    <glyph glyph-name="afii10024" unicode="&#x416;" horiz-adv-x="1962" 
d="M1223 798l402 656h256l-555 -835zM1222 640l179 105l541 -745h-283zM561 745l179 -105l-437 -640h-283zM81 1454h256l402 -656l-103 -179zM560 819h842v-194h-842v194zM879 1454h204v-1454h-204v1454z" />
    <glyph glyph-name="afii10025" unicode="&#x417;" horiz-adv-x="1208" 
d="M361.5 30.5q-105.5 45.5 -170 132.5t-81.5 209v0h208v0q19 -91 97 -141t201 -50q121 0 187 61.5t66 174.5v1q0 115 -58.5 178t-164.5 63h-213v194h213q95 0 147 55t52 156v9q0 99 -59.5 149.5t-170.5 50.5q-104 0 -175.5 -47.5t-98.5 -133.5v0h-207v0q24 119 87 204
t161 129t223 44q145 0 246.5 -43t154.5 -127.5t53 -207.5v-8q0 -115 -51 -199.5t-145 -124.5q105 -25 162.5 -117t57.5 -235v-1q0 -133 -56 -227.5t-163 -144t-258 -49.5q-139 0 -244.5 45.5z" />
    <glyph glyph-name="afii10026" unicode="&#x418;" horiz-adv-x="1434" 
d="M1052 1v1143l24 -26l-729 -1117h-167v1453h202v-1160l-24 26l731 1134h165v-1453h-202z" />
    <glyph glyph-name="afii10027" unicode="&#x419;" horiz-adv-x="1434" 
d="M1052 1v1143l24 -26l-729 -1117h-167v1453h202v-1160l-24 26l731 1134h165v-1453h-202zM1049 1863q0 -146 -87 -225.5t-246 -79.5h-8q-159 0 -246 79.5t-87 225.5l165 -2q0 -75 44 -116.5t124 -41.5h8q80 0 124 41.5t44 116.5z" />
    <glyph glyph-name="uni040D" unicode="&#x40d;" horiz-adv-x="1434" 
d="M1052 1v1143l24 -26l-729 -1117h-167v1453h202v-1160l-24 26l731 1134h165v-1453h-202zM403 1770l122 137l276 -245l-113 -118z" />
    <glyph glyph-name="uni048A" unicode="&#x48a;" horiz-adv-x="1465" 
d="M1220 67l20 -67h-51v194h256l-80 -495h-204zM1052 1v1143l24 -26l-729 -1117h-167v1453h202v-1160l-24 26l731 1134h165v-1453h-202zM1049 1863q0 -146 -87 -225.5t-246 -79.5h-8q-159 0 -246 79.5t-87 225.5l165 -2q0 -75 44 -116.5t124 -41.5h8q80 0 124 41.5t44 116.5
z" />
    <glyph glyph-name="afii10028" unicode="&#x41a;" horiz-adv-x="1314" 
d="M555 798l422 656h256l-575 -835zM554 640l179 105l561 -745h-283zM180 1454h204v-1454h-204v1454zM279 819h455v-194h-455v194z" />
    <glyph glyph-name="afii10061" unicode="&#x40c;" horiz-adv-x="1314" 
d="M555 798l422 656h256l-575 -835zM554 640l179 105l561 -745h-283zM180 1454h204v-1454h-204v1454zM279 819h455v-194h-455v194zM533 1672l276 245l132 -137l-295 -226z" />
    <glyph glyph-name="afii10029" unicode="&#x41b;" horiz-adv-x="1469" 
d="M120 194v0q88 0 142.5 40.5t80.5 126t26 222.5v871h204v-859q0 -210 -45 -340.5t-140 -192.5t-248 -62h-20v194zM1085 1454h204v-1454h-204v1454zM496 1454h697v-194h-697v194z" />
    <glyph glyph-name="afii10030" unicode="&#x41c;" horiz-adv-x="1596" 
d="M1225 1454h191v-1454h-199v1089l10 -64l-358 -823h-142l-358 803l10 84v-1089h-199v1454h191l427 -960z" />
    <glyph glyph-name="afii10031" unicode="&#x41d;" horiz-adv-x="1390" 
d="M1006 1454h204v-1454h-204v1454zM180 1454h204v-1454h-204v1454zM307 813h807v-194h-807v194z" />
    <glyph glyph-name="afii10032" unicode="&#x41e;" horiz-adv-x="1322" 
d="M393 51.5q-116 66.5 -179.5 188t-63.5 281.5v412q0 160 63.5 281.5t179.5 188t268 66.5t268 -66.5t179.5 -188t63.5 -281.5v-412q0 -160 -63.5 -281.5t-179.5 -188t-268 -66.5t-268 66.5zM819.5 226.5q68.5 40.5 106 115t37.5 172.5v426q0 98 -37.5 172.5t-106 115
t-158.5 40.5t-158.5 -40.5t-106 -115t-37.5 -172.5v-426q0 -98 37.5 -172.5t106 -115t158.5 -40.5t158.5 40.5z" />
    <glyph glyph-name="afii10033" unicode="&#x41f;" horiz-adv-x="1390" 
d="M1006 1454h204v-1454h-204v1454zM180 1454h204v-1454h-204v1454zM307 1454h807v-194h-807v194z" />
    <glyph glyph-name="afii10034" unicode="&#x420;" horiz-adv-x="1275" 
d="M285 758h465q66 0 116 31t77.5 88t27.5 131v0q0 75 -27.5 132t-77.5 88.5t-116 31.5h-465v194h458q130 0 229 -55.5t153.5 -156.5t54.5 -234v0q0 -133 -54.5 -233.5t-153.5 -155.5t-229 -55h-458v194zM180 1454h204v-1454h-204v1454z" />
    <glyph glyph-name="afii10035" unicode="&#x421;" horiz-adv-x="1267" 
d="M390.5 52q-114.5 67 -177.5 190t-63 285v399q0 162 63 285t177.5 190.5t265.5 67.5q125 0 230 -53.5t175.5 -151.5t95.5 -227v0h-209v0q-19 68 -63.5 121.5t-104.5 82.5t-124 29q-89 0 -156 -43t-104 -120.5t-37 -180.5v-399q0 -102 37 -180t104 -120.5t156 -42.5
q65 0 124.5 27t104 80t63.5 126v0h209v0q-25 -129 -96 -227t-176 -151.5t-229 -53.5q-151 0 -265.5 67z" />
    <glyph glyph-name="afii10036" unicode="&#x422;" horiz-adv-x="986" 
d="M391 1335h204v-1335h-204v1335zM-20 1454h1026v-194h-1026v194z" />
    <glyph glyph-name="afii10037" unicode="&#x423;" horiz-adv-x="1250" 
d="M60 1454h232l427 -1041l-132 -163zM795 301q-39 -106 -88.5 -175.5t-117 -105t-158.5 -35.5h-169v201h169q46 0 81.5 22t63 64.5t50.5 107.5l372 1074h222z" />
    <glyph glyph-name="afii10062" unicode="&#x40e;" horiz-adv-x="1250" 
d="M60 1454h232l427 -1041l-132 -163zM795 301q-39 -106 -88.5 -175.5t-117 -105t-158.5 -35.5h-169v201h169q46 0 81.5 22t63 64.5t50.5 107.5l372 1074h222zM982 1863q0 -146 -87 -225.5t-246 -79.5h-8q-159 0 -246 79.5t-87 225.5l165 -2q0 -75 44 -116.5t124 -41.5h8
q80 0 124 41.5t44 116.5z" />
    <glyph glyph-name="afii10038" unicode="&#x424;" horiz-adv-x="1622" 
d="M420.5 221.5q-161.5 66.5 -246 196t-84.5 314.5v40q0 185 84.5 314.5t246 196t390.5 66.5t390.5 -66.5t246 -196t84.5 -314.5v-40q0 -185 -84.5 -314.5t-246 -196t-390.5 -66.5t-390.5 66.5zM709 1504h204v-1504h-204v1504zM1200.5 437.5q137.5 101.5 137.5 294.5v40
q0 193 -137.5 294.5t-389.5 101.5t-389.5 -101.5t-137.5 -294.5v-40q0 -193 137.5 -294.5t389.5 -101.5t389.5 101.5z" />
    <glyph glyph-name="afii10039" unicode="&#x425;" horiz-adv-x="1162" 
d="M535 639l-31 50l-472 765h229l351 -592l33 -54l497 -808h-229zM526 831l365 623h229l-481 -787l-390 -667h-229z" />
    <glyph glyph-name="afii10041" unicode="&#x427;" horiz-adv-x="1282" 
d="M898 1454h204v-1454h-204v1454zM342 509q-99 54 -150.5 157.5t-51.5 249.5v538h204v-545q0 -121 67 -187t189 -66q142 0 220 71.5t78 201.5v115h64v-108q0 -152 -45 -260t-130.5 -164.5t-206.5 -56.5q-139 0 -238 54z" />
    <glyph glyph-name="afii10040" unicode="&#x426;" horiz-adv-x="1476" 
d="M1006 1454h204v-1454h-204v1454zM307 194h967v-194h-967v194zM1202 194h204v-495h-204v495zM180 1454h204v-1454h-204v1454z" />
    <glyph glyph-name="afii10042" unicode="&#x428;" horiz-adv-x="1896" 
d="M1512 1454h204v-1454h-204v1454zM298 194h1313v-194h-1313v194zM180 1454h204v-1454h-204v1454zM846 1454h204v-1454h-204v1454z" />
    <glyph glyph-name="afii10043" unicode="&#x429;" horiz-adv-x="1980" 
d="M298 194h1313v-194h-1313v194zM1512 1454h204v-1454h-204v1454zM180 1454h204v-1454h-204v1454zM846 1454h204v-1454h-204v1454zM1706 194h204v-495h-204v495z" />
    <glyph glyph-name="afii10145" unicode="&#x40f;" horiz-adv-x="1390" 
d="M1210 1454v-1454h-204v1454h204zM384 1454v-1454h-204v1454h204zM1105 194v-194h-807v194h807zM797 194v-495h-204v495h204z" />
    <glyph glyph-name="afii10046" unicode="&#x42c;" horiz-adv-x="1300" 
d="M285 194h460q70 0 119.5 28t75.5 82t26 130v0q0 77 -26 131t-75.5 82.5t-119.5 28.5h-460v194h453q138 0 236 -51t149.5 -149t51.5 -236v0q0 -137 -51.5 -234.5t-149.5 -148.5t-236 -51h-453v194zM180 1454h204v-1454h-204v1454z" />
    <glyph glyph-name="afii10044" unicode="&#x42a;" horiz-adv-x="1443" 
d="M10 1454h495v-194h-495v194zM448 194h440q70 0 119.5 28t75.5 82t26 130v0q0 77 -26 131t-75.5 82.5t-119.5 28.5h-440v194h433q138 0 236 -51t149.5 -149t51.5 -236v0q0 -137 -51.5 -234.5t-149.5 -148.5t-236 -51h-433v194zM343 1454h204v-1454h-204v1454z" />
    <glyph glyph-name="afii10045" unicode="&#x42b;" horiz-adv-x="1711" 
d="M285 194h420q70 0 119.5 28t75.5 82t26 130v0q0 77 -26 131t-75.5 82.5t-119.5 28.5h-420v194h413q138 0 236 -51t149.5 -149t51.5 -236v0q0 -137 -51.5 -234.5t-149.5 -148.5t-236 -51h-413v194zM180 1454h204v-1454h-204v1454zM1531 0h-204v1454h204v-1454z" />
    <glyph glyph-name="afii10058" unicode="&#x409;" horiz-adv-x="2085" 
d="M1110 194h420q70 0 119.5 28t75.5 82t26 130v0q0 77 -26 131t-75.5 82.5t-119.5 28.5h-420v194h413q138 0 236 -51t149.5 -149t51.5 -236v0q0 -137 -51.5 -234.5t-149.5 -148.5t-236 -51h-413v194zM120 194v0q88 0 142.5 40.5t80.5 126t26 222.5v871h204v-859
q0 -210 -45 -340.5t-140 -192.5t-248 -62h-20v194zM1085 1454h204v-1454h-204v1454zM496 1454h697v-194h-697v194z" />
    <glyph glyph-name="afii10059" unicode="&#x40a;" horiz-adv-x="2085" 
d="M1110 194h420q70 0 119.5 28t75.5 82t26 130v0q0 77 -26 131t-75.5 82.5t-119.5 28.5h-420v194h413q138 0 236 -51t149.5 -149t51.5 -236v0q0 -137 -51.5 -234.5t-149.5 -148.5t-236 -51h-413v194zM1006 1454h204v-1454h-204v1454zM180 1454h204v-1454h-204v1454z
M307 813h807v-194h-807v194z" />
    <glyph glyph-name="afii10054" unicode="&#x405;" horiz-adv-x="1261" 
d="M418 5q-94 20 -175.5 60t-152.5 100v0l127 156v0q83 -72 183 -108t217 -36q158 0 245 58.5t87 165.5v1q0 76 -39.5 120.5t-102 66t-161.5 39.5q-3 1 -6.5 1t-6.5 1l-15 3q-146 25 -237.5 56.5t-156.5 115t-65 237.5v1q0 135 60.5 230.5t176.5 145.5t279 50
q78 0 153.5 -17t149 -50.5t144.5 -84.5v0l-116 -162v0q-83 61 -165.5 91.5t-165.5 30.5q-149 0 -231.5 -59.5t-82.5 -168.5v-1q0 -75 42.5 -118t106 -63.5t176.5 -42.5q4 -1 7.5 -1.5t7.5 -1.5q5 -1 11 -2t11 -2q132 -27 220.5 -64t148 -119.5t59.5 -225.5v-2
q0 -133 -63 -227.5t-182.5 -144t-288.5 -49.5q-105 0 -199 20z" />
    <glyph glyph-name="afii10053" unicode="&#x404;" horiz-adv-x="1267" 
d="M279 819h665v-194h-665v194zM390.5 52q-114.5 67 -177.5 190t-63 285v399q0 162 63 285t177.5 190.5t265.5 67.5q125 0 230 -53.5t175.5 -151.5t95.5 -227v0h-209v0q-19 68 -63.5 121.5t-104.5 82.5t-124 29q-89 0 -156 -43t-104 -120.5t-37 -180.5v-399q0 -102 37 -180
t104 -120.5t156 -42.5q65 0 124.5 27t104 80t63.5 126v0h209v0q-25 -129 -96 -227t-176 -151.5t-229 -53.5q-151 0 -265.5 67z" />
    <glyph glyph-name="afii10047" unicode="&#x42d;" horiz-adv-x="1267" 
d="M382 38.5q-105 53.5 -176 151.5t-96 227v0h209v0q19 -73 63.5 -126t104 -80t124.5 -27q89 0 156 42.5t104 120.5t37 180v399q0 103 -37 180.5t-104 120.5t-156 43q-64 0 -124 -29t-104.5 -82.5t-63.5 -121.5v0h-209v0q25 129 95.5 227t175.5 151.5t230 53.5
q151 0 265.5 -67.5t177.5 -190.5t63 -285v-399q0 -162 -63 -285t-177.5 -190t-265.5 -67q-124 0 -229 53.5zM323 819h665v-194h-665v194z" />
    <glyph glyph-name="afii10055" unicode="&#x406;" horiz-adv-x="564" 
d="M384 0h-204v1454h204v-1454z" />
    <glyph glyph-name="afii10056" unicode="&#x407;" horiz-adv-x="564" 
d="M384 0h-204v1454h204v-1454zM385 1777h204v-204h-204v204zM-25 1777h204v-204h-204v204z" />
    <glyph glyph-name="afii10057" unicode="&#x408;" horiz-adv-x="1035" 
d="M188 32q-97 47 -158 132l167 120q28 -49 81 -76t123 -27q119 0 184.5 74t65.5 208v991h204v-992q0 -151 -53 -258t-155 -163t-246 -56q-116 0 -213 47z" />
    <glyph glyph-name="afii10060" unicode="&#x40b;" horiz-adv-x="1562" 
d="M1208 559q0 147 -69 220t-207 73q-170 0 -254 -68t-84 -205l-64 -7q0 241 110.5 361t331.5 120t330.5 -125t109.5 -376v-552h-204v559zM391 1335h204v-1335h-204v1335zM-20 1454h1026v-194h-1026v194z" />
    <glyph glyph-name="afii10048" unicode="&#x42e;" horiz-adv-x="1866" 
d="M259 819h565v-194h-565v194zM384 1h-204v1454h204v-1454zM937 51.5q-116 66.5 -179.5 188t-63.5 281.5v412q0 160 63.5 281.5t179.5 188t268 66.5t268 -66.5t179.5 -188t63.5 -281.5v-412q0 -160 -63.5 -281.5t-179.5 -188t-268 -66.5t-268 66.5zM1363.5 226.5
q68.5 40.5 106 115t37.5 172.5v426q0 98 -37.5 172.5t-106 115t-158.5 40.5t-158.5 -40.5t-106 -115t-37.5 -172.5v-426q0 -98 37.5 -172.5t106 -115t158.5 -40.5t158.5 40.5z" />
    <glyph glyph-name="afii10049" unicode="&#x42f;" horiz-adv-x="1275" 
d="M307.5 639q-95.5 54 -148.5 152.5t-53 228.5v0q0 130 52.5 228.5t148 152.5t221.5 54h478v-194h-486q-59 0 -103.5 -30t-69 -84.5t-24.5 -126.5v0q0 -72 24.5 -126.5t69.5 -84.5t103 -30h486v-194h-478q-125 0 -220.5 54zM487 676l203 -46l-353 -630h-242zM891 1455h204
v-1455h-204v1455z" />
    <glyph glyph-name="afii10051" unicode="&#x402;" horiz-adv-x="1486" 
d="M1188 836.5q102 -52.5 155 -153t53 -241.5v0q0 -140 -52 -239t-151.5 -151t-239.5 -52h-94v194h74q124 0 191.5 64.5t67.5 181.5v0q0 121 -70.5 187.5t-199.5 66.5q-157 0 -242.5 -78.5t-85.5 -221.5v-115l-64 60v108q0 140 48.5 239t141 151t222.5 52q144 0 246 -52.5z
M391 1335h204v-1335h-204v1335zM-20 1454h1026v-194h-1026v194z" />
    <glyph glyph-name="uni0460" unicode="&#x460;" horiz-adv-x="2136" 
d="M387.5 51.5q-113.5 66.5 -175.5 188t-62 281.5v412q0 160 63.5 281.5t179.5 188t268 66.5v0v-201v0q-90 0 -158.5 -40.5t-106 -115t-37.5 -172.5v-426q0 -98 37.5 -172.5t106 -115t158.5 -40.5t158.5 40.5t106 115t37.5 172.5v269h209v-262q0 -82 -22.5 -155.5
t-65.5 -134.5q-62 -117 -174.5 -181.5t-258.5 -64.5q-150 0 -263.5 66.5zM1218.5 54.5q-114.5 69.5 -175.5 193.5q-39 59 -59 128t-20 145v262h209v-269q0 -98 37.5 -172.5t106 -115t158.5 -40.5t158.5 40.5t106 115t37.5 172.5v426q0 98 -37.5 172.5t-106 115t-158.5 40.5
v0v201v0q152 0 268 -66.5t179.5 -188t63.5 -281.5v-412q0 -160 -62 -281.5t-175.5 -188t-263.5 -66.5q-152 0 -266.5 69.5z" />
    <glyph glyph-name="afii10146" unicode="&#x462;" horiz-adv-x="1290" 
d="M-60 1284h824v-194h-824v194zM275 194h460q70 0 119.5 28t75.5 82t26 130v0q0 77 -26 131t-75.5 82.5t-119.5 28.5h-460v194h453q138 0 236 -51t149.5 -149t51.5 -236v0q0 -137 -51.5 -234.5t-149.5 -148.5t-236 -51h-453v194zM170 1454h204v-1454h-204v1454z" />
    <glyph glyph-name="uni0464" unicode="&#x464;" horiz-adv-x="1691" 
d="M239 819h465v-194h-465v194zM384 0h-204v1454h204v-1454zM703 819h665v-194h-665v194zM814.5 52q-114.5 67 -177.5 190t-63 285v399q0 162 63 285t177.5 190.5t265.5 67.5q125 0 230 -53.5t175.5 -151.5t95.5 -227v0h-209v0q-19 68 -63.5 121.5t-104.5 82.5t-124 29
q-89 0 -156 -43t-104 -120.5t-37 -180.5v-399q0 -102 37 -180t104 -120.5t156 -42.5q65 0 124.5 27t104 80t63.5 126v0h209v0q-25 -129 -96 -227t-176 -151.5t-229 -53.5q-151 0 -265.5 67z" />
    <glyph glyph-name="uni0466" unicode="&#x466;" horiz-adv-x="1326" 
d="M576 1454h174l536 -1454h-220l-403 1173l-403 -1173h-220zM561 534h204v-534h-204v534zM377 679h575v-194h-575v194z" />
    <glyph glyph-name="uni0468" unicode="&#x468;" horiz-adv-x="1770" 
d="M249 680h596v-194h-596v194zM384 0h-204v1454h204v-1454zM1020 1454h174l536 -1454h-220l-403 1173l-403 -1173h-220zM1005 534h204v-534h-204v534zM821 679h575v-194h-575v194z" />
    <glyph glyph-name="uni046A" unicode="&#x46a;" horiz-adv-x="1504" 
d="M221 1454h1062v-194h-1062v194zM590 637l-549 817h266l469 -710zM1197 1454h266l-528 -784l-203 74zM151 448q37 126 97.5 206.5t137 117.5t165.5 37l30 -179q-42 0 -79 -22t-67.5 -68.5t-49.5 -117.5l-112 -422h-253zM650 734h204v-734h-204v734zM541 809h129l83 -129
l96 129h104v-179h-402zM1119 422q-19 71 -49.5 117.5t-67.5 68.5t-79 22l30 179q89 0 165.5 -37t137 -117.5t97.5 -206.5l131 -448h-253z" />
    <glyph glyph-name="uni046C" unicode="&#x46c;" horiz-adv-x="1988" 
d="M321 809h832v-179h-832v179zM384 0h-204v1454h204v-1454zM705 1454h1062v-194h-1062v194zM1074 637l-549 817h266l469 -710zM1681 1454h266l-528 -784l-203 74zM635 448q37 126 97.5 206.5t137 117.5t165.5 37l30 -179q-42 0 -79 -22t-67.5 -68.5t-49.5 -117.5l-112 -422
h-253zM1134 734h204v-734h-204v734zM1025 809h129l83 -129l96 129h104v-179h-402zM1603 422q-19 71 -49.5 117.5t-67.5 68.5t-79 22l30 179q89 0 165.5 -37t137 -117.5t97.5 -206.5l131 -448h-253z" />
    <glyph glyph-name="uni046E" unicode="&#x46e;" horiz-adv-x="1207" 
d="M438 -422q-164 0 -246 74t-82 223q0 151 82 227.5t246 76.5h130q140 0 210 59.5t70 178.5v1q0 121 -55.5 181t-167.5 60h-113v194h113q99 0 149 52.5t50 157.5v0q0 105 -57.5 157.5t-172.5 52.5q-109 0 -177.5 -45t-96.5 -136v-1h-207v1q37 189 155 283t316 94
q151 0 252 -43t151.5 -129t50.5 -215v0q0 -80 -22 -142.5t-65.5 -107.5t-108.5 -73q110 -27 165 -114.5t55 -237.5v-1q0 -141 -55 -234.5t-165 -140t-275 -46.5h-130q-61 0 -92 -28t-31 -82q0 -51 31 -76.5t92 -25.5h398v-195h-397zM297 1796l119 120l195 -150l195 150
l119 -120l-314 -244z" />
    <glyph glyph-name="uni0470" unicode="&#x470;" horiz-adv-x="1462" 
d="M422 403.5q-128 68.5 -195 198.5t-67 314v538h204v-545q0 -118 43 -201.5t125 -127.5t198 -44t199 44t126 127.5t43 201.5v545h204v-538q0 -184 -67.5 -314t-195.5 -198.5t-309 -68.5q-180 0 -308 68.5zM629 1454h204v-1454h-204v1454z" />
    <glyph glyph-name="afii10147" unicode="&#x472;" horiz-adv-x="1322" 
d="M299 819h725v-194h-725v194zM393 51.5q-116 66.5 -179.5 188t-63.5 281.5v412q0 160 63.5 281.5t179.5 188t268 66.5t268 -66.5t179.5 -188t63.5 -281.5v-412q0 -160 -63.5 -281.5t-179.5 -188t-268 -66.5t-268 66.5zM819.5 226.5q68.5 40.5 106 115t37.5 172.5v426
q0 98 -37.5 172.5t-106 115t-158.5 40.5t-158.5 -40.5t-106 -115t-37.5 -172.5v-426q0 -98 37.5 -172.5t106 -115t158.5 -40.5t158.5 40.5z" />
    <glyph glyph-name="afii10148" unicode="&#x474;" horiz-adv-x="1224" 
d="M30 1454h222l349 -1140l266 872q28 92 59.5 150.5t80.5 91.5t123 33h134v-194h-114q-26 0 -39 -18.5t-26 -60.5l-387 -1188h-194z" />
    <glyph glyph-name="uni0476" unicode="&#x476;" horiz-adv-x="1224" 
d="M182 1770l142 147l246 -245l-133 -128zM612 1770l142 147l246 -245l-133 -128zM30 1454h222l349 -1140l266 872q28 92 59.5 150.5t80.5 91.5t123 33h134v-194h-114q-26 0 -39 -18.5t-26 -60.5l-387 -1188h-194z" />
    <glyph glyph-name="uni0478" unicode="&#x478;" horiz-adv-x="2241" 
d="M393 51.5q-116 66.5 -179.5 188t-63.5 281.5v412q0 160 63.5 281.5t179.5 188t268 66.5t268 -66.5t179.5 -188t63.5 -281.5v-412q0 -160 -63.5 -281.5t-179.5 -188t-268 -66.5t-268 66.5zM819.5 226.5q68.5 40.5 106 115t37.5 172.5v426q0 98 -37.5 172.5t-106 115
t-158.5 40.5t-158.5 -40.5t-106 -115t-37.5 -172.5v-426q0 -98 37.5 -172.5t106 -115t158.5 -40.5t158.5 40.5zM2221 1038l-442 -1281q-24 -71 -63 -112.5t-96 -59.5t-140 -18h-41v196h41q57 0 90.5 23t58.5 79l384 1173h208zM1302 1038h208l319 -902l-113 -221z" />
    <glyph glyph-name="uni0492" unicode="&#x492;" horiz-adv-x="1165" 
d="M150 819h744v-194h-744v194zM370 1454h204v-1454h-204v1454zM470 1454h715v-194h-715v194z" />
    <glyph glyph-name="uni0494" unicode="&#x494;" horiz-adv-x="1346" 
d="M690 -77h19q169 0 256 98t87 283v0q0 187 -82 288.5t-232 101.5q-169 0 -261.5 -78.5t-92.5 -221.5v-115l-64 60v108q0 140 51.5 239t150 151t236.5 52q158 0 269.5 -68.5t170 -199t58.5 -315.5v0q0 -190 -61 -318.5t-182.5 -193.5t-303.5 -65h-19v194zM180 1454h204
v-1454h-204v1454zM280 1454h715v-194h-715v194z" />
    <glyph glyph-name="uni0496" unicode="&#x496;" horiz-adv-x="2042" 
d="M1223 798l402 656h256l-555 -835zM1222 640l179 105l541 -745h-283zM561 745l179 -105l-437 -640h-283zM81 1454h256l402 -656l-103 -179zM560 819h842v-194h-842v194zM879 1454h204v-1454h-204v1454zM1997 194v-495h-204v495h204zM1894 134v-134h-57v134h57z" />
    <glyph glyph-name="uni0498" unicode="&#x498;" horiz-adv-x="1208" 
d="M724 144v-445h-204v445h204zM361.5 30.5q-105.5 45.5 -170 132.5t-81.5 209v0h208v0q19 -91 97 -141t201 -50q121 0 187 61.5t66 174.5v1q0 115 -58.5 178t-164.5 63h-213v194h213q95 0 147 55t52 156v9q0 99 -59.5 149.5t-170.5 50.5q-104 0 -175.5 -47.5t-98.5 -133.5
v0h-207v0q36 180 159 278.5t312 98.5q145 0 246.5 -43t154.5 -127.5t53 -207.5v-8q0 -115 -51 -199.5t-145 -124.5q105 -25 162.5 -117t57.5 -235v-1q0 -133 -56 -227.5t-163 -144t-258 -49.5q-139 0 -244.5 45.5z" />
    <glyph glyph-name="uni049A" unicode="&#x49a;" horiz-adv-x="1374" 
d="M555 798l422 656h256l-575 -835zM554 640l179 105l561 -745h-283zM180 1454h204v-1454h-204v1454zM279 819h455v-194h-455v194zM1351 194v-495h-204v495h204zM1248 134v-134h-57v134h57z" />
    <glyph glyph-name="uni049C" unicode="&#x49c;" horiz-adv-x="1314" 
d="M180 1454h204v-1454h-204v1454zM645 798l332 656h256l-485 -835zM650 640l173 105l471 -745h-283zM279 819h545v-194h-545v194zM467 1069h144v-694h-144v694z" />
    <glyph glyph-name="uni049E" unicode="&#x49e;" horiz-adv-x="1384" 
d="M30 1284h644v-174h-644v174zM625 798l422 656h256l-575 -835zM624 640l179 105l561 -745h-283zM250 1454h204v-1454h-204v1454zM349 819h455v-194h-455v194z" />
    <glyph glyph-name="uni04A0" unicode="&#x4a0;" horiz-adv-x="1535" 
d="M-30 1260v194h535v-194h-535zM776 798l422 656h256l-575 -835zM775 640l179 105l561 -745h-283zM401 1454h204v-1454h-204v1454zM500 819h455v-194h-455v194z" />
    <glyph glyph-name="uni04A2" unicode="&#x4a2;" horiz-adv-x="1450" 
d="M1006 1454h204v-1454h-204v1454zM180 1454h204v-1454h-204v1454zM307 813h807v-194h-807v194zM1405 194v-495h-204v495h204zM1302 134v-134h-57v134h57z" />
    <glyph glyph-name="uni04A4" unicode="&#x4a4;" horiz-adv-x="1682" 
d="M1107 1454h595v-194h-595v194zM1006 1454h204v-1454h-204v1454zM180 1454h204v-1454h-204v1454zM307 813h807v-194h-807v194z" />
    <glyph glyph-name="uni04A6" unicode="&#x4a6;" horiz-adv-x="2162" 
d="M1516 -77h19q164 0 248.5 98t84.5 283v0q0 187 -81 288.5t-229 101.5q-166 0 -257 -78.5t-91 -221.5v-115l-64 60v108q0 140 51 239t148 151t233 52q156 0 267 -68.5t169 -199t58 -315.5v0q0 -190 -59.5 -318.5t-179 -193.5t-298.5 -65h-19v194zM1006 1454h204v-1454
h-204v1454zM180 1454h204v-1454h-204v1454zM307 1454h807v-194h-807v194z" />
    <glyph glyph-name="uni0524" unicode="&#x524;" horiz-adv-x="1450" 
d="M1006 1454h204v-1454h-204v1454zM180 1454h204v-1454h-204v1454zM307 1454h807v-194h-807v194zM1405 194v-495h-204v495h204zM1302 134v-134h-57v134h57z" />
    <glyph glyph-name="uni04A8" unicode="&#x4a8;" horiz-adv-x="1481" 
d="M856 45.5q-148 60.5 -222 182t-74 304.5v587q0 176 88 263t266 87q176 0 264 -87.5t88 -262.5v-587q0 -171 -65 -286.5t-194.5 -176.5t-325.5 -69v194q192 0 286.5 84t94.5 254v587q0 78 -37 117t-112 39t-112 -39t-37 -117v-587q0 -118 51 -196.5t154 -117.5t258 -39
h124v-194h-123q-224 0 -372 60.5zM394 61q-119 61 -181.5 178t-62.5 282v532q0 199 102 307.5t289 108.5v-201q-87 0 -134.5 -54t-47.5 -154v-546q0 -152 84.5 -236t237.5 -84v-194q-168 0 -287 61z" />
    <glyph glyph-name="uni04AA" unicode="&#x4aa;" horiz-adv-x="1267" 
d="M756 134v-435h-204v435h204zM390.5 52q-114.5 67 -177.5 190t-63 285v399q0 162 63 285t177.5 190.5t265.5 67.5q125 0 230 -53.5t175.5 -151.5t95.5 -227v0h-209v0q-19 68 -63.5 121.5t-104.5 82.5t-124 29q-89 0 -156 -43t-104 -120.5t-37 -180.5v-399q0 -102 37 -180
t104 -120.5t156 -42.5q65 0 124.5 27t104 80t63.5 126v0h209v0q-25 -129 -96 -227t-176 -151.5t-229 -53.5q-151 0 -265.5 67z" />
    <glyph glyph-name="uni04AC" unicode="&#x4ac;" horiz-adv-x="986" 
d="M391 1335h204v-1335h-204v1335zM-20 1454h1026v-194h-1026v194zM790 194v-495h-204v495h204zM687 134v-134h-57v134h57z" />
    <glyph glyph-name="uni04AE" unicode="&#x4ae;" horiz-adv-x="1030" 
d="M617 591v-591h-204v591l-443 863h227l318 -656l318 656h227z" />
    <glyph glyph-name="uni04B0" unicode="&#x4b0;" horiz-adv-x="1030" 
d="M173 588h684v-184h-684v184zM617 591v-591h-204v591l-443 863h227l318 -656l318 656h227z" />
    <glyph glyph-name="uni04B2" unicode="&#x4b2;" horiz-adv-x="1222" 
d="M535 639l-31 50l-472 765h229l351 -592l33 -54l497 -808h-229zM526 831l365 623h229l-481 -787l-390 -667h-229zM1224 194v-495h-204v495h204zM1121 134v-134h-57v134h57z" />
    <glyph glyph-name="uni04B4" unicode="&#x4b4;" horiz-adv-x="1576" 
d="M1107 1454h204v-1454h-204v1454zM518 194h697v-194h-697v194zM391 1335h204v-1335h-204v1335zM1302 194h204v-495h-204v495zM-20 1454h936v-194h-936v194z" />
    <glyph glyph-name="uni04B6" unicode="&#x4b6;" horiz-adv-x="1282" 
d="M898 1454h204v-1454h-204v1454zM342 509q-99 54 -150.5 157.5t-51.5 249.5v538h204v-545q0 -121 67 -187t189 -66q142 0 220 71.5t78 201.5v115h64v-108q0 -152 -45 -260t-130.5 -164.5t-206.5 -56.5q-139 0 -238 54zM1296 194v-495h-204v495h204zM1193 134v-134h-57v134
h57z" />
    <glyph glyph-name="uni04B8" unicode="&#x4b8;" horiz-adv-x="1282" 
d="M537 939h144v-694h-144v694zM898 1454h204v-1454h-204v1454zM342 509q-99 54 -150.5 157.5t-51.5 249.5v538h204v-545q0 -121 67 -187t189 -66q142 0 220 71.5t78 201.5v115h64v-108q0 -152 -45 -260t-130.5 -164.5t-206.5 -56.5q-139 0 -238 54z" />
    <glyph glyph-name="uni04BA" unicode="&#x4ba;" horiz-adv-x="1352" 
d="M998 559q0 147 -69 220t-207 73q-170 0 -254 -68t-84 -205l-64 -7q0 241 110.5 361t331.5 120t330.5 -125t109.5 -376v-552h-204v559zM180 1454h204v-1454h-204v1454z" />
    <glyph glyph-name="uni04BC" unicode="&#x4bc;" horiz-adv-x="1527" 
d="M666.5 43.5q-112.5 58.5 -171.5 169.5t-59 268v492q0 157 56.5 268t164.5 169.5t260 58.5t260 -58.5t164.5 -169.5t56.5 -268v-353h-764v194h555v156q0 142 -71 220t-201 78t-201 -78t-71 -220v-496q0 -137 76.5 -212.5t215.5 -75.5q101 0 186 41t140 117v0l144 -134v0
q-91 -107 -214 -166t-256 -59q-158 0 -270.5 58.5zM123.5 681q-63.5 61 -63.5 172v134h199v-114q0 -28 20.5 -43.5t58.5 -15.5h203v-194h-236q-118 0 -181.5 61z" />
    <glyph glyph-name="uni04BE" unicode="&#x4be;" horiz-adv-x="1527" 
d="M1024 134v-435h-204v435h204zM666.5 43.5q-112.5 58.5 -171.5 169.5t-59 268v492q0 157 56.5 268t164.5 169.5t260 58.5t260 -58.5t164.5 -169.5t56.5 -268v-353h-764v194h555v156q0 142 -71 220t-201 78t-201 -78t-71 -220v-496q0 -137 76.5 -212.5t215.5 -75.5
q101 0 186 41t140 117v0l144 -134v0q-91 -107 -214 -166t-256 -59q-158 0 -270.5 58.5zM123.5 681q-63.5 61 -63.5 172v134h199v-114q0 -28 20.5 -43.5t58.5 -15.5h203v-194h-236q-118 0 -181.5 61z" />
    <glyph glyph-name="uni04C0" unicode="&#x4c0;" horiz-adv-x="564" 
d="M384 0h-204v1454h204v-1454z" />
    <glyph glyph-name="uni04C1" unicode="&#x4c1;" horiz-adv-x="1962" 
d="M1223 798l402 656h256l-555 -835zM1222 640l179 105l541 -745h-283zM561 745l179 -105l-437 -640h-283zM81 1454h256l402 -656l-103 -179zM560 819h842v-194h-842v194zM879 1454h204v-1454h-204v1454zM1318 1863q0 -146 -87 -225.5t-246 -79.5h-8q-159 0 -246 79.5
t-87 225.5l165 -2q0 -75 44 -116.5t124 -41.5h8q80 0 124 41.5t44 116.5z" />
    <glyph glyph-name="uni04C3" unicode="&#x4c3;" horiz-adv-x="1328" 
d="M708 -227h13q160 0 236.5 106t76.5 330v0q0 139 -38.5 231.5t-116.5 138.5t-195 46h-29l-71 194h110q172 0 293.5 -67.5t186 -203.5t64.5 -337v0q0 -222 -55 -361t-169 -205t-293 -66l-13 -1v195zM180 1454h204v-1454h-204v1454zM279 819h435l-32 -194h-403v194zM525 798
l392 656h256l-525 -810z" />
    <glyph glyph-name="uni04C5" unicode="&#x4c5;" horiz-adv-x="1500" 
d="M1255 67l20 -67h-51v194h256l-80 -495h-204zM120 194v0q88 0 142.5 40.5t80.5 126t26 222.5v871h204v-859q0 -210 -45 -340.5t-140 -192.5t-248 -62h-20v194zM1085 1454h204v-1454h-204v1454zM496 1454h697v-194h-697v194z" />
    <glyph glyph-name="uni04C7" unicode="&#x4c7;" horiz-adv-x="1390" 
d="M180 1454h204v-1454h-204v1454zM833 -228h114q28 0 43.5 20.5t15.5 58.5v377h204v-375q0 -131 -63.5 -203t-179.5 -72h-134v194zM307 813h807v-194h-807v194zM1006 1454h204v-1369h-204v1369z" />
    <glyph glyph-name="uni04C9" unicode="&#x4c9;" horiz-adv-x="1421" 
d="M1176 67l20 -67h-51v194h256l-80 -495h-204zM1006 1454h204v-1454h-204v1454zM180 1454h204v-1454h-204v1454zM307 813h807v-194h-807v194z" />
    <glyph glyph-name="uni04CB" unicode="&#x4cb;" horiz-adv-x="1282" 
d="M702 194h204v-495h-204v495zM898 1454h204v-1454h-204v1454zM342 509q-99 54 -150.5 157.5t-51.5 249.5v538h204v-545q0 -121 67 -187t189 -66q142 0 220 71.5t78 201.5v115h64v-108q0 -152 -45 -260t-130.5 -164.5t-206.5 -56.5q-139 0 -238 54z" />
    <glyph glyph-name="uni04CD" unicode="&#x4cd;" horiz-adv-x="1627" 
d="M1382 67l20 -67h-51v194h256l-80 -495h-204zM1225 1454h191v-1454h-199v1089l10 -64l-358 -823h-142l-358 803l10 84v-1089h-199v1454h191l427 -960z" />
    <glyph glyph-name="uni04D0" unicode="&#x4d0;" horiz-adv-x="1326" 
d="M576 1454h174l536 -1454h-220l-403 1173l-403 -1173h-220zM287 513h765v-194h-765v194zM1000 1863q0 -146 -87 -225.5t-246 -79.5h-8q-159 0 -246 79.5t-87 225.5l165 -2q0 -75 44 -116.5t124 -41.5h8q80 0 124 41.5t44 116.5z" />
    <glyph glyph-name="uni04D2" unicode="&#x4d2;" horiz-adv-x="1326" 
d="M576 1454h174l536 -1454h-220l-403 1173l-403 -1173h-220zM287 513h765v-194h-765v194zM766 1777h204v-204h-204v204zM356 1777h204v-204h-204v204z" />
    <glyph glyph-name="uni04D4" unicode="&#x4d4;" horiz-adv-x="2000" 
d="M806 1454h221l-800 -1454h-227zM355 511h705v-194h-705v194zM956 1454h204v-1454h-204v1454zM1055 194h835v-194h-835v194zM1055 819h725v-194h-725v194zM1055 1454h835v-194h-835v194z" />
    <glyph glyph-name="uni04D6" unicode="&#x4d6;" horiz-adv-x="1224" 
d="M180 1454h204v-1454h-204v1454zM279 194h835v-194h-835v194zM279 819h725v-194h-725v194zM279 1454h835v-194h-835v194zM1002 1863q0 -146 -87 -225.5t-246 -79.5h-8q-159 0 -246 79.5t-87 225.5l165 -2q0 -75 44 -116.5t124 -41.5h8q80 0 124 41.5t44 116.5z" />
    <glyph glyph-name="uni04D8" unicode="&#x4d8;" horiz-adv-x="1281" 
d="M390 43.5q-108 58.5 -164.5 169.5t-56.5 268v313h814v-194h-605v-116q0 -142 71 -220t201 -78t201 78t71 220v496q0 137 -76.5 212.5t-215.5 75.5q-101 0 -186 -44t-140 -124v0l-144 144v0q91 107 214 166t256 59q158 0 270.5 -58.5t171.5 -169.5t59 -268v-492
q0 -157 -56.5 -268t-164.5 -169.5t-260 -58.5t-260 58.5z" />
    <glyph glyph-name="uni04DA" unicode="&#x4da;" horiz-adv-x="1281" 
d="M390 43.5q-108 58.5 -164.5 169.5t-56.5 268v313h814v-194h-605v-116q0 -142 71 -220t201 -78t201 78t71 220v496q0 137 -76.5 212.5t-215.5 75.5q-101 0 -186 -44t-140 -124v0l-144 144v0q91 107 214 166t256 59q158 0 270.5 -58.5t171.5 -169.5t59 -268v-492
q0 -157 -56.5 -268t-164.5 -169.5t-260 -58.5t-260 58.5zM769 1777h204v-204h-204v204zM359 1777h204v-204h-204v204z" />
    <glyph glyph-name="uni04DC" unicode="&#x4dc;" horiz-adv-x="1962" 
d="M1223 798l402 656h256l-555 -835zM1222 640l179 105l541 -745h-283zM561 745l179 -105l-437 -640h-283zM81 1454h256l402 -656l-103 -179zM560 819h842v-194h-842v194zM879 1454h204v-1454h-204v1454zM1084 1777h204v-204h-204v204zM674 1777h204v-204h-204v204z" />
    <glyph glyph-name="uni04DE" unicode="&#x4de;" horiz-adv-x="1208" 
d="M361.5 30.5q-105.5 45.5 -170 132.5t-81.5 209v0h208v0q19 -91 97 -141t201 -50q121 0 187 61.5t66 174.5v1q0 115 -58.5 178t-164.5 63h-213v194h213q95 0 147 55t52 156v9q0 99 -59.5 149.5t-170.5 50.5q-104 0 -175.5 -47.5t-98.5 -133.5v0h-207v0q24 119 87 204
t161 129t223 44q145 0 246.5 -43t154.5 -127.5t53 -207.5v-8q0 -115 -51 -199.5t-145 -124.5q105 -25 162.5 -117t57.5 -235v-1q0 -133 -56 -227.5t-163 -144t-258 -49.5q-139 0 -244.5 45.5zM725 1777h204v-204h-204v204zM315 1777h204v-204h-204v204z" />
    <glyph glyph-name="uni04E0" unicode="&#x4e0;" horiz-adv-x="1208" 
d="M354.5 28q-103.5 43 -164.5 128.5t-80 215.5v1h208v-1q19 -96 93.5 -143.5t204.5 -47.5q127 0 190 60t63 181v1q0 128 -68 192t-205 64h-169v152l169 42q163 0 271 -49.5t162 -148.5t54 -248v-1q0 -148 -53 -245.5t-158.5 -146.5t-265.5 -49q-148 0 -251.5 43zM792 1260
h-590v194h836v-176l-388 -485l-223 38z" />
    <glyph glyph-name="uni04E2" unicode="&#x4e2;" horiz-adv-x="1434" 
d="M1052 1v1143l24 -26l-729 -1117h-167v1453h202v-1160l-24 26l731 1134h165v-1453h-202zM1077 1773v-200h-730v200h730z" />
    <glyph glyph-name="uni04E4" unicode="&#x4e4;" horiz-adv-x="1434" 
d="M1052 1v1143l24 -26l-729 -1117h-167v1453h202v-1160l-24 26l731 1134h165v-1453h-202zM815 1777h204v-204h-204v204zM405 1777h204v-204h-204v204z" />
    <glyph glyph-name="uni04E6" unicode="&#x4e6;" horiz-adv-x="1322" 
d="M393 51.5q-116 66.5 -179.5 188t-63.5 281.5v412q0 160 63.5 281.5t179.5 188t268 66.5t268 -66.5t179.5 -188t63.5 -281.5v-412q0 -160 -63.5 -281.5t-179.5 -188t-268 -66.5t-268 66.5zM819.5 226.5q68.5 40.5 106 115t37.5 172.5v426q0 98 -37.5 172.5t-106 115
t-158.5 40.5t-158.5 -40.5t-106 -115t-37.5 -172.5v-426q0 -98 37.5 -172.5t106 -115t158.5 -40.5t158.5 40.5zM764 1777h204v-204h-204v204zM354 1777h204v-204h-204v204z" />
    <glyph glyph-name="uni04E8" unicode="&#x4e8;" horiz-adv-x="1322" 
d="M299 819h725v-194h-725v194zM393 51.5q-116 66.5 -179.5 188t-63.5 281.5v412q0 160 63.5 281.5t179.5 188t268 66.5t268 -66.5t179.5 -188t63.5 -281.5v-412q0 -160 -63.5 -281.5t-179.5 -188t-268 -66.5t-268 66.5zM819.5 226.5q68.5 40.5 106 115t37.5 172.5v426
q0 98 -37.5 172.5t-106 115t-158.5 40.5t-158.5 -40.5t-106 -115t-37.5 -172.5v-426q0 -98 37.5 -172.5t106 -115t158.5 -40.5t158.5 40.5z" />
    <glyph glyph-name="uni04EA" unicode="&#x4ea;" horiz-adv-x="1322" 
d="M299 819h725v-194h-725v194zM393 51.5q-116 66.5 -179.5 188t-63.5 281.5v412q0 160 63.5 281.5t179.5 188t268 66.5t268 -66.5t179.5 -188t63.5 -281.5v-412q0 -160 -63.5 -281.5t-179.5 -188t-268 -66.5t-268 66.5zM819.5 226.5q68.5 40.5 106 115t37.5 172.5v426
q0 98 -37.5 172.5t-106 115t-158.5 40.5t-158.5 -40.5t-106 -115t-37.5 -172.5v-426q0 -98 37.5 -172.5t106 -115t158.5 -40.5t158.5 40.5zM764 1777h204v-204h-204v204zM354 1777h204v-204h-204v204z" />
    <glyph glyph-name="uni04EC" unicode="&#x4ec;" horiz-adv-x="1267" 
d="M382 38.5q-105 53.5 -176 151.5t-96 227v0h209v0q19 -73 63.5 -126t104 -80t124.5 -27q89 0 156 42.5t104 120.5t37 180v399q0 103 -37 180.5t-104 120.5t-156 43q-64 0 -124 -29t-104.5 -82.5t-63.5 -121.5v0h-209v0q25 129 95.5 227t175.5 151.5t230 53.5
q151 0 265.5 -67.5t177.5 -190.5t63 -285v-399q0 -162 -63 -285t-177.5 -190t-265.5 -67q-124 0 -229 53.5zM323 819h665v-194h-665v194zM712 1777h204v-204h-204v204zM302 1777h204v-204h-204v204z" />
    <glyph glyph-name="uni04EE" unicode="&#x4ee;" horiz-adv-x="1250" 
d="M60 1454h232l427 -1041l-132 -163zM795 301q-39 -106 -88.5 -175.5t-117 -105t-158.5 -35.5h-169v201h169q46 0 81.5 22t63 64.5t50.5 107.5l372 1074h222zM1010 1773v-200h-730v200h730z" />
    <glyph glyph-name="uni04F0" unicode="&#x4f0;" horiz-adv-x="1250" 
d="M60 1454h232l427 -1041l-132 -163zM795 301q-39 -106 -88.5 -175.5t-117 -105t-158.5 -35.5h-169v201h169q46 0 81.5 22t63 64.5t50.5 107.5l372 1074h222zM748 1777h204v-204h-204v204zM338 1777h204v-204h-204v204z" />
    <glyph glyph-name="uni04F2" unicode="&#x4f2;" horiz-adv-x="1250" 
d="M60 1454h232l427 -1041l-132 -163zM795 301q-39 -106 -88.5 -175.5t-117 -105t-158.5 -35.5h-169v201h169q46 0 81.5 22t63 64.5t50.5 107.5l372 1074h222zM721 1662l226 255l142 -137l-245 -236zM321 1662l226 255l142 -137l-245 -236z" />
    <glyph glyph-name="uni04F4" unicode="&#x4f4;" horiz-adv-x="1282" 
d="M898 1454h204v-1454h-204v1454zM342 509q-99 54 -150.5 157.5t-51.5 249.5v538h204v-545q0 -121 67 -187t189 -66q142 0 220 71.5t78 201.5v115h64v-108q0 -152 -45 -260t-130.5 -164.5t-206.5 -56.5q-139 0 -238 54zM724 1777h204v-204h-204v204zM314 1777h204v-204
h-204v204z" />
    <glyph glyph-name="uni04F6" unicode="&#x4f6;" horiz-adv-x="975" 
d="M180 1454h204v-1454h-204v1454zM280 1454h715v-194h-715v194zM578 194v-495h-204v495h204zM475 134v-134h-57v134h57z" />
    <glyph glyph-name="uni04F8" unicode="&#x4f8;" horiz-adv-x="1711" 
d="M285 194h420q70 0 119.5 28t75.5 82t26 130v0q0 77 -26 131t-75.5 82.5t-119.5 28.5h-420v194h413q138 0 236 -51t149.5 -149t51.5 -236v0q0 -137 -51.5 -234.5t-149.5 -148.5t-236 -51h-413v194zM180 1454h204v-1454h-204v1454zM1531 0h-204v1454h204v-1454zM960 1777
h204v-204h-204v204zM550 1777h204v-204h-204v204z" />
    <glyph glyph-name="uni04FA" unicode="&#x4fa;" horiz-adv-x="1165" 
d="M370 -92h114q28 0 43.5 20.5t15.5 58.5v147h204v-145q0 -131 -63.5 -203t-179.5 -72h-134v194zM150 819h744v-194h-744v194zM370 1454h204v-1454h-204v1454zM470 1454h715v-194h-715v194z" />
    <glyph glyph-name="uni04FC" unicode="&#x4fc;" horiz-adv-x="1140" 
d="M816 -228q40 0 63.5 9.5t34 30t10.5 55.5q0 44 -23 107t-70.5 153t-130.5 231l-165 281l-28 46l-475 769h229l351 -592l33 -54l209 -331q96 -153 152.5 -259.5t84 -192.5t27.5 -163q0 -105 -29.5 -166.5t-95 -89.5t-177.5 -28v194zM526 831l365 623h229l-481 -787
l-390 -667h-229z" />
    <glyph glyph-name="uni04FE" unicode="&#x4fe;" horiz-adv-x="1162" 
d="M129 824h904v-174h-904v174zM535 639l-31 50l-472 765h229l351 -592l33 -54l497 -808h-229zM526 831l365 623h229l-481 -787l-390 -667h-229z" />
    <glyph glyph-name="uni0480" unicode="&#x480;" horiz-adv-x="1327" 
d="M418.5 361q-131.5 66 -200 192t-68.5 304v19q0 188 66.5 321t193.5 202.5t306 69.5q132 0 235.5 -50.5t171.5 -147.5t94 -234v0h-209v0q-20 74 -61 126t-99.5 79.5t-131.5 27.5q-170 0 -263.5 -103t-93.5 -291v-19q0 -173 98.5 -268t278.5 -95v-199q-186 0 -317.5 66z
M632 494h204v-494h-204v494z" />
    <glyph glyph-name="uni048C" unicode="&#x48c;" horiz-adv-x="1360" 
d="M60 1284h694v-184h-694v184zM345 194h460q70 0 119.5 28t75.5 82t26 130v0q0 77 -26 131t-75.5 82.5t-119.5 28.5h-460v194h453q138 0 236 -51t149.5 -149t51.5 -236v0q0 -137 -51.5 -234.5t-149.5 -148.5t-236 -51h-453v194zM240 1454h204v-1454h-204v1454z" />
    <glyph glyph-name="uni048E" unicode="&#x48e;" horiz-adv-x="1275" 
d="M593 906l142 96l386 -571l-143 -97zM285 758h465q66 0 116 31t77.5 88t27.5 131v0q0 75 -27.5 132t-77.5 88.5t-116 31.5h-465v194h458q130 0 229 -55.5t153.5 -156.5t54.5 -234v0q0 -133 -54.5 -233.5t-153.5 -155.5t-229 -55h-458v194zM180 1454h204v-1454h-204v1454z
" />
    <glyph glyph-name="afii10065" unicode="&#x430;" horiz-adv-x="1090" 
d="M746 658q0 102 -54.5 158.5t-154.5 56.5q-62 0 -121.5 -19t-105.5 -53l-149 102q59 71 155.5 110.5t214.5 39.5q129 0 221 -45.5t140 -132t48 -208.5v-667h-194v658zM205 64.5q-95 79.5 -95 241.5q0 154 87 231t263 77h295l14 -164h-308q-80 0 -119.5 -35.5t-39.5 -108.5
q0 -79 52.5 -117t159.5 -38q117 0 174.5 25t57.5 78l21 -146q-27 -42 -66.5 -69t-91.5 -40.5t-117 -13.5q-192 0 -287 79.5z" />
    <glyph glyph-name="afii10066" unicode="&#x431;" horiz-adv-x="1146" 
d="M357 38q-96 53 -146.5 154.5t-50.5 244.5v129l144 211q24 116 105.5 176t218.5 60q122 0 209.5 -52.5t133 -153t45.5 -241.5v-132q0 -142 -50.5 -242.5t-146.5 -153.5t-231 -53t-231 53zM753 245.5q59 66.5 59 188.5v132q0 121 -59 187t-166 66q-106 0 -164.5 -66
t-58.5 -187v-132q0 -122 58.5 -188.5t164.5 -66.5q107 0 166 66.5zM160 938q0 141 49.5 234.5t148.5 140t248 48.5q57 1 95 11.5t57 31t19 50.5h189q0 -89 -38 -148.5t-114 -89t-191 -29.5q-90 0 -149.5 -25.5t-89.5 -76t-30 -127.5v-404h-194v384z" />
    <glyph glyph-name="afii10067" unicode="&#x432;" horiz-adv-x="1107" 
d="M280 184h384q61 0 94 34t33 96v3q0 65 -33 101t-94 36h-384v184h384q52 0 80 26t28 74v0q0 55 -28 85.5t-78 30.5h-386v184h393q145 0 225 -67.5t80 -190.5v0q0 -95 -59 -156.5t-166 -78.5q116 -22 180 -94.5t64 -181.5v-3q0 -127 -85.5 -196.5t-241.5 -69.5h-390v184z
M160 1038h203v-1038h-203v1038z" />
    <glyph glyph-name="afii10068" unicode="&#x433;" horiz-adv-x="875" 
d="M160 1038h204v-1038h-204v1038zM260 1038h565v-194h-565v194z" />
    <glyph glyph-name="afii10100" unicode="&#x453;" horiz-adv-x="875" 
d="M160 1038h204v-1038h-204v1038zM260 1038h565v-194h-565v194zM392 1341l286 355l147 -122l-305 -336z" />
    <glyph glyph-name="afii10098" unicode="&#x491;" horiz-adv-x="875" 
d="M621 1218h204v-328h-204v328zM160 1038h204v-1038h-204v1038zM260 1038h565v-194h-565v194z" />
    <glyph glyph-name="afii10069" unicode="&#x434;" horiz-adv-x="1290" 
d="M127 184h24q62 0 94 34t43.5 103.5t11.5 191.5v525h204v-593q0 -180 -73.5 -272.5t-209.5 -92.5h-24zM90 184h204v-445h-204v445zM90 184h999v-184h-999v184zM1006 184h204v-445h-204v445zM821 1038h204v-1038h-204v1038zM427 1038h462v-184h-462v184z" />
    <glyph glyph-name="afii10070" unicode="&#x435;" horiz-adv-x="1098" 
d="M339 39q-102 54 -155.5 158.5t-53.5 252.5v117q0 154 51.5 263t149.5 166t236 57q130 0 222 -65t140.5 -188t48.5 -295v-68h-700v164h506v0q-9 127 -65.5 197.5t-151.5 70.5q-116 0 -179.5 -76t-63.5 -215v-132q0 -129 68 -198t193 -69q62 0 123 25t109 70v0l134 -134v0
q-77 -74 -173 -114.5t-193 -40.5q-144 0 -246 54z" />
    <glyph glyph-name="uni0450" unicode="&#x450;" horiz-adv-x="1098" 
d="M339 39q-102 54 -155.5 158.5t-53.5 252.5v117q0 154 51.5 263t149.5 166t236 57q130 0 222 -65t140.5 -188t48.5 -295v-68h-700v164h506v0q-9 127 -65.5 197.5t-151.5 70.5q-116 0 -179.5 -76t-63.5 -215v-132q0 -129 68 -198t193 -69q62 0 123 25t109 70v0l134 -134v0
q-77 -74 -173 -114.5t-193 -40.5q-144 0 -246 54zM226 1574l147 122l286 -355l-128 -103z" />
    <glyph glyph-name="afii10071" unicode="&#x451;" horiz-adv-x="1098" 
d="M339 39q-102 54 -155.5 158.5t-53.5 252.5v117q0 154 51.5 263t149.5 166t236 57q130 0 222 -65t140.5 -188t48.5 -295v-68h-700v164h506v0q-9 127 -65.5 197.5t-151.5 70.5q-116 0 -179.5 -76t-63.5 -215v-132q0 -129 68 -198t193 -69q62 0 123 25t109 70v0l134 -134v0
q-77 -74 -173 -114.5t-193 -40.5q-144 0 -246 54zM663 1454h204v-204h-204v204zM243 1454h204v-204h-204v204z" />
    <glyph glyph-name="afii10072" unicode="&#x436;" horiz-adv-x="1464" 
d="M924 448l149 105l391 -553h-263zM391 553l149 -105l-277 -448h-263zM61 1038h236l252 -432l-83 -179zM630 1038h204v-1038h-204v1038zM390 622h684v-184h-684v184zM915 606l252 432h236l-405 -611z" />
    <glyph glyph-name="afii10073" unicode="&#x437;" horiz-adv-x="974" 
d="M293.5 21q-82.5 36 -133 105.5t-64.5 166.5v0h198v0q11 -58 60.5 -90t127.5 -32q87 0 135 38t48 108v1q0 54 -34.5 84t-98.5 30h-163v174h163q47 0 73 31t26 87v1q0 68 -42 105t-118 37q-71 0 -119 -32t-65 -90v0h-197v0q29 147 131 227.5t259 80.5q169 0 262 -73
t93 -206v-1q0 -85 -41 -147t-115 -91q91 -13 140.5 -72.5t49.5 -155.5v-1q0 -153 -100.5 -237t-283.5 -84q-109 0 -191.5 36z" />
    <glyph glyph-name="afii10074" unicode="&#x438;" horiz-adv-x="1174" 
d="M812 1v737l24 -26l-499 -711h-177v1037h202v-754l-24 26l501 728h175v-1037h-202z" />
    <glyph glyph-name="afii10075" unicode="&#x439;" horiz-adv-x="1174" 
d="M812 1v737l24 -26l-499 -711h-177v1037h202v-754l-24 26l501 728h175v-1037h-202zM354.5 1324.5q-74.5 89.5 -74.5 268.5v0h164v0q0 -100 33.5 -149.5t100.5 -49.5h18q67 0 100.5 49.5t33.5 149.5v0h164v0q0 -179 -74.5 -268.5t-223.5 -89.5h-18q-149 0 -223.5 89.5z" />
    <glyph glyph-name="uni045D" unicode="&#x45d;" horiz-adv-x="1174" 
d="M812 1v737l24 -26l-499 -711h-177v1037h202v-754l-24 26l501 728h175v-1037h-202zM258 1574l147 122l286 -355l-128 -103z" />
    <glyph glyph-name="uni048B" unicode="&#x48b;" horiz-adv-x="1214" 
d="M1194 194l-80 -455h-204l47 265l33 190h204zM812 1v737l24 -26l-499 -711h-177v1037h202v-754l-24 26l501 728h175v-1037h-202zM354.5 1324.5q-74.5 89.5 -74.5 268.5v0h164v0q0 -100 33.5 -149.5t100.5 -49.5h18q67 0 100.5 49.5t33.5 149.5v0h164v0
q0 -179 -74.5 -268.5t-223.5 -89.5h-18q-149 0 -223.5 89.5z" />
    <glyph glyph-name="afii10076" unicode="&#x43a;" horiz-adv-x="1054" 
d="M465 596l282 442h246l-435 -621zM160 1038h204v-1038h-204v1038zM474 438l159 105l421 -543h-273zM259 617h375v-194h-375v194z" />
    <glyph glyph-name="afii10109" unicode="&#x45c;" horiz-adv-x="1054" 
d="M465 596l282 442h246l-435 -621zM160 1038h204v-1038h-204v1038zM474 438l159 105l421 -543h-273zM259 617h375v-194h-375v194zM416 1341l286 355l147 -122l-305 -336z" />
    <glyph glyph-name="afii10077" unicode="&#x43b;" horiz-adv-x="1151" 
d="M90 185q80 0 124.5 73t44.5 206v574h204v-602q0 -141 -41.5 -241t-120.5 -152t-191 -52h-20v194zM787 1038h204v-1038h-204v1038zM386 1038h509v-194h-509v194z" />
    <glyph glyph-name="afii10078" unicode="&#x43c;" horiz-adv-x="1296" 
d="M955 1038h181v-1038h-184v733l10 -64l-253 -467h-122l-253 467l10 64v-733h-184v1038h181l307 -574z" />
    <glyph glyph-name="afii10079" unicode="&#x43d;" horiz-adv-x="1180" 
d="M816 1038h204v-1038h-204v1038zM160 1038h204v-1038h-204v1038zM287 602h637v-184h-637v184z" />
    <glyph glyph-name="afii10080" unicode="&#x43e;" horiz-adv-x="1116" 
d="M327 38q-96 53 -146.5 154.5t-50.5 244.5v169q0 141 50.5 241.5t146.5 153t231 52.5t231 -52.5t146.5 -153t50.5 -241.5v-172q0 -142 -50.5 -242.5t-146.5 -153.5t-231 -53t-231 53zM723.5 246q58.5 67 58.5 188v172q0 121 -58.5 187t-165.5 66t-165.5 -66t-58.5 -187
v-172q0 -121 58.5 -188t165.5 -67t165.5 67z" />
    <glyph glyph-name="afii10081" unicode="&#x43f;" horiz-adv-x="1180" 
d="M816 1038h204v-1038h-204v1038zM160 1038h204v-1038h-204v1038zM287 1038h637v-194h-637v194z" />
    <glyph glyph-name="afii10082" unicode="&#x440;" horiz-adv-x="1114" 
d="M160 1038h204v-1460h-204v1460zM456 31.5q-72 46.5 -106 131.5l14 217q0 -67 24 -114t69.5 -72t110.5 -25q101 0 156.5 61.5t55.5 173.5v225q0 114 -55.5 177t-156.5 63q-65 0 -110.5 -24t-69.5 -70.5t-24 -111.5l-21 200q47 91 123 140.5t169 49.5q110 0 188.5 -49.5
t119.5 -144.5t41 -229v-226q0 -132 -42 -226t-123 -143.5t-194 -49.5q-97 0 -169 46.5z" />
    <glyph glyph-name="afii10083" unicode="&#x441;" horiz-adv-x="1020" 
d="M336.5 38q-100.5 53 -153.5 154t-53 244v171q0 141 53 241t153.5 152.5t242.5 52.5q81 0 152.5 -19.5t128.5 -56.5t95 -90v0l-147 -132v0q-44 50 -103 77t-123 27q-118 0 -183 -66t-65 -186v-171q0 -123 64.5 -190t183.5 -67q65 0 124 29t102 82v0l147 -142v0
q-39 -52 -96 -88.5t-128.5 -55.5t-151.5 -19q-142 0 -242.5 53z" />
    <glyph glyph-name="afii10084" unicode="&#x442;" horiz-adv-x="1026" 
d="M411 929h204v-929h-204v929zM110 1038h806v-184h-806v184z" />
    <glyph glyph-name="afii10085" unicode="&#x443;" horiz-adv-x="989" 
d="M969 1038l-442 -1281q-24 -71 -63 -112.5t-96 -59.5t-140 -18h-41v196h41q57 0 90.5 23t58.5 79l384 1173h208zM50 1038h208l319 -902l-113 -221z" />
    <glyph glyph-name="afii10110" unicode="&#x45e;" horiz-adv-x="989" 
d="M969 1038l-442 -1281q-24 -71 -63 -112.5t-96 -59.5t-140 -18h-41v196h41q57 0 90.5 23t58.5 79l384 1173h208zM50 1038h208l319 -902l-113 -221zM287.5 1324.5q-74.5 89.5 -74.5 268.5v0h164v0q0 -100 33.5 -149.5t100.5 -49.5h18q67 0 100.5 49.5t33.5 149.5v0h164v0
q0 -179 -74.5 -268.5t-223.5 -89.5h-18q-149 0 -223.5 89.5z" />
    <glyph glyph-name="afii10086" unicode="&#x444;" horiz-adv-x="1467" 
d="M840 102.5q-69 102.5 -69 289.5v259q0 184 69 285.5t194 101.5q145 0 224 -101t79 -286v-262q0 -185 -79 -287t-224 -102q-125 0 -194 102.5zM209 102q-79 102 -79 287v262q0 185 79 286t224 101q125 0 194 -101.5t69 -285.5v-259q0 -187 -69 -289.5t-194 -102.5
q-145 0 -224 102zM590.5 245q41.5 51 41.5 144v262q0 92 -41.5 142.5t-116.5 50.5q-67 0 -103.5 -50.5t-36.5 -142.5v-262q0 -93 36.5 -144t103.5 -51q75 0 116.5 51zM631 1339h204v-1640h-204v1640zM1096.5 245q36.5 51 36.5 144v262q0 92 -36.5 142.5t-103.5 50.5
q-75 0 -116.5 -50.5t-41.5 -142.5v-262q0 -93 41.5 -144t116.5 -51q67 0 103.5 51z" />
    <glyph glyph-name="afii10087" unicode="&#x445;" horiz-adv-x="1059" 
d="M458 472l-382 566h227l298 -465l393 -573h-226zM452 573l98 -188l-264 -385h-226zM524 670l227 368h227l-368 -560z" />
    <glyph glyph-name="afii10089" unicode="&#x447;" horiz-adv-x="1152" 
d="M788 1038h204v-1038h-204v1038zM324.5 373.5q-85.5 48.5 -130 140.5t-44.5 222v302h204v-309q0 -97 48.5 -150t137.5 -53q118 0 183 58t65 165v105h64v-98q0 -206 -84 -318.5t-238 -112.5q-120 0 -205.5 48.5z" />
    <glyph glyph-name="afii10088" unicode="&#x446;" horiz-adv-x="1256" 
d="M786 1038h204v-1038h-204v1038zM287 184h607v-184h-607v184zM160 1038h204v-1038h-204v1038zM972 184h204v-445h-204v445z" />
    <glyph glyph-name="afii10090" unicode="&#x448;" horiz-adv-x="1576" 
d="M287 194h1033v-194h-1033v194zM1212 1038h204v-1038h-204v1038zM160 1038h204v-1038h-204v1038zM686 1038h204v-1038h-204v1038z" />
    <glyph glyph-name="afii10091" unicode="&#x449;" horiz-adv-x="1682" 
d="M287 184h1033v-184h-1033v184zM686 1038h204v-1038h-204v1038zM160 1038h204v-1038h-204v1038zM1398 184h204v-445h-204v445zM1212 1038h204v-1038h-204v1038z" />
    <glyph glyph-name="afii10193" unicode="&#x45f;" horiz-adv-x="1150" 
d="M786 1038h204v-1038h-204v1038zM482 194h204v-455h-204v455zM287 194h607v-194h-607v194zM160 1038h204v-1038h-204v1038z" />
    <glyph glyph-name="afii10094" unicode="&#x44c;" horiz-adv-x="1084" 
d="M259 194h366q62 0 99.5 39t37.5 103v0q0 43 -17 75t-48 50t-72 18h-366v194h358q107 0 189 -42t127.5 -118t45.5 -177v0q0 -100 -45 -176t-127 -118t-190 -42h-358v194zM160 1038h204v-1038h-204v1038z" />
    <glyph glyph-name="afii10092" unicode="&#x44a;" horiz-adv-x="1255" 
d="M80 1038h315v-194h-315v194zM450 194h346q62 0 99.5 39t37.5 103v0q0 43 -17 75t-48 50t-72 18h-346v194h338q107 0 189 -42t127.5 -118t45.5 -177v0q0 -100 -45 -176t-127 -118t-190 -42h-338v194zM351 1038h204v-1038h-204v1038z" />
    <glyph glyph-name="afii10093" unicode="&#x44b;" horiz-adv-x="1434" 
d="M1080 1038h204v-1038h-204v1038zM259 194h316q62 0 99.5 39t37.5 103v0q0 43 -17 75t-48 50t-72 18h-316v194h308q107 0 189 -42t127.5 -118t45.5 -177v0q0 -100 -45 -176t-127 -118t-190 -42h-308v194zM160 1038h204v-1038h-204v1038z" />
    <glyph glyph-name="afii10106" unicode="&#x459;" horiz-adv-x="1651" 
d="M876 194h316q62 0 99.5 39t37.5 103v0q0 43 -17 75t-48 50t-72 18h-316v194h308q107 0 189 -42t127.5 -118t45.5 -177v0q0 -100 -45 -176t-127 -118t-190 -42h-308v194zM90 185q80 0 124.5 73t44.5 206v574h204v-602q0 -141 -41.5 -241t-120.5 -152t-191 -52h-20v194z
M787 1038h204v-1038h-204v1038zM386 1038h509v-194h-509v194z" />
    <glyph glyph-name="afii10107" unicode="&#x45a;" horiz-adv-x="1691" 
d="M876 194h356q62 0 99.5 39t37.5 103v0q0 43 -17 75t-48 50t-72 18h-356v194h348q107 0 189 -42t127.5 -118t45.5 -177v0q0 -100 -45 -176t-127 -118t-190 -42h-348v194zM816 1038h204v-1038h-204v1038zM160 1038h204v-1038h-204v1038zM287 602h637v-184h-637v184z" />
    <glyph glyph-name="afii10102" unicode="&#x455;" horiz-adv-x="1062" 
d="M354.5 3q-80.5 18 -150.5 54t-129 90v0l121 149v0q84 -64 167 -96t164 -32q121 0 181.5 37.5t60.5 112.5q0 50 -33 75t-82 33.5t-138 15.5q-8 0 -17 0.5t-17 1.5q-4 0 -8 0.5t-8 0.5q-101 8 -171 29.5t-116.5 80.5t-46.5 169t45 183t134 109.5t223 36.5q81 0 154.5 -15
t140.5 -44.5t129 -74.5v0l-123 -149v0q-78 50 -153.5 75t-147.5 25q-104 0 -156 -35.5t-52 -106.5q0 -42 29.5 -63t74.5 -28t128 -12q6 -1 12.5 -1t13.5 -1h6t6 -1q109 -7 185.5 -29t128.5 -87t52 -188q0 -112 -48 -185.5t-144.5 -110.5t-242.5 -37q-92 0 -172.5 18z" />
    <glyph glyph-name="afii10101" unicode="&#x454;" horiz-adv-x="1020" 
d="M279 606h505v-174h-505v174zM336.5 38q-100.5 53 -153.5 154t-53 244v171q0 141 53 241t153.5 152.5t242.5 52.5q81 0 152.5 -19.5t128.5 -56.5t95 -90v0l-147 -132v0q-44 50 -103 77t-123 27q-118 0 -183 -66t-65 -186v-171q0 -123 64.5 -190t183.5 -67q65 0 124 29
t102 82v0l147 -142v0q-39 -52 -96 -88.5t-128.5 -55.5t-151.5 -19q-142 0 -242.5 53z" />
    <glyph glyph-name="afii10095" unicode="&#x44d;" horiz-adv-x="1020" 
d="M236 432v174h505v-174h-505zM289.5 4q-71.5 19 -128.5 55.5t-96 88.5v0l147 132v0q43 -53 102 -82t124 -29q118 0 183 69.5t65 197.5v171q0 120 -65 186t-183 66q-64 0 -123 -27t-103 -77v0l-147 132v0q38 53 95 90t128.5 56.5t152.5 19.5q142 0 242.5 -52.5
t153.5 -152.5t53 -241v-171q0 -143 -53 -244t-153.5 -154t-242.5 -53q-80 0 -151.5 19z" />
    <glyph glyph-name="afii10103" unicode="&#x456;" horiz-adv-x="514" 
d="M160 1454h204v-204h-204v204zM160 1038h204v-1038h-204v1038z" />
    <glyph glyph-name="afii10104" unicode="&#x457;" horiz-adv-x="514" 
d="M160 1038h204v-1038h-204v1038zM370 1454h204v-204h-204v204zM-50 1454h204v-204h-204v204z" />
    <glyph glyph-name="afii10105" unicode="&#x458;" horiz-adv-x="549" 
d="M20 -228h114q28 0 43.5 20.5t15.5 58.5v1187h204v-1185q0 -131 -63.5 -203t-179.5 -72h-134v194zM191 1454h208v-204h-208v204z" />
    <glyph glyph-name="afii10108" unicode="&#x45b;" horiz-adv-x="1164" 
d="M-20 1244h824v-174h-824v174zM180 1454h204v-1454h-204v1454zM810 509q0 110 -57 170t-160 60q-100 0 -154.5 -52t-54.5 -147l-21 200q48 92 125.5 142.5t171.5 50.5q169 0 261.5 -110.5t92.5 -312.5v-510h-204v509z" />
    <glyph glyph-name="afii10096" unicode="&#x44e;" horiz-adv-x="1590" 
d="M279 606h445v-174h-445v174zM160 1038h204v-1038h-204v1038zM801 38q-96 53 -146.5 154.5t-50.5 244.5v169q0 141 50.5 241.5t146.5 153t231 52.5t231 -52.5t146.5 -153t50.5 -241.5v-172q0 -142 -50.5 -242.5t-146.5 -153.5t-231 -53t-231 53zM1197.5 246
q58.5 67 58.5 188v172q0 121 -58.5 187t-165.5 66t-165.5 -66t-58.5 -187v-172q0 -121 58.5 -188t165.5 -67t165.5 67z" />
    <glyph glyph-name="afii10097" unicode="&#x44f;" horiz-adv-x="1100" 
d="M473 365q-107 0 -189 42t-127.5 118t-45.5 177v0q0 100 45 176t127 118t190 42h368v-194h-376q-62 0 -99.5 -39t-37.5 -103v0q0 -43 17 -75t48 -50t72 -18h376v-194h-368zM736 0v1038h204v-1038h-204zM90 0l292 456l203 -46l-253 -410h-242z" />
    <glyph glyph-name="afii10099" unicode="&#x452;" horiz-adv-x="1164" 
d="M637 -228h114q28 0 43.5 20.5t15.5 58.5v661q0 110 -57 170t-160 60q-100 0 -154.5 -52t-54.5 -147l-21 200q48 92 125.5 142.5t171.5 50.5q169 0 261.5 -110.5t92.5 -312.5v-660q0 -131 -63.5 -203t-179.5 -72h-134v194zM180 1454h204v-1454h-204v1454zM-20 1244h824
v-174h-824v174z" />
    <glyph glyph-name="uni0461" unicode="&#x461;" horiz-adv-x="1514" 
d="M610 1038h213l224 -771q58 94 98.5 216.5t61.5 256t24 265.5v33h203q0 -170 -46 -369.5t-124 -378.5t-170 -290h-154zM40 1038h213l264 -781l244 452l76 -177l-283 -532h-154z" />
    <glyph glyph-name="afii10194" unicode="&#x463;" horiz-adv-x="1109" 
d="M-20 1138h764v-174h-764v174zM274 194h376q62 0 99.5 39t37.5 103v0q0 43 -17 75t-48 50t-72 18h-376v194h368q107 0 189 -42t127.5 -118t45.5 -177v0q0 -100 -45 -176t-127 -118t-190 -42h-368v194zM175 1340h204v-1340h-204v1340z" />
    <glyph glyph-name="uni0465" unicode="&#x465;" horiz-adv-x="1494" 
d="M279 606h505v-174h-505v174zM160 1038h204v-1038h-204v1038zM753 606h505v-174h-505v174zM810.5 38q-100.5 53 -153.5 154t-53 244v171q0 141 53 241t153.5 152.5t242.5 52.5q122 0 220 -43.5t156 -122.5v0l-147 -132v0q-44 50 -103 77t-123 27q-118 0 -183 -66t-65 -186
v-171q0 -123 64.5 -190t183.5 -67q65 0 124 29t102 82v0l147 -142v0q-58 -78 -156.5 -120.5t-219.5 -42.5q-142 0 -242.5 53z" />
    <glyph glyph-name="uni0467" unicode="&#x467;" horiz-adv-x="1086" 
d="M456 1044h174l416 -1044h-210l-293 793l-293 -793h-210zM451 353h184v-353h-184v353zM267 402h565v-164h-565v164z" />
    <glyph glyph-name="uni0469" unicode="&#x469;" horiz-adv-x="1540" 
d="M297 402h565v-164h-565v164zM160 1038h204v-1038h-204v1038zM910 1044h174l416 -1044h-210l-293 793l-293 -793h-210zM905 353h184v-353h-184v353zM721 402h565v-164h-565v164z" />
    <glyph glyph-name="uni046B" unicode="&#x46b;" horiz-adv-x="1204" 
d="M545 444l412 594h236l-444 -599zM81 268q50 165 146 247t244 82l-20 -183q-62 0 -103 -43t-63 -129l-62 -242h-223zM500 444h204v-444h-204v444zM451 597h30l125 -135l97 135h30l30 -183h-332zM11 1038h236l406 -584l-217 20zM919 242q-22 86 -67 129t-109 43l-20 183
q149 0 249.5 -82t150.5 -247l81 -268h-223zM191 1038h832v-194h-832v194z" />
    <glyph glyph-name="uni046D" unicode="&#x46d;" horiz-adv-x="1668" 
d="M301 597h552v-183h-552v183zM160 1038h204v-1038h-204v1038zM1009 444l412 594h236l-444 -599zM545 268q50 165 146 247t244 82l-20 -183q-62 0 -103 -43t-63 -129l-62 -242h-223zM964 444h204v-444h-204v444zM915 597h30l125 -135l97 135h30l30 -183h-332zM475 1038h236
l406 -584l-217 20zM1383 242q-22 86 -67 129t-109 43l-20 183q149 0 249.5 -82t150.5 -247l81 -268h-223zM655 1038h832v-194h-832v194z" />
    <glyph glyph-name="uni046F" unicode="&#x46f;" horiz-adv-x="927" 
d="M418 -422q-164 0 -246 74t-82 223q0 152 82 229t246 77h37q73 0 113 35.5t40 100.5v1q0 62 -32.5 96.5t-90.5 34.5h-83v209h83q46 0 72.5 26t26.5 69v0q0 50 -34 77t-96 27q-59 0 -99.5 -29t-54.5 -82v-1h-207v1q18 97 67 166t123.5 105t170.5 36q164 0 254 -71t90 -200
v0q0 -50 -19 -97t-54.5 -81.5t-82.5 -47.5q54 -5 95 -44t63 -97.5t22 -117.5v-1q0 -148 -98.5 -229.5t-278.5 -81.5h-28q-61 0 -92 -28t-31 -82q0 -51 31 -76.5t92 -25.5h318v-195h-317zM127 1532l124 115l200 -190l200 190l124 -115l-324 -304z" />
    <glyph glyph-name="uni0471" unicode="&#x471;" horiz-adv-x="1452" 
d="M422 53.5q-128 68.5 -195 198.5t-67 314v472h204v-479q0 -124 43 -212.5t125 -134.5t198 -46t199 46t126 134.5t43 212.5v479h204v-472q0 -184 -67.5 -314t-195.5 -198.5t-309 -68.5q-180 0 -308 68.5zM629 1339h204v-1640h-204v1640z" />
    <glyph glyph-name="afii10195" unicode="&#x473;" horiz-adv-x="1116" 
d="M219 601h725v-164h-725v164zM327 38q-96 53 -146.5 154.5t-50.5 244.5v169q0 141 50.5 241.5t146.5 153t231 52.5t231 -52.5t146.5 -153t50.5 -241.5v-172q0 -142 -50.5 -242.5t-146.5 -153.5t-231 -53t-231 53zM723.5 246q58.5 67 58.5 188v172q0 121 -58.5 187
t-165.5 66t-165.5 -66t-58.5 -187v-172q0 -121 58.5 -188t165.5 -67t165.5 67z" />
    <glyph glyph-name="afii10196" unicode="&#x475;" horiz-adv-x="1041" 
d="M60 1038h213l244 -741l128 481q24 91 60.5 152.5t82.5 92t99 30.5h94v-194h-44q-31 0 -53.5 -20t-35.5 -59l-254 -780h-154z" />
    <glyph glyph-name="uni0477" unicode="&#x477;" horiz-adv-x="1041" 
d="M57 1564l167 132l256 -355l-148 -113zM467 1564l167 132l256 -355l-148 -113zM60 1038h213l244 -741l128 481q24 91 60.5 152.5t82.5 92t99 30.5h94v-194h-44q-31 0 -53.5 -20t-35.5 -59l-254 -780h-154z" />
    <glyph glyph-name="uni0479" unicode="&#x479;" horiz-adv-x="2045" 
d="M327 38q-96 53 -146.5 154.5t-50.5 244.5v169q0 141 50.5 241.5t146.5 153t231 52.5t231 -52.5t146.5 -153t50.5 -241.5v-172q0 -142 -50.5 -242.5t-146.5 -153.5t-231 -53t-231 53zM723.5 246q58.5 67 58.5 188v172q0 121 -58.5 187t-165.5 66t-165.5 -66t-58.5 -187
v-172q0 -121 58.5 -188t165.5 -67t165.5 67zM2025 1038l-442 -1281q-24 -71 -63 -112.5t-96 -59.5t-140 -18h-41v196h41q57 0 90.5 23t58.5 79l384 1173h208zM1106 1038h208l319 -902l-113 -221z" />
    <glyph glyph-name="uni0493" unicode="&#x493;" horiz-adv-x="965" 
d="M60 544h664v-174h-664v174zM250 1038h204v-1038h-204v1038zM350 1038h565v-194h-565v194z" />
    <glyph glyph-name="uni0495" unicode="&#x495;" horiz-adv-x="1136" 
d="M862.5 577q89.5 -63 136.5 -182.5t47 -287.5v-10q0 -178 -53.5 -293t-161.5 -170.5t-272 -55.5h-12v194h12q143 0 213 81t70 252v0q0 161 -67 250.5t-188 89.5q-106 0 -164.5 -57.5t-58.5 -162.5v-75l-64 20v108q0 172 91 267t256 95q126 0 215.5 -63zM160 1038h204
v-1038h-204v1038zM260 1038h565v-194h-565v194z" />
    <glyph glyph-name="uni0497" unicode="&#x497;" horiz-adv-x="1544" 
d="M924 448l149 105l391 -553h-263zM391 553l149 -105l-277 -448h-263zM61 1038h236l252 -432l-83 -179zM630 1038h204v-1038h-204v1038zM390 622h684v-184h-684v184zM915 606l252 432h236l-405 -611zM1537 184v-445h-204v445h204z" />
    <glyph glyph-name="uni0499" unicode="&#x499;" horiz-adv-x="938" 
d="M569 134v-395h-204v395h204zM219 65.5q-102 80.5 -123 227.5v0h198v0q11 -58 60.5 -90t127.5 -32q87 0 135 38t48 108v1q0 54 -34.5 84t-98.5 30h-163v174h163q47 0 73 31t26 87v1q0 68 -42 105t-118 37q-71 0 -119 -32t-65 -90v0h-197v0q29 147 131 227.5t259 80.5
q169 0 262 -73t93 -206v-1q0 -85 -41 -147t-115 -91q91 -13 140.5 -72.5t49.5 -155.5v-1q0 -153 -100.5 -237t-283.5 -84q-164 0 -266 80.5z" />
    <glyph glyph-name="uni049B" unicode="&#x49b;" horiz-adv-x="1154" 
d="M465 596l282 442h246l-435 -621zM160 1038h204v-1038h-204v1038zM474 438l159 105l421 -543h-273zM259 617h375v-194h-375v194zM1116 184v-445h-204v445h204z" />
    <glyph glyph-name="uni049D" unicode="&#x49d;" horiz-adv-x="1054" 
d="M524 448l169 105l361 -553h-273zM160 1038h204v-1038h-204v1038zM410 864h134v-694h-134v694zM259 617h425v-194h-425v194zM525 606l222 432h246l-325 -611z" />
    <glyph glyph-name="uni049F" unicode="&#x49f;" horiz-adv-x="1094" 
d="M200 1454h204v-554h-204v554zM-20 1324h644v-174h-644v174zM505 596l282 442h246l-435 -621zM200 1038h204v-1038h-204v1038zM514 438l159 105l421 -543h-273zM299 617h375v-194h-375v194z" />
    <glyph glyph-name="uni04A1" unicode="&#x4a1;" horiz-adv-x="1304" 
d="M80 1038h375v-194h-375v194zM715 596l282 442h246l-435 -621zM410 1038h204v-1038h-204v1038zM724 438l159 105l421 -543h-273zM509 617h375v-194h-375v194z" />
    <glyph glyph-name="uni04A3" unicode="&#x4a3;" horiz-adv-x="1180" 
d="M816 1038h204v-1038h-204v1038zM160 1038h204v-1038h-204v1038zM287 602h637v-184h-637v184zM1205 184v-445h-204v445h204z" />
    <glyph glyph-name="uni04A5" unicode="&#x4a5;" horiz-adv-x="1471" 
d="M916 1038h505v-194h-505v194zM816 1038h204v-1038h-204v1038zM160 1038h204v-1038h-204v1038zM287 602h637v-184h-637v184z" />
    <glyph glyph-name="uni04A7" unicode="&#x4a7;" horiz-adv-x="1782" 
d="M1203 -228h12q139 0 206 81t67 252v0q0 161 -65.5 250.5t-184.5 89.5q-104 0 -161 -57.5t-57 -162.5v-75l-64 20v108q0 172 89.5 267t252.5 95q125 0 213.5 -63t134.5 -182.5t46 -287.5v-10q0 -178 -52.5 -293t-158 -170.5t-266.5 -55.5h-12v194zM816 1038h204v-1038
h-204v1038zM160 1038h204v-1038h-204v1038zM287 1038h637v-194h-637v194z" />
    <glyph glyph-name="uni0525" unicode="&#x525;" horiz-adv-x="1180" 
d="M816 1038h204v-1038h-204v1038zM160 1038h204v-1038h-204v1038zM287 1038h637v-194h-637v194zM1205 184v-445h-204v445h204z" />
    <glyph glyph-name="uni04A9" unicode="&#x4a9;" horiz-adv-x="1421" 
d="M867 56.5q-153 71.5 -235 208t-82 327.5v111q0 110 42 188.5t120.5 120t185.5 41.5q111 0 191.5 -41.5t123.5 -120t43 -188.5v-111q0 -180 -78 -310t-227.5 -202t-359.5 -80v194q146 0 249.5 47t157.5 136.5t54 214.5v111q0 74 -41.5 115t-113.5 41q-67 0 -105 -41
t-38 -115v-111q0 -131 53 -223.5t155 -141t245 -48.5h94v-194h-73q-208 0 -361 71.5zM353 47q-99 47 -151 137t-52 217v266q0 122 47 208.5t137 132t217 45.5v-201q-91 0 -141.5 -46.5t-50.5 -131.5v-280q0 -95 61 -147.5t171 -52.5v-194q-139 0 -238 47z" />
    <glyph glyph-name="uni04AB" unicode="&#x4ab;" horiz-adv-x="1020" 
d="M685 134v-395h-204v395h204zM336.5 38q-100.5 53 -153.5 154t-53 244v171q0 141 53 241t153.5 152.5t242.5 52.5q122 0 220 -43.5t156 -122.5v0l-147 -132v0q-44 50 -103 77t-123 27q-118 0 -183 -66t-65 -186v-171q0 -123 64.5 -190t183.5 -67q65 0 124 29t102 82v0
l147 -142v0q-58 -78 -156.5 -120.5t-219.5 -42.5q-142 0 -242.5 53z" />
    <glyph glyph-name="uni04AD" unicode="&#x4ad;" horiz-adv-x="1026" 
d="M411 929h204v-929h-204v929zM110 1038h806v-184h-806v184zM800 184v-445h-204v445h204z" />
    <glyph glyph-name="uni04AF" unicode="&#x4af;" horiz-adv-x="1024" 
d="M415 196h204v-618h-204v618zM771 1038h213l-390 -1038h-154l-390 1038h213l254 -741z" />
    <glyph glyph-name="uni04B1" unicode="&#x4b1;" horiz-adv-x="1024" 
d="M173 0h684v-184h-684v184zM415 196h204v-618h-204v618zM771 1038h213l-390 -1038h-154l-390 1038h213l254 -741z" />
    <glyph glyph-name="uni04B3" unicode="&#x4b3;" horiz-adv-x="1059" 
d="M458 472l-382 566h227l298 -465l393 -573h-226zM452 573l98 -188l-264 -385h-226zM524 670l227 368h227l-368 -560zM1046 184v-445h-204v445h204z" />
    <glyph glyph-name="uni04B5" unicode="&#x4b5;" horiz-adv-x="1363" 
d="M894 1038h204v-1038h-204v1038zM359 184h643v-184h-643v184zM323 929h204v-929h-204v929zM1079 184h204v-445h-204v445zM110 1038h634v-184h-634v184z" />
    <glyph glyph-name="uni04B7" unicode="&#x4b7;" horiz-adv-x="1152" 
d="M788 1038h204v-1038h-204v1038zM324.5 373.5q-85.5 48.5 -130 140.5t-44.5 222v302h204v-309q0 -97 48.5 -150t137.5 -53q118 0 183 58t65 165v105h64v-98q0 -206 -84 -318.5t-238 -112.5q-120 0 -205.5 48.5zM1177 184v-445h-204v445h204z" />
    <glyph glyph-name="uni04B9" unicode="&#x4b9;" horiz-adv-x="1152" 
d="M490 804h134v-694h-134v694zM788 1038h204v-1038h-204v1038zM324.5 373.5q-85.5 48.5 -130 140.5t-44.5 222v302h204v-309q0 -97 48.5 -150t137.5 -53q118 0 183 58t65 165v105h64v-98q0 -206 -84 -318.5t-238 -112.5q-120 0 -205.5 48.5z" />
    <glyph glyph-name="uni04BB" unicode="&#x4bb;" horiz-adv-x="1144" 
d="M160 1454h204v-1454h-204v1454zM790 629q0 110 -57 170t-160 60q-100 0 -154.5 -52t-54.5 -147l-21 200q48 92 125.5 142.5t171.5 50.5q169 0 261.5 -110.5t92.5 -312.5v-630h-204v629z" />
    <glyph glyph-name="uni04BD" unicode="&#x4bd;" horiz-adv-x="1304" 
d="M111 491q-61 53 -61 160v74h187v-54q0 -35 18 -52.5t53 -17.5h263v-163h-276q-123 0 -184 53zM545 39q-102 54 -155.5 158.5t-53.5 252.5v117q0 154 51.5 263t149.5 166t236 57q130 0 222 -65t140.5 -188t48.5 -295v-68h-700v164h506v0q-9 127 -65.5 197.5t-151.5 70.5
q-116 0 -179.5 -76t-63.5 -215v-132q0 -129 68 -198t193 -69q62 0 123 25t109 70v0l134 -134v0q-77 -74 -173 -114.5t-193 -40.5q-144 0 -246 54z" />
    <glyph glyph-name="uni04BF" unicode="&#x4bf;" horiz-adv-x="1304" 
d="M871 134v-395h-204v395h204zM111 491q-61 53 -61 160v74h187v-54q0 -35 18 -52.5t53 -17.5h263v-163h-276q-123 0 -184 53zM545 39q-102 54 -155.5 158.5t-53.5 252.5v117q0 154 51.5 263t149.5 166t236 57q130 0 222 -65t140.5 -188t48.5 -295v-68h-700v164h506v0
q-9 127 -65.5 197.5t-151.5 70.5q-116 0 -179.5 -76t-63.5 -215v-132q0 -129 68 -198t193 -69q62 0 123 25t109 70v0l134 -134v0q-77 -74 -173 -114.5t-193 -40.5q-144 0 -246 54z" />
    <glyph glyph-name="uni04CF" unicode="&#x4cf;" horiz-adv-x="564" 
d="M384 0h-204v1454h204v-1454z" />
    <glyph glyph-name="uni04C2" unicode="&#x4c2;" horiz-adv-x="1464" 
d="M924 448l149 105l391 -553h-263zM391 553l149 -105l-277 -448h-263zM61 1038h236l252 -432l-83 -179zM630 1038h204v-1038h-204v1038zM390 622h684v-184h-684v184zM915 606l252 432h236l-405 -611zM499.5 1324.5q-74.5 89.5 -74.5 268.5v0h164v0q0 -100 33.5 -149.5
t100.5 -49.5h18q67 0 100.5 49.5t33.5 149.5v0h164v0q0 -179 -74.5 -268.5t-223.5 -89.5h-18q-149 0 -223.5 89.5z" />
    <glyph glyph-name="uni04C4" unicode="&#x4c4;" horiz-adv-x="1152" 
d="M588 -230h17q126 0 189.5 80t63.5 242v0q0 163 -70.5 252t-199.5 89h-69l22 194h47q149 0 255.5 -63t162.5 -182.5t56 -287.5v-10q0 -172 -51 -284.5t-152.5 -167t-253.5 -54.5h-17v192zM160 1038h204v-1038h-204v1038zM259 627h305l30 -194h-335v194zM435 606l312 432
h246l-447 -587z" />
    <glyph glyph-name="uni04C6" unicode="&#x4c6;" horiz-adv-x="1191" 
d="M1171 194l-80 -455h-204l47 265l33 190h204zM90 185q80 0 124.5 73t44.5 206v574h204v-602q0 -141 -41.5 -241t-120.5 -152t-191 -52h-20v194zM787 1038h204v-1038h-204v1038zM386 1038h509v-194h-509v194z" />
    <glyph glyph-name="uni04C8" unicode="&#x4c8;" horiz-adv-x="1180" 
d="M643 -228h114q28 0 43.5 20.5t15.5 58.5v1187h204v-1185q0 -131 -63.5 -203t-179.5 -72h-134v194zM160 1038h204v-1038h-204v1038zM287 607h637v-194h-637v194z" />
    <glyph glyph-name="uni04CA" unicode="&#x4ca;" horiz-adv-x="1220" 
d="M1200 194l-80 -455h-204l47 265l33 190h204zM816 1038h204v-1038h-204v1038zM160 1038h204v-1038h-204v1038zM287 602h637v-184h-637v184z" />
    <glyph glyph-name="uni04CC" unicode="&#x4cc;" horiz-adv-x="1152" 
d="M603 184h204v-445h-204v445zM788 1038h204v-1038h-204v1038zM324.5 373.5q-85.5 48.5 -130 140.5t-44.5 222v302h204v-309q0 -97 48.5 -150t137.5 -53q118 0 183 58t65 165v105h64v-98q0 -206 -84 -318.5t-238 -112.5q-120 0 -205.5 48.5z" />
    <glyph glyph-name="uni04CE" unicode="&#x4ce;" horiz-adv-x="1336" 
d="M1316 194l-80 -455h-204l47 265l33 190h204zM955 1038h181v-1038h-184v733l10 -64l-253 -467h-122l-253 467l10 64v-733h-184v1038h181l307 -574z" />
    <glyph glyph-name="uni04D1" unicode="&#x4d1;" horiz-adv-x="1090" 
d="M746 658q0 102 -54.5 158.5t-154.5 56.5q-62 0 -121.5 -19t-105.5 -53l-149 102q59 71 155.5 110.5t214.5 39.5q129 0 221 -45.5t140 -132t48 -208.5v-667h-194v658zM205 64.5q-95 79.5 -95 241.5q0 154 87 231t263 77h295l14 -164h-308q-80 0 -119.5 -35.5t-39.5 -108.5
q0 -79 52.5 -117t159.5 -38q117 0 174.5 25t57.5 78l21 -146q-27 -42 -66.5 -69t-91.5 -40.5t-117 -13.5q-192 0 -287 79.5zM307.5 1324.5q-74.5 89.5 -74.5 268.5v0h164v0q0 -100 33.5 -149.5t100.5 -49.5h18q67 0 100.5 49.5t33.5 149.5v0h164v0q0 -179 -74.5 -268.5
t-223.5 -89.5h-18q-149 0 -223.5 89.5z" />
    <glyph glyph-name="uni04D3" unicode="&#x4d3;" horiz-adv-x="1090" 
d="M746 658q0 102 -54.5 158.5t-154.5 56.5q-62 0 -121.5 -19t-105.5 -53l-149 102q59 71 155.5 110.5t214.5 39.5q129 0 221 -45.5t140 -132t48 -208.5v-667h-194v658zM205 64.5q-95 79.5 -95 241.5q0 154 87 231t263 77h295l14 -164h-308q-80 0 -119.5 -35.5t-39.5 -108.5
q0 -79 52.5 -117t159.5 -38q117 0 174.5 25t57.5 78l21 -146q-27 -42 -66.5 -69t-91.5 -40.5t-117 -13.5q-192 0 -287 79.5zM648 1454h204v-204h-204v204zM228 1454h204v-204h-204v204z" />
    <glyph glyph-name="uni04D5" unicode="&#x4d5;" horiz-adv-x="1708" 
d="M756 658q0 102 -57.5 158.5t-161.5 56.5q-61 0 -119.5 -19t-104.5 -53l-152 102q59 71 155.5 110.5t214.5 39.5q157 0 243 -88t86 -248v-232h-104v173zM197.5 64.5q-87.5 79.5 -87.5 241.5q0 152 87 227.5t263 75.5h365l14 -159h-378q-80 0 -119.5 -35.5t-39.5 -108.5
q0 -74 45 -109.5t137 -35.5q90 0 150 42.5t88.5 110.5t28.5 145h105v-248q-59 -115 -157 -170.5t-237 -55.5q-177 0 -264.5 79.5zM992 36.5q-84 51.5 -128 150t-44 238.5v187q0 139 42 238t122.5 151t192.5 52q130 0 222 -65.5t140.5 -189.5t48.5 -298v-50h-710v159h516v0
q-9 125 -65.5 194.5t-151.5 69.5q-120 0 -186.5 -78.5t-66.5 -221.5v-132q0 -135 71 -207.5t200 -72.5q65 0 129 25.5t115 72.5v0l122 -119v0q-77 -74 -173 -114.5t-193 -40.5q-119 0 -203 51.5z" />
    <glyph glyph-name="uni04D7" unicode="&#x4d7;" horiz-adv-x="1098" 
d="M339 39q-102 54 -155.5 158.5t-53.5 252.5v117q0 154 51.5 263t149.5 166t236 57q130 0 222 -65t140.5 -188t48.5 -295v-68h-700v164h506v0q-9 127 -65.5 197.5t-151.5 70.5q-116 0 -179.5 -76t-63.5 -215v-132q0 -129 68 -198t193 -69q62 0 123 25t109 70v0l134 -134v0
q-77 -74 -173 -114.5t-193 -40.5q-144 0 -246 54zM322.5 1324.5q-74.5 89.5 -74.5 268.5v0h164v0q0 -100 33.5 -149.5t100.5 -49.5h18q67 0 100.5 49.5t33.5 149.5v0h164v0q0 -179 -74.5 -268.5t-223.5 -89.5h-18q-149 0 -223.5 89.5z" />
    <glyph glyph-name="afii10846" unicode="&#x4d9;" horiz-adv-x="1098" 
d="M309 48.5q-92 63.5 -140.5 184.5t-48.5 290v68h700v-164h-506v0q9 -122 65.5 -190t151.5 -68q116 0 179.5 73.5t63.5 207.5v132q0 133 -68 205t-193 72q-62 0 -123 -25t-109 -70v0l-134 134v0q77 74 173 114.5t193 40.5q144 0 246 -55.5t155.5 -162t53.5 -257.5v-117
q0 -151 -51.5 -257.5t-149.5 -162.5t-236 -56q-130 0 -222 63.5z" />
    <glyph glyph-name="uni04DB" unicode="&#x4db;" horiz-adv-x="1098" 
d="M309 48.5q-92 63.5 -140.5 184.5t-48.5 290v68h700v-164h-506v0q9 -122 65.5 -190t151.5 -68q116 0 179.5 73.5t63.5 207.5v132q0 133 -68 205t-193 72q-62 0 -123 -25t-109 -70v0l-134 134v0q77 74 173 114.5t193 40.5q144 0 246 -55.5t155.5 -162t53.5 -257.5v-117
q0 -151 -51.5 -257.5t-149.5 -162.5t-236 -56q-130 0 -222 63.5zM662 1454h204v-204h-204v204zM242 1454h204v-204h-204v204z" />
    <glyph glyph-name="uni04DD" unicode="&#x4dd;" horiz-adv-x="1464" 
d="M924 448l149 105l391 -553h-263zM391 553l149 -105l-277 -448h-263zM61 1038h236l252 -432l-83 -179zM630 1038h204v-1038h-204v1038zM390 622h684v-184h-684v184zM915 606l252 432h236l-405 -611zM840 1454h204v-204h-204v204zM420 1454h204v-204h-204v204z" />
    <glyph glyph-name="uni04DF" unicode="&#x4df;" horiz-adv-x="974" 
d="M293.5 21q-82.5 36 -133 105.5t-64.5 166.5v0h198v0q11 -58 60.5 -90t127.5 -32q87 0 135 38t48 108v1q0 54 -34.5 84t-98.5 30h-163v174h163q47 0 73 31t26 87v1q0 68 -42 105t-118 37q-71 0 -119 -32t-65 -90v0h-197v0q29 147 131 227.5t259 80.5q169 0 262 -73
t93 -206v-1q0 -85 -41 -147t-115 -91q91 -13 140.5 -72.5t49.5 -155.5v-1q0 -153 -100.5 -237t-283.5 -84q-109 0 -191.5 36zM591 1454h204v-204h-204v204zM171 1454h204v-204h-204v204z" />
    <glyph glyph-name="uni04E1" unicode="&#x4e1;" horiz-adv-x="908" 
d="M203 -258q-82 43 -130 128.5t-63 215.5v1h208v-1q13 -96 61 -143.5t132 -47.5q89 0 133.5 52.5t44.5 158.5v1q0 115 -51 170.5t-162 55.5h-143v114l143 70q143 0 238 -45t142 -135t47 -226v-1q0 -206 -100 -308.5t-302 -102.5q-116 0 -198 43zM502 844h-440v194h696v-176
l-298 -415h-227z" />
    <glyph glyph-name="uni04E3" unicode="&#x4e3;" horiz-adv-x="1174" 
d="M812 1v737l24 -26l-499 -711h-177v1037h202v-754l-24 26l501 728h175v-1037h-202zM952 1453v-203h-730v203h730z" />
    <glyph glyph-name="uni04E5" unicode="&#x4e5;" horiz-adv-x="1174" 
d="M812 1v737l24 -26l-499 -711h-177v1037h202v-754l-24 26l501 728h175v-1037h-202zM695 1454h204v-204h-204v204zM275 1454h204v-204h-204v204z" />
    <glyph glyph-name="uni04E7" unicode="&#x4e7;" horiz-adv-x="1116" 
d="M327 38q-96 53 -146.5 154.5t-50.5 244.5v169q0 141 50.5 241.5t146.5 153t231 52.5t231 -52.5t146.5 -153t50.5 -241.5v-172q0 -142 -50.5 -242.5t-146.5 -153.5t-231 -53t-231 53zM723.5 246q58.5 67 58.5 188v172q0 121 -58.5 187t-165.5 66t-165.5 -66t-58.5 -187
v-172q0 -121 58.5 -188t165.5 -67t165.5 67zM667 1454h204v-204h-204v204zM247 1454h204v-204h-204v204z" />
    <glyph glyph-name="uni04E9" unicode="&#x4e9;" horiz-adv-x="1116" 
d="M219 601h725v-164h-725v164zM327 38q-96 53 -146.5 154.5t-50.5 244.5v169q0 141 50.5 241.5t146.5 153t231 52.5t231 -52.5t146.5 -153t50.5 -241.5v-172q0 -142 -50.5 -242.5t-146.5 -153.5t-231 -53t-231 53zM723.5 246q58.5 67 58.5 188v172q0 121 -58.5 187
t-165.5 66t-165.5 -66t-58.5 -187v-172q0 -121 58.5 -188t165.5 -67t165.5 67z" />
    <glyph glyph-name="uni04EB" unicode="&#x4eb;" horiz-adv-x="1116" 
d="M219 601h725v-164h-725v164zM327 38q-96 53 -146.5 154.5t-50.5 244.5v169q0 141 50.5 241.5t146.5 153t231 52.5t231 -52.5t146.5 -153t50.5 -241.5v-172q0 -142 -50.5 -242.5t-146.5 -153.5t-231 -53t-231 53zM723.5 246q58.5 67 58.5 188v172q0 121 -58.5 187
t-165.5 66t-165.5 -66t-58.5 -187v-172q0 -121 58.5 -188t165.5 -67t165.5 67zM666 1454h204v-204h-204v204zM246 1454h204v-204h-204v204z" />
    <glyph glyph-name="uni04ED" unicode="&#x4ed;" horiz-adv-x="1020" 
d="M236 432v174h505v-174h-505zM289.5 4q-71.5 19 -128.5 55.5t-96 88.5v0l147 132v0q43 -53 102 -82t124 -29q118 0 183 69.5t65 197.5v171q0 120 -65 186t-183 66q-64 0 -123 -27t-103 -77v0l-147 132v0q38 53 95 90t128.5 56.5t152.5 19.5q142 0 242.5 -52.5
t153.5 -152.5t53 -241v-171q0 -143 -53 -244t-153.5 -154t-242.5 -53q-80 0 -151.5 19zM611 1454h204v-204h-204v204zM191 1454h204v-204h-204v204z" />
    <glyph glyph-name="uni04EF" unicode="&#x4ef;" horiz-adv-x="989" 
d="M969 1038l-442 -1281q-24 -71 -63 -112.5t-96 -59.5t-140 -18h-41v196h41q57 0 90.5 23t58.5 79l384 1173h208zM50 1038h208l319 -902l-113 -221zM885 1453v-203h-730v203h730z" />
    <glyph glyph-name="uni04F1" unicode="&#x4f1;" horiz-adv-x="989" 
d="M969 1038l-442 -1281q-24 -71 -63 -112.5t-96 -59.5t-140 -18h-41v196h41q57 0 90.5 23t58.5 79l384 1173h208zM50 1038h208l319 -902l-113 -221zM628 1454h204v-204h-204v204zM208 1454h204v-204h-204v204z" />
    <glyph glyph-name="uni04F3" unicode="&#x4f3;" horiz-adv-x="989" 
d="M969 1038l-442 -1281q-24 -71 -63 -112.5t-96 -59.5t-140 -18h-41v196h41q57 0 90.5 23t58.5 79l384 1173h208zM50 1038h208l319 -902l-113 -221zM596 1321l186 355l172 -107l-205 -336zM196 1321l186 355l172 -107l-205 -336z" />
    <glyph glyph-name="uni04F5" unicode="&#x4f5;" horiz-adv-x="1152" 
d="M788 1038h204v-1038h-204v1038zM324.5 373.5q-85.5 48.5 -130 140.5t-44.5 222v302h204v-309q0 -97 48.5 -150t137.5 -53q118 0 183 58t65 165v105h64v-98q0 -206 -84 -318.5t-238 -112.5q-120 0 -205.5 48.5zM679 1454h204v-204h-204v204zM259 1454h204v-204h-204v204z
" />
    <glyph glyph-name="uni04F7" unicode="&#x4f7;" horiz-adv-x="875" 
d="M160 1038h204v-1038h-204v1038zM260 1038h565v-194h-565v194zM549 184v-445h-204v445h204z" />
    <glyph glyph-name="uni04F9" unicode="&#x4f9;" horiz-adv-x="1434" 
d="M1080 1038h204v-1038h-204v1038zM259 194h316q62 0 99.5 39t37.5 103v0q0 43 -17 75t-48 50t-72 18h-316v194h308q107 0 189 -42t127.5 -118t45.5 -177v0q0 -100 -45 -176t-127 -118t-190 -42h-308v194zM160 1038h204v-1038h-204v1038zM830 1454h204v-204h-204v204z
M410 1454h204v-204h-204v204z" />
    <glyph glyph-name="uni04FB" unicode="&#x4fb;" horiz-adv-x="965" 
d="M240 -92h114q34 0 52 20.5t18 58.5v147h204v-145q0 -131 -66.5 -203t-187.5 -72h-134v194zM60 544h664v-174h-664v174zM250 1038h204v-1038h-204v1038zM350 1038h565v-194h-565v194z" />
    <glyph glyph-name="uni04FD" unicode="&#x4fd;" horiz-adv-x="1047" 
d="M677 -228h14q51 0 74 23.5t23 75.5q0 38 -20.5 90.5t-67.5 126.5l-242 384l-382 566h227l298 -465l273 -413q57 -87 82.5 -160t25.5 -147q0 -145 -69 -210t-222 -65h-14v194zM452 573l98 -188l-264 -385h-226zM524 670l227 368h227l-368 -560z" />
    <glyph glyph-name="uni04FF" unicode="&#x4ff;" horiz-adv-x="1059" 
d="M123 586h809v-134h-809v134zM458 472l-382 566h227l298 -465l393 -573h-226zM452 573l98 -188l-264 -385h-226zM524 670l227 368h227l-368 -560z" />
    <glyph glyph-name="uni0481" unicode="&#x481;" horiz-adv-x="1020" 
d="M336.5 38q-100.5 53 -153.5 154t-53 244v171q0 141 53 241t153.5 152.5t242.5 52.5q81 0 152.5 -19.5t128.5 -56.5t95 -90v0l-147 -132v0q-44 50 -103 77t-123 27q-118 0 -183 -66t-65 -186v-171q0 -127 64.5 -197t180.5 -70v-184q-142 0 -242.5 53zM502 169h204v-440
h-204v440z" />
    <glyph glyph-name="uni048D" unicode="&#x48d;" horiz-adv-x="1105" 
d="M-20 1038h644v-178h-644v178zM181 1454h204v-554h-204v554zM280 194h366q62 0 99.5 39t37.5 103v0q0 43 -17 75t-48 50t-72 18h-366v194h358q107 0 189 -42t127.5 -118t45.5 -177v0q0 -100 -45 -176t-127 -118t-190 -42h-358v194zM181 1038h204v-1038h-204v1038z" />
    <glyph glyph-name="uni048F" unicode="&#x48f;" horiz-adv-x="1114" 
d="M453 356l142 96l361 -585l-143 -97zM160 1038h204v-1460h-204v1460zM456 31.5q-72 46.5 -106 131.5l14 217q0 -67 24 -114t69.5 -72t110.5 -25q101 0 156.5 61.5t55.5 173.5v225q0 114 -55.5 177t-156.5 63q-65 0 -110.5 -24t-69.5 -70.5t-24 -111.5l-21 200
q47 91 123 140.5t169 49.5q110 0 188.5 -49.5t119.5 -144.5t41 -229v-226q0 -132 -42 -226t-123 -143.5t-194 -49.5q-97 0 -169 46.5z" />
    <glyph glyph-name="uni03EE" unicode="&#x3ee;" horiz-adv-x="1017" 
d="M957 1247v-194h-739q-38 0 -58.5 -15.5t-20.5 -43.5v-114h-199v134q0 111 63.5 172t181.5 61h772zM554 0h-204v1454h204v-1454z" />
    <glyph glyph-name="uni03E4" unicode="&#x3e4;" horiz-adv-x="1259" 
d="M294.5 513.5q-97.5 59.5 -148.5 172.5t-51 271v10q0 253 110.5 373.5t336.5 120.5h52v-194h-52q-124 0 -183.5 -75t-59.5 -233v0q0 -147 70.5 -228.5t199.5 -81.5q146 0 226 73t80 207v75l64 -20v-108q0 -133 -48.5 -228t-140.5 -144.5t-221 -49.5q-137 0 -234.5 59.5z
M875 1454h204v-1454h-204v1454z" />
    <glyph glyph-name="uni03EA" unicode="&#x3ea;" horiz-adv-x="1360" 
d="M829 1295q42 68 73 103t64 49t80 14h134v-194h-114q-19 0 -30 -7.5t-25 -31.5l-757 -1228h-214zM203 194h967v-194h-967v194zM369 1228q-14 23 -24.5 31t-30.5 8h-114v194h134q48 0 81 -14t64 -49.5t72 -104.5l769 -1293h-214z" />
    <glyph glyph-name="uni03E8" unicode="&#x3e8;" horiz-adv-x="1241" 
d="M351 31q-124 46 -182.5 142.5t-58.5 252.5v2q0 136 52 229.5t161.5 153t286.5 90.5q12 2 23 4.5t21 5.5q58 15 94.5 42.5t54 66t17.5 88.5v1q0 88 -46 128t-148 40q-77 0 -146 -26.5t-145 -85.5v0l-116 162v0q101 75 197.5 108.5t209.5 33.5q140 0 227 -37t128 -115
t41 -204v-1q0 -116 -38.5 -198t-121 -133t-214.5 -71q-177 -28 -256.5 -96.5t-79.5 -191.5v-1q0 -86 37.5 -139.5t117 -79t207.5 -25.5q122 0 216.5 34t183.5 110v0l127 -156v0q-74 -63 -153.5 -102.5t-171 -58.5t-202.5 -19q-199 0 -323 46z" />
    <glyph glyph-name="uni03E6" unicode="&#x3e6;" horiz-adv-x="1284" 
d="M463 -135h298q79 0 120 24t55 68t14 117v335q0 73 -31.5 124.5t-91 78.5t-144.5 27h-340v194h407q128 0 218.5 -49.5t138 -144.5t47.5 -229v-334q0 -202 -86.5 -303.5t-286.5 -101.5h-318v194zM160 1454h204v-1454h-204v1454zM402 -353q-28 -23 -28 -69h-194
q0 144 70.5 215.5t212.5 71.5l22 -194q-55 -1 -83 -24z" />
    <glyph glyph-name="uni03E2" unicode="&#x3e2;" horiz-adv-x="2000" 
d="M1131 40.5q-94 55.5 -143.5 161t-49.5 254.5v998h164v-1005q0 -125 67 -194t189 -69q123 0 190.5 69t67.5 194v1005h204v-998l-93 -179q-41 -143 -134 -217.5t-235 -74.5q-133 0 -227 55.5zM391.5 40.5q-103.5 55.5 -157.5 161t-54 254.5v998h204v-1005q0 -125 67 -194
t189 -69q123 0 190.5 69t67.5 194v1005h164v-998q0 -149 -49.5 -254.5t-144.5 -161t-228 -55.5q-145 0 -248.5 55.5zM533 -135h894q79 0 120 24t55 68t14 117v496h204v-494q0 -202 -86.5 -303.5t-286.5 -101.5h-899zM481.5 -353q-27.5 -23 -27.5 -69h-204q0 144 70.5 215.5
t212.5 71.5l32 -194q-56 -1 -83.5 -24z" />
    <glyph glyph-name="uni03EC" unicode="&#x3ec;" horiz-adv-x="1396" 
d="M402 45q-123 60 -187.5 175t-64.5 277v129l184 251q22 84 77.5 141t145 86t211.5 29q151 0 258 -59.5t163.5 -173.5t56.5 -274v-132q0 -161 -64.5 -275t-187.5 -174t-296 -60t-296 60zM883.5 216q77.5 37 118 108t40.5 170v132q0 149 -90.5 231t-254.5 82t-253.5 -82
t-89.5 -231v-132q0 -150 90 -232.5t253 -82.5q109 0 186.5 37zM150 971q0 483 456 483h235q83 0 124.5 24t41.5 69h189q0 -267 -339 -267h-234q-279 0 -279 -289v-377h-194v357z" />
    <glyph glyph-name="uni037F" unicode="&#x37f;" horiz-adv-x="1035" 
d="M188 32q-97 47 -158 132l167 120q28 -49 81 -76t123 -27q119 0 184.5 74t65.5 208v991h204v-992q0 -151 -53 -258t-155 -163t-246 -56q-116 0 -213 47z" />
    <glyph glyph-name="Alpha" unicode="&#x391;" horiz-adv-x="1326" 
d="M576 1454h174l536 -1454h-220l-403 1173l-403 -1173h-220zM287 513h765v-194h-765v194z" />
    <glyph glyph-name="Beta" unicode="&#x392;" horiz-adv-x="1322" 
d="M300 189h394q155 0 226 59t71 166v3q0 74 -25.5 127t-80.5 81.5t-141 28.5h-444v184h444q113 0 170.5 53t57.5 157v0q0 109 -64 163t-192 54h-416v189h453q141 0 236 -48t142 -136t47 -210v0q0 -75 -29 -140.5t-88.5 -112t-147.5 -62.5q88 -13 152 -62.5t98 -123.5
t34 -160v-3q0 -118 -52 -208t-149 -139t-226 -49h-470v189zM180 1454h203v-1454h-203v1454z" />
    <glyph glyph-name="Gamma" unicode="&#x393;" horiz-adv-x="975" 
d="M180 1454h204v-1454h-204v1454zM280 1454h715v-194h-715v194z" />
    <glyph glyph-name="Delta" unicode="&#x394;" horiz-adv-x="1326" 
d="M576 1454h174l536 -1454h-220l-403 1173l-403 -1173h-220zM187 194h935v-194h-935v194z" />
    <glyph glyph-name="Epsilon" unicode="&#x395;" horiz-adv-x="1224" 
d="M180 1454h204v-1454h-204v1454zM279 194h835v-194h-835v194zM279 819h725v-194h-725v194zM279 1454h835v-194h-835v194z" />
    <glyph glyph-name="Zeta" unicode="&#x396;" horiz-adv-x="1114" 
d="M1004 1278l-633 -1084h653v-194h-904v176l638 1084h-620v194h866v-176z" />
    <glyph glyph-name="Eta" unicode="&#x397;" horiz-adv-x="1390" 
d="M1006 1454h204v-1454h-204v1454zM180 1454h204v-1454h-204v1454zM307 813h807v-194h-807v194z" />
    <glyph glyph-name="Theta" unicode="&#x398;" horiz-adv-x="1322" 
d="M479 819h364v-194h-364v194zM393 51.5q-116 66.5 -179.5 188t-63.5 281.5v412q0 160 63.5 281.5t179.5 188t268 66.5t268 -66.5t179.5 -188t63.5 -281.5v-412q0 -160 -63.5 -281.5t-179.5 -188t-268 -66.5t-268 66.5zM819.5 226.5q68.5 40.5 106 115t37.5 172.5v426
q0 98 -37.5 172.5t-106 115t-158.5 40.5t-158.5 -40.5t-106 -115t-37.5 -172.5v-426q0 -98 37.5 -172.5t106 -115t158.5 -40.5t158.5 40.5z" />
    <glyph glyph-name="Iota" unicode="&#x399;" horiz-adv-x="564" 
d="M384 0h-204v1454h204v-1454z" />
    <glyph glyph-name="Kappa" unicode="&#x39a;" horiz-adv-x="1314" 
d="M340 638l642 816h251l-923 -1122zM180 1454h204v-1454h-204v1454zM582 776l161 149l551 -925h-250z" />
    <glyph glyph-name="Lambda" unicode="&#x39b;" horiz-adv-x="1326" 
d="M576 1454h174l536 -1454h-220l-403 1173l-403 -1173h-220z" />
    <glyph glyph-name="Mu" unicode="&#x39c;" horiz-adv-x="1596" 
d="M1225 1454h191v-1454h-199v1089l10 -64l-358 -823h-142l-358 803l10 84v-1089h-199v1454h191l427 -960z" />
    <glyph glyph-name="Nu" unicode="&#x39d;" horiz-adv-x="1434" 
d="M180 1454h185l711 -1124l-24 -26v1150h202v-1453h-187l-709 1107l24 26v-1133h-202v1453z" />
    <glyph glyph-name="Xi" unicode="&#x39e;" horiz-adv-x="1370" 
d="M170 194h1030v-194h-1030v194zM260 819h850v-194h-850v194zM170 1454h1030v-194h-1030v194z" />
    <glyph glyph-name="Omicron" unicode="&#x39f;" horiz-adv-x="1322" 
d="M393 51.5q-116 66.5 -179.5 188t-63.5 281.5v412q0 160 63.5 281.5t179.5 188t268 66.5t268 -66.5t179.5 -188t63.5 -281.5v-412q0 -160 -63.5 -281.5t-179.5 -188t-268 -66.5t-268 66.5zM819.5 226.5q68.5 40.5 106 115t37.5 172.5v426q0 98 -37.5 172.5t-106 115
t-158.5 40.5t-158.5 -40.5t-106 -115t-37.5 -172.5v-426q0 -98 37.5 -172.5t106 -115t158.5 -40.5t158.5 40.5z" />
    <glyph glyph-name="Pi" unicode="&#x3a0;" horiz-adv-x="1390" 
d="M1006 1454h204v-1454h-204v1454zM180 1454h204v-1454h-204v1454zM307 1454h807v-194h-807v194z" />
    <glyph glyph-name="Rho" unicode="&#x3a1;" horiz-adv-x="1275" 
d="M285 758h465q66 0 116 31t77.5 88t27.5 131v0q0 75 -27.5 132t-77.5 88.5t-116 31.5h-465v194h458q130 0 229 -55.5t153.5 -156.5t54.5 -234v0q0 -133 -54.5 -233.5t-153.5 -155.5t-229 -55h-458v194zM180 1454h204v-1454h-204v1454z" />
    <glyph glyph-name="Sigma" unicode="&#x3a3;" horiz-adv-x="936" 
d="M876 1260h-560l386 -533l-386 -533h560v-194h-816v176l398 551l-398 551v176h816v-194z" />
    <glyph glyph-name="Tau" unicode="&#x3a4;" horiz-adv-x="986" 
d="M391 1335h204v-1335h-204v1335zM-20 1454h1026v-194h-1026v194z" />
    <glyph glyph-name="Upsilon" unicode="&#x3a5;" horiz-adv-x="1030" 
d="M617 591v-591h-204v591l-443 863h227l318 -656l318 656h227z" />
    <glyph glyph-name="Phi" unicode="&#x3a6;" horiz-adv-x="1622" 
d="M420.5 221.5q-161.5 66.5 -246 196t-84.5 314.5v40q0 185 84.5 314.5t246 196t390.5 66.5t390.5 -66.5t246 -196t84.5 -314.5v-40q0 -185 -84.5 -314.5t-246 -196t-390.5 -66.5t-390.5 66.5zM709 1504h204v-1504h-204v1504zM1200.5 437.5q137.5 101.5 137.5 294.5v40
q0 193 -137.5 294.5t-389.5 101.5t-389.5 -101.5t-137.5 -294.5v-40q0 -193 137.5 -294.5t389.5 -101.5t389.5 101.5z" />
    <glyph glyph-name="Chi" unicode="&#x3a7;" horiz-adv-x="1162" 
d="M535 639l-31 50l-472 765h229l351 -592l33 -54l497 -808h-229zM526 831l365 623h229l-481 -787l-390 -667h-229z" />
    <glyph glyph-name="Psi" unicode="&#x3a8;" horiz-adv-x="1462" 
d="M422 403.5q-128 68.5 -195 198.5t-67 314v538h204v-545q0 -118 43 -201.5t125 -127.5t198 -44t199 44t126 127.5t43 201.5v545h204v-538q0 -184 -67.5 -314t-195.5 -198.5t-309 -68.5q-180 0 -308 68.5zM629 1454h204v-1454h-204v1454z" />
    <glyph glyph-name="Omega" unicode="&#x3a9;" horiz-adv-x="1322" 
d="M359 148q-100 53 -154.5 149.5t-54.5 223.5v412q0 160 63.5 281.5t179.5 188t268 66.5t268 -66.5t179.5 -188t63.5 -281.5v-412q0 -127 -54.5 -223.5t-154.5 -149.5t-232 -53v100q69 0 121.5 39.5t81.5 111.5t29 168v426q0 98 -37.5 172.5t-106 115t-158.5 40.5
t-158.5 -40.5t-106 -115t-37.5 -172.5v-426q0 -96 29 -168t81.5 -111.5t121.5 -39.5v-100q-132 0 -232 53zM150 194h441v-194h-441v194zM731 194h441v-194h-441v194z" />
    <glyph glyph-name="Alphatonos" unicode="&#x386;" horiz-adv-x="1404" 
d="M654 1454h174l536 -1454h-220l-403 1173l-403 -1173h-220zM365 513h765v-194h-765v194zM40.5957 1039.08l147.316 431.355l179.839 -64.3564l-171.665 -420.002z" />
    <glyph glyph-name="Epsilontonos" unicode="&#x388;" horiz-adv-x="1432" 
d="M388 1454h204v-1454h-204v1454zM487 194h835v-194h-835v194zM487 819h725v-194h-725v194zM487 1454h835v-194h-835v194zM-39.4043 1039.08l147.316 431.355l179.839 -64.3564l-171.665 -420.002z" />
    <glyph glyph-name="Etatonos" unicode="&#x389;" horiz-adv-x="1608" 
d="M1224 1454h204v-1454h-204v1454zM398 1454h204v-1454h-204v1454zM525 813h807v-194h-807v194zM-39.4043 1039.08l147.316 431.355l179.839 -64.3564l-171.665 -420.002z" />
    <glyph glyph-name="Iotatonos" unicode="&#x38a;" horiz-adv-x="762" 
d="M582 0h-204v1454h204v-1454zM-39.4043 1039.08l147.316 431.355l179.839 -64.3564l-171.665 -420.002z" />
    <glyph glyph-name="Omicrontonos" unicode="&#x38c;" horiz-adv-x="1518" 
d="M589 51.5q-116 66.5 -179.5 188t-63.5 281.5v412q0 160 63.5 281.5t179.5 188t268 66.5t268 -66.5t179.5 -188t63.5 -281.5v-412q0 -160 -63.5 -281.5t-179.5 -188t-268 -66.5t-268 66.5zM1015.5 226.5q68.5 40.5 106 115t37.5 172.5v426q0 98 -37.5 172.5t-106 115
t-158.5 40.5t-158.5 -40.5t-106 -115t-37.5 -172.5v-426q0 -98 37.5 -172.5t106 -115t158.5 -40.5t158.5 40.5zM-29.4043 1039.08l147.316 431.355l179.839 -64.3564l-171.665 -420.002z" />
    <glyph glyph-name="Upsilontonos" unicode="&#x38e;" horiz-adv-x="1478" 
d="M1065 591v-591h-204v591l-443 863h227l318 -656l318 656h227zM40.5957 1039.08l147.316 431.355l179.839 -64.3564l-171.665 -420.002z" />
    <glyph glyph-name="Omegatonos" unicode="&#x38f;" horiz-adv-x="1590" 
d="M627 148q-100 53 -154.5 149.5t-54.5 223.5v412q0 160 63.5 281.5t179.5 188t268 66.5t268 -66.5t179.5 -188t63.5 -281.5v-412q0 -127 -54.5 -223.5t-154.5 -149.5t-232 -53v100q69 0 121.5 39.5t81.5 111.5t29 168v426q0 98 -37.5 172.5t-106 115t-158.5 40.5
t-158.5 -40.5t-106 -115t-37.5 -172.5v-426q0 -96 29 -168t81.5 -111.5t121.5 -39.5v-100q-132 0 -232 53zM418 194h441v-194h-441v194zM999 194h441v-194h-441v194zM40.5957 1039.08l147.316 431.355l179.839 -64.3564l-171.665 -420.002z" />
    <glyph glyph-name="Iotadieresis" unicode="&#x3aa;" horiz-adv-x="564" 
d="M384 0h-204v1454h204v-1454zM385 1777h204v-204h-204v204zM-25 1777h204v-204h-204v204z" />
    <glyph glyph-name="Upsilondieresis" unicode="&#x3ab;" horiz-adv-x="1030" 
d="M617 591v-591h-204v591l-443 863h227l318 -656l318 656h227zM618 1777h204v-204h-204v204zM208 1777h204v-204h-204v204z" />
    <glyph glyph-name="uni0370" unicode="&#x370;" horiz-adv-x="1156" 
d="M180 1454h204v-1454h-204v1454zM307 813h699v-194h-699v194z" />
    <glyph glyph-name="uni0372" unicode="&#x372;" horiz-adv-x="1106" 
d="M20 1454h204v-496h-204v496zM842 1454h204v-496h-204v496zM431 1335h204v-1335h-204v1335zM20 1454h1026v-194h-1026v194z" />
    <glyph glyph-name="uni0376" unicode="&#x376;" horiz-adv-x="1434" 
d="M1052 1v1143l24 -26l-729 -1117h-167v1453h202v-1160l-24 26l731 1134h165v-1453h-202z" />
    <glyph glyph-name="uni03D8" unicode="&#x3d8;" horiz-adv-x="1322" 
d="M393 359.5q-116 66.5 -179.5 188t-63.5 281.5v104q0 160 63.5 281.5t179.5 188t268 66.5t268 -66.5t179.5 -188t63.5 -281.5v-104q0 -160 -63.5 -281.5t-179.5 -188t-268 -66.5t-268 66.5zM819.5 534.5q68.5 40.5 106 115t37.5 172.5v118q0 98 -37.5 172.5t-106 115
t-158.5 40.5t-158.5 -40.5t-106 -115t-37.5 -172.5v-118q0 -98 37.5 -172.5t106 -115t158.5 -40.5t158.5 40.5zM559 494h204v-494h-204v494z" />
    <glyph glyph-name="uni03DA" unicode="&#x3da;" horiz-adv-x="1196" 
d="M916 -81q0 33 -16.5 49.5t-50.5 16.5h-151q-183 0 -304.5 74t-182.5 221t-61 366q0 243 71 405.5t213 249.5t357 103q83 6 124.5 41.5t41.5 101.5h199q0 -145 -84 -224t-254 -93q-155 -13 -258 -81t-154.5 -193t-51.5 -310q0 -159 39.5 -265t119 -159t199.5 -53h190
q109 0 163.5 -56.5t54.5 -169.5v-204h-204v180z" />
    <glyph glyph-name="uni03DC" unicode="&#x3dc;" horiz-adv-x="1145" 
d="M180 1454h204v-1454h-204v1454zM280 806h705v-194h-705v194zM280 1454h815v-194h-815v194z" />
    <glyph glyph-name="uni03DE" unicode="&#x3de;" horiz-adv-x="1310" 
d="M492 1454h220l-452 -825h-220zM1050 823h220l-430 -823h-220zM237 823h837v-194h-837v194z" />
    <glyph glyph-name="uni03E0" unicode="&#x3e0;" horiz-adv-x="1144" 
d="M785 737q0 267 -101.5 400t-305.5 133q-124 0 -288 -50l-30 199q179 50 318 50q309 0 462.5 -182.5t153.5 -549.5q0 -408 -186 -737h-220q197 325 197 737zM199 559l645 227l64 -178l-644 -227zM89 884l654 234l64 -178l-653 -234z" />
    <glyph glyph-name="uni03CF" unicode="&#x3cf;" horiz-adv-x="1314" 
d="M1070 -422h-250l224 422h250zM340 638l642 816h251l-923 -1122zM180 1454h204v-1454h-204v1454zM582 776l161 149l551 -925h-250z" />
    <glyph glyph-name="Upsilon1" unicode="&#x3d2;" horiz-adv-x="1074" 
d="M432 1040h200v-1040h-200v1040zM523 979q0 140 64.5 249t192.5 171t314 62v-200q-151 0 -254.5 -68.5t-155.5 -190.5t-52 -283zM381 1002q-51 122 -152.5 190.5t-248.5 68.5v200q182 0 308.5 -62t189.5 -171t63 -249l-109 -260q0 161 -51 283z" />
    <glyph glyph-name="uni03D3" unicode="&#x3d3;" horiz-adv-x="1464" 
d="M832 1040h200v-1040h-200v1040zM923 979q0 140 64.5 249t192.5 171t314 62v-200q-151 0 -254.5 -68.5t-155.5 -190.5t-52 -283zM781 1002q-51 122 -152.5 190.5t-248.5 68.5v200q182 0 308.5 -62t189.5 -171t63 -249l-109 -260q0 161 -51 283zM-29.4043 1039.08
l147.316 431.355l179.839 -64.3564l-171.665 -420.002z" />
    <glyph glyph-name="uni03D4" unicode="&#x3d4;" horiz-adv-x="1074" 
d="M432 1040h200v-1040h-200v1040zM523 979q0 140 64.5 249t192.5 171t314 62v-200q-151 0 -254.5 -68.5t-155.5 -190.5t-52 -283zM381 1002q-51 122 -152.5 190.5t-248.5 68.5v200q182 0 308.5 -62t189.5 -171t63 -249l-109 -260q0 161 -51 283zM635 1777h204v-204h-204
v204zM225 1777h204v-204h-204v204z" />
    <glyph glyph-name="uni03F4" unicode="&#x3f4;" horiz-adv-x="1322" 
d="M299 819h725v-194h-725v194zM393 51.5q-116 66.5 -179.5 188t-63.5 281.5v412q0 160 63.5 281.5t179.5 188t268 66.5t268 -66.5t179.5 -188t63.5 -281.5v-412q0 -160 -63.5 -281.5t-179.5 -188t-268 -66.5t-268 66.5zM819.5 226.5q68.5 40.5 106 115t37.5 172.5v426
q0 98 -37.5 172.5t-106 115t-158.5 40.5t-158.5 -40.5t-106 -115t-37.5 -172.5v-426q0 -98 37.5 -172.5t106 -115t158.5 -40.5t158.5 40.5z" />
    <glyph glyph-name="uni03F7" unicode="&#x3f7;" horiz-adv-x="1275" 
d="M285 498h465q66 0 116 31t77.5 88t27.5 131v0q0 75 -27.5 132t-77.5 88.5t-116 31.5h-465v194h458q130 0 229 -55.5t153.5 -156.5t54.5 -234v0q0 -133 -54.5 -233.5t-153.5 -155.5t-229 -55h-458v194zM180 1454h204v-1454h-204v1454z" />
    <glyph glyph-name="uni03F9" unicode="&#x3f9;" horiz-adv-x="1267" 
d="M390.5 52q-114.5 67 -177.5 190t-63 285v399q0 162 63 285t177.5 190.5t265.5 67.5q125 0 230 -53.5t175.5 -151.5t95.5 -227v0h-209v0q-19 68 -63.5 121.5t-104.5 82.5t-124 29q-89 0 -156 -43t-104 -120.5t-37 -180.5v-399q0 -102 37 -180t104 -120.5t156 -42.5
q65 0 124.5 27t104 80t63.5 126v0h209v0q-25 -129 -96 -227t-176 -151.5t-229 -53.5q-151 0 -265.5 67z" />
    <glyph glyph-name="uni03FA" unicode="&#x3fa;" horiz-adv-x="1596" 
d="M1225 1454h191v-1454h-199v1089l10 -64l-358 -823h-142l-358 803l10 84v-1089h-199v1454h191l427 -960z" />
    <glyph glyph-name="uni03FD" unicode="&#x3fd;" horiz-adv-x="1267" 
d="M382 38.5q-105 53.5 -176 151.5t-96 227v0h209v0q19 -73 63.5 -126t104 -80t124.5 -27q89 0 156 42.5t104 120.5t37 180v399q0 103 -37 180.5t-104 120.5t-156 43q-64 0 -124 -29t-104.5 -82.5t-63.5 -121.5v0h-209v0q25 129 95.5 227t175.5 151.5t230 53.5
q151 0 265.5 -67.5t177.5 -190.5t63 -285v-399q0 -162 -63 -285t-177.5 -190t-265.5 -67q-124 0 -229 53.5z" />
    <glyph glyph-name="uni03FE" unicode="&#x3fe;" horiz-adv-x="1267" 
d="M390.5 52q-114.5 67 -177.5 190t-63 285v399q0 162 63 285t177.5 190.5t265.5 67.5q125 0 230 -53.5t175.5 -151.5t95.5 -227v0h-209v0q-19 68 -63.5 121.5t-104.5 82.5t-124 29q-89 0 -156 -43t-104 -120.5t-37 -180.5v-399q0 -102 37 -180t104 -120.5t156 -42.5
q65 0 124.5 27t104 80t63.5 126v0h209v0q-25 -129 -96 -227t-176 -151.5t-229 -53.5q-151 0 -265.5 67zM587 829h204v-204h-204v204z" />
    <glyph glyph-name="uni03FF" unicode="&#x3ff;" horiz-adv-x="1267" 
d="M382 38.5q-105 53.5 -176 151.5t-96 227v0h209v0q19 -73 63.5 -126t104 -80t124.5 -27q89 0 156 42.5t104 120.5t37 180v399q0 103 -37 180.5t-104 120.5t-156 43q-64 0 -124 -29t-104.5 -82.5t-63.5 -121.5v0h-209v0q25 129 95.5 227t175.5 151.5t230 53.5
q151 0 265.5 -67.5t177.5 -190.5t63 -285v-399q0 -162 -63 -285t-177.5 -190t-265.5 -67q-124 0 -229 53.5zM476 829h204v-204h-204v204z" />
    <glyph glyph-name="uni03EF" unicode="&#x3ef;" horiz-adv-x="946" 
d="M164 -228h138q34 0 51.5 20.5t17.5 58.5v1489h204v-1487q0 -136 -61 -205.5t-192 -69.5h-158v194zM70 1038h806v-184h-806v184z" />
    <glyph glyph-name="uni03E5" unicode="&#x3e5;" horiz-adv-x="1274" 
d="M920 1038h204v-1460h-204v1460zM619 859h-32q-128 0 -190.5 -82.5t-62.5 -256.5v0q0 -161 73.5 -250.5t206.5 -89.5q146 0 226 73t80 207v75l64 -20v-108q0 -133 -48.5 -228t-140.5 -144.5t-221 -49.5q-141 0 -240.5 63t-151.5 182.5t-52 287.5v10q0 269 113 397t344 128
h32v-194z" />
    <glyph glyph-name="uni03EB" unicode="&#x3eb;" horiz-adv-x="1125" 
d="M309 820q-13 19 -27 29t-28 10h-84v194h114q32 0 59 -10t48.5 -29t39.5 -47l609 -967h-204zM284 194h552v-194h-552v194zM689 967q18 28 39.5 47t48.5 29t59 10h114v-194h-84q-14 0 -28 -10t-27 -29l-527 -820h-204z" />
    <glyph glyph-name="alpha" unicode="&#x3b1;" horiz-adv-x="1170" 
d="M294.5 38q-80.5 53 -122.5 154.5t-42 244.5v169q0 141 42 241.5t122.5 153t193.5 52.5q139 0 215.5 -91t76.5 -256v-372q0 -166 -76.5 -257.5t-215.5 -91.5q-113 0 -193.5 53zM679 246q57 67 57 188v172q0 121 -57 187t-161 66q-88 0 -136 -66t-48 -187v-172
q0 -122 48 -188.5t136 -66.5q104 0 161 67zM799.5 67q-63.5 72 -63.5 203v768h204v-770q0 -38 16.5 -58.5t46.5 -20.5h96v-194h-120q-116 0 -179.5 72z" />
    <glyph glyph-name="beta" unicode="&#x3b2;" horiz-adv-x="1114" 
d="M473.5 17q-70.5 32 -113.5 102t-54 183l58 60q0 -56 30 -97t82 -62.5t116 -21.5q97 0 150 54t53 152v44q0 109 -50.5 168.5t-142.5 59.5h-93v194h93q81 0 125 51t44 144v45q0 86 -49.5 133t-140.5 47q-103 0 -160 -63t-57 -178v0h-204v0q0 138 49.5 236t144 149.5
t227.5 51.5q127 0 218 -44.5t138.5 -129.5t47.5 -204v-24q0 -109 -59 -190t-167 -118q119 -26 184.5 -117t65.5 -232v-24q0 -191 -96 -296t-271 -105q-98 0 -168.5 32zM160 1032h204v-1454h-204v1454z" />
    <glyph glyph-name="gamma" unicode="&#x3b3;" horiz-adv-x="1061" 
d="M452 12q0 22 -3 43t-10 41q-1 4 -2 7.5t-3 7.5l-251 669q-15 40 -37 59.5t-52 19.5h-44v194h94q76 0 133.5 -67.5t108.5 -207.5l247 -680l23 36v-556h-204v434zM487 71l321 967h213l-385 -1077z" />
    <glyph glyph-name="delta" unicode="&#x3b4;" horiz-adv-x="1116" 
d="M327 38q-96 53 -146.5 154.5t-50.5 244.5v169q0 116 44.5 204.5t130.5 141.5t208 64l21 -27l-324 274v86l257 -62l262 -210q88 -70 145 -138.5t84.5 -136.5t27.5 -136v-232q0 -142 -50.5 -242.5t-146.5 -153.5t-231 -53t-231 53zM723.5 246q58.5 67 58.5 188v212
q0 121 -58.5 187t-165.5 66t-165.5 -66t-58.5 -187v-212q0 -121 58.5 -188t165.5 -67t165.5 67zM210 1454h716v-185h-716v185z" />
    <glyph glyph-name="epsilon" unicode="&#x3b5;" horiz-adv-x="963" 
d="M226 66q-106 81 -106 230v1q0 53 21.5 103.5t62.5 86t96 44.5q-73 30 -114.5 99t-41.5 153v1q0 129 100 199t284 70q132 0 224.5 -42t145.5 -126v0l-148 -121v0q-46 52 -101.5 77.5t-120.5 25.5q-86 0 -133 -29t-47 -83v-1q0 -60 28.5 -93t80.5 -33h173v-199h-173
q-63 0 -98 -29t-35 -82v-1q0 -69 53.5 -107.5t149.5 -38.5q54 0 115.5 29.5t116.5 85.5v0l139 -137v0q-64 -82 -156.5 -123t-214.5 -41q-195 0 -301 81z" />
    <glyph glyph-name="zeta" unicode="&#x3b6;" horiz-adv-x="1040" 
d="M806 -81q0 35 -16 50.5t-51 15.5h-151q-161 2 -262 49t-148.5 146t-47.5 256q0 101 32 193t98 184t171 197l93 91.5l85 80.5q30 28 62 55l62 50l217 62v-106q-15 -9 -87.5 -68.5t-182.5 -163.5l-53 -51q-98 -95 -159.5 -178t-92.5 -168t-31 -178q0 -140 61 -203.5
t197 -63.5h190q115 0 166.5 -53.5t51.5 -172.5v-204h-204v180zM184 1249v205h766v-205h-766z" />
    <glyph glyph-name="eta" unicode="&#x3b7;" horiz-adv-x="1144" 
d="M160 1038h204v-1038h-204v1038zM790 629q0 110 -57 170t-160 60q-100 0 -154.5 -53t-54.5 -149l-21 200q48 94 125.5 145t171.5 51q169 0 261.5 -110.5t92.5 -312.5v-901h-204v900z" />
    <glyph glyph-name="theta" unicode="&#x3b8;" horiz-adv-x="1116" 
d="M327 38q-96 53 -146.5 154.5t-50.5 244.5v585q0 141 50.5 241.5t146.5 153t231 52.5t231 -52.5t146.5 -153t50.5 -241.5v-588q0 -142 -50.5 -242.5t-146.5 -153.5t-231 -53t-231 53zM723.5 246q58.5 67 58.5 188v588q0 121 -58.5 187t-165.5 66t-165.5 -66t-58.5 -187
v-588q0 -121 58.5 -188t165.5 -67t165.5 67zM259 819h584v-194h-584v194z" />
    <glyph glyph-name="iota" unicode="&#x3b9;" horiz-adv-x="594" 
d="M223.5 67q-63.5 72 -63.5 203v768h204v-770q0 -38 16.5 -58.5t46.5 -20.5h96v-194h-120q-116 0 -179.5 72z" />
    <glyph glyph-name="kappa" unicode="&#x3ba;" horiz-adv-x="1083" 
d="M277 392l476 549q49 56 102 84t112 28h54v-214h-34q-37 0 -72 -17.5t-68 -52.5l-493 -527zM160 1038h204v-1038h-204v1038zM489 599l131 136l453 -735h-222z" />
    <glyph glyph-name="lambda" unicode="&#x3bb;" horiz-adv-x="1076" 
d="M228 0h-188l480 1118l87 -244zM310 1246.5q-22 20.5 -52 20.5h-74v194h149q56 0 101 -39.5t73 -115.5l386 -1043q15 -38 37 -58.5t52 -20.5h54v-194h-129q-54 0 -96.5 31t-65.5 94l-398 1073q-15 38 -37 58.5z" />
    <glyph glyph-name="mu" unicode="&#x3bc;" horiz-adv-x="1219" 
d="M160 1038h204v-902h-11l11 -416h-204v1318zM444 10.5q-50 25.5 -75.5 76.5t-28.5 129l24 167q0 -102 52 -153t155 -51q108 0 161.5 51t53.5 153l34 -167q-10 -116 -72 -173.5t-177 -57.5q-77 0 -127 25.5zM848.5 67q-63.5 72 -63.5 203v768h204v-770q0 -38 16.5 -58.5
t46.5 -20.5h96v-194h-120q-116 0 -179.5 72z" />
    <glyph glyph-name="nu" unicode="&#x3bd;" horiz-adv-x="1041" 
d="M447 0l-254 780q-13 39 -35.5 59t-53.5 20h-44v194h94q53 0 99 -30.5t82.5 -92t60.5 -152.5l128 -481l244 741h213l-380 -1038h-154z" />
    <glyph glyph-name="xi" unicode="&#x3be;" horiz-adv-x="1096" 
d="M802 -81q0 33 -16.5 49.5t-50.5 16.5h-91q-249 0 -373 100t-124 301v24q0 148 67 235t203 114q-113 37 -169.5 109t-56.5 179v4q0 133 112.5 197t341.5 64v-51q-125 0 -187.5 -52t-62.5 -156v-5q0 -98 59.5 -146.5t179.5 -48.5h263v-194h-263q-142 0 -212.5 -64.5
t-70.5 -193.5v-14q0 -109 73 -163.5t220 -54.5h184q89 0 133.5 -41.5t44.5 -124.5v-264h-204v180zM140 1454h836v-194h-836v194z" />
    <glyph glyph-name="omicron" unicode="&#x3bf;" horiz-adv-x="1116" 
d="M327 38q-96 53 -146.5 154.5t-50.5 244.5v169q0 141 50.5 241.5t146.5 153t231 52.5t231 -52.5t146.5 -153t50.5 -241.5v-172q0 -142 -50.5 -242.5t-146.5 -153.5t-231 -53t-231 53zM723.5 246q58.5 67 58.5 188v172q0 121 -58.5 187t-165.5 66t-165.5 -66t-58.5 -187
v-172q0 -121 58.5 -188t165.5 -67t165.5 67z" />
    <glyph glyph-name="pi" unicode="&#x3c0;" horiz-adv-x="1386" 
d="M929.5 59.5q-58.5 69.5 -58.5 205.5v665h204v-667q0 -38 15 -58.5t44 -20.5h98v-194h-118q-126 0 -184.5 69.5zM301 929h204v-929h-204v929zM110 1038h1156v-194h-1156v194z" />
    <glyph glyph-name="rho" unicode="&#x3c1;" horiz-adv-x="1114" 
d="M160 629q0 134 48.5 229.5t141 145t222.5 49.5t222.5 -49.5t141 -145t48.5 -229.5v-225q0 -132 -41.5 -226t-121 -143.5t-191.5 -49.5q-104 0 -181 57t-114 161l29 177q0 -101 53.5 -156t150.5 -55q101 0 156.5 61.5t55.5 173.5v225q0 115 -54.5 177.5t-153.5 62.5
t-153.5 -62.5t-54.5 -177.5v-1051h-204v1051z" />
    <glyph glyph-name="sigma1" unicode="&#x3c2;" horiz-adv-x="1020" 
d="M646 -80q0 32 -14.5 48.5t-52.5 16.5v0q-142 0 -242.5 53t-153.5 154.5t-53 244.5v170q0 141 53 241t153.5 152.5t242.5 52.5q122 0 220 -43.5t156 -122.5v0l-147 -132v0q-44 50 -103 77t-123 27q-118 0 -183 -66t-65 -186v-170q0 -128 65 -197.5t183 -69.5h60
q99 0 153.5 -54t54.5 -152v-225h-204v181z" />
    <glyph glyph-name="sigma" unicode="&#x3c3;" horiz-adv-x="1216" 
d="M322 38q-94 53 -143 154.5t-49 244.5v169q0 136 49 233t143 148t226 51l177 -139q77 -20 131 -60.5t82 -99t28 -133.5v-172q0 -142 -49 -242.5t-143 -153.5t-226 -53t-226 53zM706 245.5q56 66.5 56 188.5v172q0 118 -56 183t-158 65t-158 -65t-56 -183v-172
q0 -122 56 -188.5t158 -66.5t158 66.5zM548 1038h608v-194h-508z" />
    <glyph glyph-name="tau" unicode="&#x3c4;" horiz-adv-x="1056" 
d="M464.5 59.5q-58.5 69.5 -58.5 205.5v665h204v-667q0 -38 15 -58.5t44 -20.5h108v-194h-128q-126 0 -184.5 69.5zM110 1038h806v-194h-806v194z" />
    <glyph glyph-name="upsilon" unicode="&#x3c5;" horiz-adv-x="1149" 
d="M367 34.5q-92 49.5 -140 144.5t-48 228v372q0 38 -16.5 58.5t-46.5 20.5h-56v194h80q116 0 179.5 -72t63.5 -203v-370q0 -109 54 -168.5t152 -59.5t152 59.5t54 168.5v631h204v-631q0 -133 -48 -228t-140 -144.5t-222 -49.5t-222 49.5z" />
    <glyph glyph-name="phi" unicode="&#x3c6;" horiz-adv-x="1366" 
d="M367 44q-126 59 -189 177t-63 296v9q0 176 63 293t189 175.5t316 58.5t316 -58.5t189 -175.5t63 -293v-12q0 -177 -63 -294.5t-189 -176t-316 -58.5t-316 59zM581 1339h204v-1640h-204v1640zM967.5 221.5q94.5 87.5 94.5 262.5v72q0 175 -94.5 261.5t-284.5 86.5
q-127 0 -211 -38.5t-126 -116t-42 -193.5v-72q0 -175 94.5 -262.5t284.5 -87.5t284.5 87.5z" />
    <glyph glyph-name="chi" unicode="&#x3c7;" horiz-adv-x="1035" 
d="M794 -417q-40 20 -73 61t-62 104l-467 1032q-18 40 -39 59.5t-50 19.5h-73v194h103q47 0 87 -20t73 -61t62 -104l467 -1032q13 -28 27.5 -44.5t38.5 -25.5t63 -9h34v-194h-104q-47 0 -87 20zM432 365l108 -175l-277 -612h-223zM499 426l248 612h223l-363 -787z" />
    <glyph glyph-name="psi" unicode="&#x3c8;" horiz-adv-x="1452" 
d="M422 53.5q-128 68.5 -195 198.5t-67 314v472h204v-479q0 -124 43 -212.5t125 -134.5t198 -46t199 46t126 134.5t43 212.5v479h204v-472q0 -184 -67.5 -314t-195.5 -198.5t-309 -68.5q-180 0 -308 68.5zM629 1339h204v-1640h-204v1640z" />
    <glyph glyph-name="omega" unicode="&#x3c9;" horiz-adv-x="1488" 
d="M785.5 81.5q-83.5 96.5 -83.5 272.5v250h144v-250q0 -83 40.5 -129t113.5 -46t113.5 46t40.5 129v302q0 97 -51 150t-143 53v194q126 0 215.5 -46.5t136 -136t46.5 -214.5v-299q0 -177 -88.5 -274.5t-249.5 -97.5q-151 0 -234.5 96.5zM218.5 82.5q-88.5 97.5 -88.5 274.5
v299q0 125 46.5 214.5t136 136t215.5 46.5v-194q-92 0 -143 -53t-51 -150v-302q0 -83 40.5 -129t113.5 -46t113.5 46t40.5 129v250h144v-250q0 -176 -83.5 -272.5t-234.5 -96.5q-161 0 -249.5 97.5z" />
    <glyph glyph-name="iotatonos" unicode="&#x3af;" horiz-adv-x="594" 
d="M223.5 67q-63.5 72 -63.5 203v768h204v-770q0 -38 16.5 -58.5t46.5 -20.5h96v-194h-120q-116 0 -179.5 72zM188.596 1274.08l147.316 431.355l179.839 -64.3564l-171.665 -420.002z" />
    <glyph glyph-name="iotadieresis" unicode="&#x3ca;" horiz-adv-x="594" 
d="M223.5 67q-63.5 72 -63.5 203v768h204v-770q0 -38 16.5 -58.5t46.5 -20.5h96v-194h-120q-116 0 -179.5 72zM365 1454h204v-204h-204v204zM-55 1454h204v-204h-204v204z" />
    <glyph glyph-name="iotadieresistonos" unicode="&#x390;" horiz-adv-x="594" 
d="M223.5 67q-63.5 72 -63.5 203v768h204v-770q0 -38 16.5 -58.5t46.5 -20.5h96v-194h-120q-116 0 -179.5 72zM445 1455h204v-204h-204v204zM-125 1455h204v-204h-204v204zM135 1274l148 432l180 -65l-172 -420z" />
    <glyph glyph-name="upsilontonos" unicode="&#x3cd;" horiz-adv-x="1149" 
d="M367 34.5q-92 49.5 -140 144.5t-48 228v372q0 38 -16.5 58.5t-46.5 20.5h-56v194h80q116 0 179.5 -72t63.5 -203v-370q0 -109 54 -168.5t152 -59.5t152 59.5t54 168.5v631h204v-631q0 -133 -48 -228t-140 -144.5t-222 -49.5t-222 49.5zM496.596 1274.08l147.316 431.355
l179.839 -64.3564l-171.665 -420.002z" />
    <glyph glyph-name="upsilondieresis" unicode="&#x3cb;" horiz-adv-x="1149" 
d="M367 34.5q-92 49.5 -140 144.5t-48 228v372q0 38 -16.5 58.5t-46.5 20.5h-56v194h80q116 0 179.5 -72t63.5 -203v-370q0 -109 54 -168.5t152 -59.5t152 59.5t54 168.5v631h204v-631q0 -133 -48 -228t-140 -144.5t-222 -49.5t-222 49.5zM673 1454h204v-204h-204v204z
M253 1454h204v-204h-204v204z" />
    <glyph glyph-name="upsilondieresistonos" unicode="&#x3b0;" horiz-adv-x="1149" 
d="M367 34.5q-92 49.5 -140 144.5t-48 228v372q0 38 -16.5 58.5t-46.5 20.5h-56v194h80q116 0 179.5 -72t63.5 -203v-370q0 -109 54 -168.5t152 -59.5t152 59.5t54 168.5v631h204v-631q0 -133 -48 -228t-140 -144.5t-222 -49.5t-222 49.5zM753 1455h204v-204h-204v204z
M183 1455h204v-204h-204v204zM443 1274l148 432l180 -65l-172 -420z" />
    <glyph glyph-name="omicrontonos" unicode="&#x3cc;" horiz-adv-x="1116" 
d="M327 38q-96 53 -146.5 154.5t-50.5 244.5v169q0 141 50.5 241.5t146.5 153t231 52.5t231 -52.5t146.5 -153t50.5 -241.5v-172q0 -142 -50.5 -242.5t-146.5 -153.5t-231 -53t-231 53zM723.5 246q58.5 67 58.5 188v172q0 121 -58.5 187t-165.5 66t-165.5 -66t-58.5 -187
v-172q0 -121 58.5 -188t165.5 -67t165.5 67zM490.596 1274.08l147.316 431.355l179.839 -64.3564l-171.665 -420.002z" />
    <glyph glyph-name="omegatonos" unicode="&#x3ce;" horiz-adv-x="1488" 
d="M785.5 81.5q-83.5 96.5 -83.5 272.5v250h144v-250q0 -83 40.5 -129t113.5 -46t113.5 46t40.5 129v302q0 97 -51 150t-143 53v194q126 0 215.5 -46.5t136 -136t46.5 -214.5v-299q0 -177 -88.5 -274.5t-249.5 -97.5q-151 0 -234.5 96.5zM218.5 82.5q-88.5 97.5 -88.5 274.5
v299q0 125 46.5 214.5t136 136t215.5 46.5v-194q-92 0 -143 -53t-51 -150v-302q0 -83 40.5 -129t113.5 -46t113.5 46t40.5 129v250h144v-250q0 -176 -83.5 -272.5t-234.5 -96.5q-161 0 -249.5 97.5zM675.596 1274.08l147.316 431.355l179.839 -64.3564l-171.665 -420.002z
" />
    <glyph glyph-name="alphatonos" unicode="&#x3ac;" horiz-adv-x="1170" 
d="M294.5 38q-80.5 53 -122.5 154.5t-42 244.5v169q0 141 42 241.5t122.5 153t193.5 52.5q139 0 215.5 -91t76.5 -256v-372q0 -166 -76.5 -257.5t-215.5 -91.5q-113 0 -193.5 53zM679 246q57 67 57 188v172q0 121 -57 187t-161 66q-88 0 -136 -66t-48 -187v-172
q0 -122 48 -188.5t136 -66.5q104 0 161 67zM799.5 67q-63.5 72 -63.5 203v768h204v-770q0 -38 16.5 -58.5t46.5 -20.5h96v-194h-120q-116 0 -179.5 72zM469.596 1274.08l147.316 431.355l179.839 -64.3564l-171.665 -420.002z" />
    <glyph glyph-name="epsilontonos" unicode="&#x3ad;" horiz-adv-x="963" 
d="M226 66q-106 81 -106 230v1q0 53 21.5 103.5t62.5 86t96 44.5q-73 30 -114.5 99t-41.5 153v1q0 129 100 199t284 70q132 0 224.5 -42t145.5 -126v0l-148 -121v0q-46 52 -101.5 77.5t-120.5 25.5q-86 0 -133 -29t-47 -83v-1q0 -60 28.5 -93t80.5 -33h173v-199h-173
q-63 0 -98 -29t-35 -82v-1q0 -69 53.5 -107.5t149.5 -38.5q54 0 115.5 29.5t116.5 85.5v0l139 -137v0q-64 -82 -156.5 -123t-214.5 -41q-195 0 -301 81zM422.596 1274.08l147.316 431.355l179.839 -64.3564l-171.665 -420.002z" />
    <glyph glyph-name="etatonos" unicode="&#x3ae;" horiz-adv-x="1144" 
d="M160 1038h204v-1038h-204v1038zM790 629q0 110 -57 170t-160 60q-100 0 -154.5 -53t-54.5 -149l-21 200q48 94 125.5 145t171.5 51q169 0 261.5 -110.5t92.5 -312.5v-901h-204v900zM503.596 1274.08l147.316 431.355l179.839 -64.3564l-171.665 -420.002z" />
    <glyph glyph-name="uni0371" unicode="&#x371;" horiz-adv-x="756" 
d="M160 1038h204v-1038h-204v1038zM287 602h379v-184h-379v184z" />
    <glyph glyph-name="uni0373" unicode="&#x373;" horiz-adv-x="946" 
d="M0 1454h204v-436h-204v436zM702 1454h204v-436h-204v436zM351 1335h204v-1335h-204v1335zM0 1454h906v-184h-906v184z" />
    <glyph glyph-name="uni0377" unicode="&#x377;" horiz-adv-x="1174" 
d="M812 1v737l24 -26l-499 -711h-177v1037h202v-754l-24 26l501 728h175v-1037h-202z" />
    <glyph glyph-name="uni037B" unicode="&#x37b;" horiz-adv-x="1020" 
d="M221.5 27.5q-98.5 42.5 -156.5 120.5v0l147 132v0q43 -53 102 -82t124 -29q118 0 183 69.5t65 197.5v171q0 120 -65 186t-183 66q-64 0 -123 -27t-103 -77v0l-147 132v0q58 79 156 122.5t220 43.5q142 0 242.5 -52.5t153.5 -152.5t53 -241v-171q0 -143 -53 -244
t-153.5 -154t-242.5 -53q-121 0 -219.5 42.5z" />
    <glyph glyph-name="uni037C" unicode="&#x37c;" horiz-adv-x="1020" 
d="M336.5 38q-100.5 53 -153.5 154t-53 244v171q0 141 53 241t153.5 152.5t242.5 52.5q81 0 152.5 -19.5t128.5 -56.5t95 -90v0l-147 -132v0q-44 50 -103 77t-123 27q-118 0 -183 -66t-65 -186v-171q0 -123 64.5 -190t183.5 -67q65 0 124 29t102 82v0l147 -142v0
q-39 -52 -96 -88.5t-128.5 -55.5t-151.5 -19q-142 0 -242.5 53zM492 617h204v-204h-204v204z" />
    <glyph glyph-name="uni037D" unicode="&#x37d;" horiz-adv-x="1020" 
d="M221.5 27.5q-98.5 42.5 -156.5 120.5v0l147 132v0q43 -53 102 -82t124 -29q118 0 183 69.5t65 197.5v171q0 120 -65 186t-183 66q-64 0 -123 -27t-103 -77v0l-147 132v0q58 79 156 122.5t220 43.5q142 0 242.5 -52.5t153.5 -152.5t53 -241v-171q0 -143 -53 -244
t-153.5 -154t-242.5 -53q-121 0 -219.5 42.5zM324 617h204v-204h-204v204z" />
    <glyph glyph-name="uni03D9" unicode="&#x3d9;" horiz-adv-x="1116" 
d="M456 169h204v-440h-204v440zM327 38q-96 53 -146.5 154.5t-50.5 244.5v169q0 141 50.5 241.5t146.5 153t231 52.5t231 -52.5t146.5 -153t50.5 -241.5v-172q0 -142 -50.5 -242.5t-146.5 -153.5t-231 -53t-231 53zM723.5 246q58.5 67 58.5 188v172q0 121 -58.5 187
t-165.5 66t-165.5 -66t-58.5 -187v-172q0 -121 58.5 -188t165.5 -67t165.5 67z" />
    <glyph glyph-name="uni03DB" unicode="&#x3db;" horiz-adv-x="1061" 
d="M756 -81q0 33 -16.5 49.5t-50.5 16.5h-61q-166 0 -277 57.5t-166 171t-55 282.5q0 159 63 268.5t189.5 172t318.5 81.5q47 4 71.5 34.5t24.5 78.5h199q0 -131 -85 -206.5t-253 -90.5q-165 -14 -247 -98.5t-82 -239.5q0 -164 78 -245.5t235 -81.5h100q73 0 121.5 -25
t72.5 -75t24 -126v-204h-204v180z" />
    <glyph glyph-name="uni03DD" unicode="&#x3dd;" horiz-adv-x="1005" 
d="M180 1038h204v-1460h-204v1460zM280 384l565 2v-194l-565 -2v194zM280 1038h675v-194h-675v194z" />
    <glyph glyph-name="uni03DF" unicode="&#x3df;" horiz-adv-x="1210" 
d="M760 -422h-235l390 823h235zM305 207h-235l412 831h235zM237 401h807v-194h-807v194z" />
    <glyph glyph-name="uni03E1" unicode="&#x3e1;" horiz-adv-x="1174" 
d="M771.5 -10q43.5 232 43.5 437q0 422 -109 632.5t-328 210.5q-141 0 -278 -50l-40 199q179 50 318 50q324 0 485 -260t161 -782q0 -203 -40.5 -435.5t-115.5 -413.5h-220q80 180 123.5 412zM219 369l645 227l64 -178l-644 -227zM89 814l654 234l64 -178l-653 -234z" />
    <glyph glyph-name="uni03D7" unicode="&#x3d7;" horiz-adv-x="1362" 
d="M945 -152h114q43 0 66 28.5t23 80.5v233h204v-231q0 -145 -71.5 -225t-201.5 -80h-134v194zM955 76q-64 80 -64 225q0 85 12.5 177.5t52.5 198.5l-497 -676h-180q33 207 51.5 377t18.5 332q0 66 -27 102.5t-76 36.5h-86v194h110q133 0 207 -79.5t74 -225.5
q0 -88 -14 -187.5t-38 -205.5l-4 -18l-4 -18l540 729h175q-54 -204 -83.5 -397t-29.5 -342q0 -52 17.5 -80.5t48.5 -28.5h83v-194h-107q-116 0 -180 80z" />
    <glyph glyph-name="uni03D0" unicode="&#x3d0;" horiz-adv-x="1136" 
d="M347 38q-96 53 -146.5 154.5t-50.5 244.5v585q0 141 49 241.5t143 153t226 52.5q126 0 215.5 -46.5t136 -136t46.5 -214.5v-22q0 -80 -30.5 -151.5t-89.5 -116t-140 -44.5l82 -87h-342v194h132q88 0 136 56t48 159v12q0 97 -51 150t-143 53q-102 0 -158 -66t-56 -187
v-588q0 -121 58.5 -188t165.5 -67t165.5 59t58.5 166v22q0 107 -58.5 166t-165.5 59v134q135 0 231 -42t146.5 -123t50.5 -194v-22q0 -132 -50.5 -226t-146.5 -143.5t-231 -49.5t-231 53z" />
    <glyph glyph-name="theta1" unicode="&#x3d1;" horiz-adv-x="1224" 
d="M391.5 34.5q-91.5 49.5 -139.5 143.5t-48 226h204q0 -107 53.5 -166t150.5 -59t150.5 66.5t53.5 188.5v588q0 121 -51 187t-143 66q-73 0 -113.5 -40t-40.5 -113v-12q0 -69 40.5 -107t113.5 -38h552v-194h-580q-157 0 -243.5 86t-86.5 243v22q0 166 93.5 256.5
t264.5 90.5q126 0 215.5 -52.5t136 -153t46.5 -241.5v-585q0 -143 -48 -244.5t-139.5 -154.5t-220.5 -53t-220.5 49.5zM204 486q0 48 -17 82.5t-49.5 52.5t-77.5 18v194q110 0 188 -41t119 -119t41 -187v-82h-204v82z" />
    <glyph glyph-name="phi1" unicode="&#x3d5;" horiz-adv-x="1366" 
d="M581 686q0 184 86.5 275.5t261.5 91.5q161 0 241.5 -94t80.5 -283v-162q0 -177 -63 -294.5t-189 -176t-316 -58.5t-316 59t-189 177t-63 296v9q0 175 61.5 291.5t185.5 174.5l98 -135q-78 -44 -117 -126.5t-39 -204.5v-12q0 -190 94.5 -285t284.5 -95t284.5 95t94.5 285
v172q0 90 -34 134.5t-102 44.5q-71 0 -106 -42t-35 -127v-997h-204v987z" />
    </font>
</defs>
</svg>
